<?xml version="1.0" encoding="utf-8"?>
<!-- Generator: Adobe Illustrator 27.9.0, SVG Export Plug-In . SVG Version: 6.00 Build 0)  -->
<svg version="1.1" id="Graphic_Element" xmlns="http://www.w3.org/2000/svg" xmlns:xlink="http://www.w3.org/1999/xlink" x="0px"
	 y="0px" viewBox="0 0 1200 1007" style="enable-background:new 0 0 1200 1007;" xml:space="preserve">
<style type="text/css">
	.st0{fill:#FFFFFF;}
	.st1{fill:#9EC54D;}
	.st2{fill:#E8CF82;}
	.st3{fill:#A5CEA4;}
</style>
<g>
	<g>
		<path class="st0" d="M411,450.5c-0.3,0-0.6,0-0.9,0c0.3,0.6,0.5,1.3,0.8,1.9c0.6-0.7,2.2-0.3,3-0.3c1.3,0.1,2.6-0.1,3.9-0.3
			c3-0.5,5.9-1.7,8.9-2.1c3.2-0.4,6.3-0.8,9.4-1.8c3.2-1.1,6.4-2,9.8-2.8c6.7-1.5,13.3-3.1,20-4.6c6.8-1.5,13.7-2.5,20.5-3.8
			c3.4-0.6,6.7-1.7,10.1-2.2c1.5-0.3,3.1-0.5,4.6-0.8c1.6-0.4,3.2-1.1,4.8-1.6c6.4-2,13.1-3.4,19.6-4.9c3.4-0.8,6.7-1.4,10-2.4
			c1.5-0.4,3.1-0.9,4.6-1.3c1.5-0.5,2.9-1.1,4.4-1.5c1.5-0.4,3-1,4.5-1.2c1.6-0.2,3.3-0.3,4.9-0.8c1.5-0.4,3-0.7,4.5-0.9
			c1.6-0.3,3.2-0.8,4.8-1.1c1.8-0.4,3.7-0.2,5.6-0.5c1.8-0.2,3.6-0.6,5.3-1c1.9-0.4,3.8-0.6,5.7-0.9c0.9-0.1,1.7-0.5,2.6-0.7
			c0.9-0.2,1.8-0.2,2.7-0.3c1.7-0.2,3.5-0.7,5.2-1.1c1.7-0.5,3.3-1.2,5-1.6c1.3-0.3,2.7-0.6,4-1c1.1-0.3,2.1-0.8,2.4-1.9
			c0.4-1.4-1.7-1.9-2.1-0.6c-0.1,0.4-2.1,0.6-2.5,0.7c-1.6,0.4-3.2,0.8-4.8,1.4c-3,1.1-6.2,1.7-9.4,2.1c-1.5,0.2-2.9,0.8-4.5,1
			c-1.7,0.2-3.4,0.4-5,0.8c-1.5,0.3-3,0.7-4.6,0.9c-1.7,0.2-3.3,0.1-5,0.3c-1.5,0.2-2.9,0.6-4.4,1c-1.6,0.4-3.2,0.4-4.8,0.9
			c-1.5,0.4-3,0.8-4.6,1c-1.6,0.2-3.1,0.5-4.6,1c-6.2,2-12.4,3.9-18.9,5.3c-6.6,1.4-13.2,2.9-19.7,4.8c-3.1,0.9-6,2.1-9.2,2.6
			c-3.3,0.5-6.5,1.4-9.7,2.1c-6.7,1.4-13.5,2.3-20.3,3.7c-6.8,1.4-13.5,3.1-20.2,4.6c-3.6,0.8-7.1,1.6-10.6,2.8
			c-1.6,0.6-3.3,1.1-5,1.5c-1.8,0.4-3.6,0.5-5.4,0.8c-3.5,0.5-6.8,1.8-10.3,2.3c-1.3,0.2-2.6,0-3.9,0c-1.1,0-2.3,0.1-3.1,1
			c-0.6,0.7-0.3,1.9,0.8,1.9c0.3,0,0.6,0,0.9,0C412.4,452.7,412.4,450.5,411,450.5L411,450.5z"/>
	</g>
</g>
<g>
	<g>
		<path class="st0" d="M607.6,321.7c-0.1-0.2-0.2-0.3-0.3-0.5c-0.3,0.6-0.6,1.1-1,1.7c-0.5,0-0.3-0.1-0.1,0.4
			c0.1,0.3,0.2,0.7,0.3,1.1c0.2,0.9,0.7,1.6,1.1,2.4c0.6,1,1.3,2.1,1.6,3.3c0.3,1.2,0,2.4,0,3.5c0,2.2,0.7,4.6,1.3,6.7
			c0.7,2.4,1.5,4.7,2.1,7.1c1.3,4.9,2.9,9.5,3.7,14.5c0.7,4.9,1.3,9.7,2.6,14.5c0.7,2.4,1,4.9,1.8,7.3c0.3,1.1,0.6,2.1,0.9,3.2
			c0.4,1.1,1,1.9,1.5,2.9c0.6,1.1,0.4,1.9-0.6,2.7c-1,0.8-2.1,1.6-3.1,2.3c-1.9,1.4-3.9,2.7-5.7,4.2c-0.8,0.7-1.6,1.5-2.4,2.1
			c-1,0.8-2,1.4-3,2.2c-1.9,1.5-3.6,3.3-5.4,4.8c-1.8,1.6-3.8,2.9-5.6,4.5c-1.7,1.5-3.3,3.3-4.6,5.2c-0.6,0.9-1.1,2-1.8,2.8
			c-0.6,0.8-1.3,1.4-1.9,2.2c-1.1,1.5-1.6,3.4-1.5,5.2c0.1,1.7,0.8,3.4,2.2,4.5c1.5,1.1,3.4,1.3,5.2,1.6c2.3,0.3,4.5,0.5,6.8,0.4
			c1.1,0,2.2,0,3.3-0.1c1.2-0.1,2.4-0.5,3.6-0.7c1.2-0.3,2.4-0.2,3.6-0.4c1.2-0.2,2.3-0.5,3.4-0.8c2.5-0.6,5.2-0.8,7.7-1.3
			c5.1-1,10-2.7,15-3.6c2.5-0.5,5.1-0.8,7.6-1.3c2.3-0.5,4.5-0.8,6.8-0.9c0.9,0,1.9-0.1,2.6,0.5c0.7,0.8,0.9,2.1,1.2,3.1
			c0.5,2.1,1.5,3.9,2.8,5.7c1.5,2.2,2.8,4.4,4.2,6.7c1.2,1.9,2.5,3.7,3.8,5.6c1.2,1.9,1.8,4,2.7,6c1,2.1,2.2,4.1,3.5,6.1
			c0.6,1,1.4,1.8,2,2.8c0.7,1.1,1.3,2.3,1.9,3.4c1.3,2.1,2.5,4.3,3.7,6.5c0.6,1.1,1.2,2,1.7,3.2c0.4,1,0.7,2.1,1.3,3.1
			c0.8,1.4,1.5,2.4,1.8,4c0.6,2.4,0.9,5.6,2.9,7.3c1,0.9,2.2,1,3.5,0.8c1.4-0.2,0.8-2.3-0.6-2.1c-2.5,0.4-3.1-4-3.4-5.7
			c-0.2-1.1-0.5-2.3-1-3.3c-0.4-0.9-1.1-1.7-1.6-2.6c-0.5-1-0.8-2.2-1.3-3.2c-1-2.2-2.3-4.3-3.5-6.4c-0.6-1.1-1.3-2.1-1.9-3.1
			c-0.6-1.1-1.2-2.2-2-3.3c-1.4-1.9-2.7-3.8-3.8-5.9c-0.5-0.9-1.1-1.9-1.5-2.9c-0.4-1-0.7-2.1-1.2-3.1c-0.9-2-2.3-3.7-3.5-5.5
			c-1.5-2.1-2.7-4.4-4.1-6.6c-1.2-1.9-2.7-3.7-3.6-5.8c-0.8-1.9-0.8-4.3-2.2-5.9c-1.2-1.5-3.1-1.4-4.8-1.3c-2.2,0.1-4.3,0.4-6.5,0.9
			c-2.5,0.5-5.1,0.8-7.6,1.3c-2.6,0.5-5.1,1.2-7.6,1.8c-2.5,0.7-5.1,1.3-7.7,1.8c-2.5,0.5-5,0.8-7.5,1.3c-1.1,0.2-2.1,0.6-3.2,0.8
			c-1.2,0.2-2.5,0.2-3.8,0.4c-1.1,0.2-2.2,0.7-3.4,0.8c-1.3,0.1-2.5,0.1-3.8,0.1c-2.3,0-4.5-0.2-6.7-0.5c-1.8-0.3-3.8-0.6-4.6-2.5
			c-0.7-1.8-0.2-4,0.9-5.4c0.6-0.8,1.3-1.4,1.8-2.2c0.7-0.9,1.2-1.9,1.8-2.9c2.7-4.1,6.8-6.5,10.4-9.7c1.9-1.7,3.6-3.5,5.6-5
			c1.9-1.3,3.5-2.9,5.3-4.3c1.9-1.5,4-2.9,6-4.3c1.5-1.1,3.6-2.3,3.7-4.4c0.1-2.1-1.5-3.7-2.1-5.7c-0.7-2.3-1.4-4.6-1.8-7
			c-0.5-2.4-1.2-4.7-1.7-7.1c-0.5-2.4-0.8-4.9-1.2-7.4c-0.3-2.5-0.7-4.9-1.2-7.4c-0.5-2.4-1.4-4.6-2-7c-0.7-2.5-1.3-5-2-7.5
			c-0.7-2.2-1.3-4.4-1.8-6.7c-0.2-1.2-0.3-2.2-0.3-3.4c0.1-1.1,0.1-2.2-0.3-3.3c-0.7-2-2.1-3.6-2.7-5.6c-0.3-1.3-0.7-2.7-2.3-2.9
			c-0.8-0.1-1.4,1-1,1.7c0.1,0.2,0.2,0.3,0.3,0.5C606.5,324,608.4,322.9,607.6,321.7L607.6,321.7z"/>
	</g>
</g>
<path class="st0" d="M617.5,749.3c5,2.6,9.8,5.2,14.7,7.6c4.2,2.1,6.7,5.7,8.4,9.9c0.9,2.3,0.3,4.4-0.8,6.4
	c-1.6,2.8-3.9,4.7-6.9,5.9c-5.6,2.3-11.5,2.3-17.4,2.1c-7.3-0.2-14.7-0.2-22-0.1c-2.1,0-4.2,0.5-6.3,1c-2.4,0.5-4.6,1.6-6.2,3.5
	c-2.3,2.7-4.7,5.4-6.8,8.2c-4.1,5.5-8.1,11.1-12.1,16.7c-0.6,0.9-1.2,1.6-1,2.9c0.3,1.4-0.7,2.2-2,2.8c-0.8,0.3-1.7,0.9-2.2,1.6
	c-3.9,5.4-7.7,10.9-11.4,16.4c-0.7,1.1-1.1,2.4-1.7,3.6c-1.4,2.8-2.2,6.1-4.3,8.1c-4.1,4-5.9,9.2-8.4,14.1c-0.3,0.6-0.5,1.4-1,1.7
	c-0.6,0.4-1.6,0.8-2.3,0.6c-0.5-0.1-1.2-1.2-1.2-1.7c0.2-1.9,0.5-3.8,1.1-5.6c0.7-2.1,1.9-4,2.9-6.2c-5.3-1.9-10.1-4.5-15.5-5.7
	c-7.8-1.7-15.5-4-22.8-7.5c-5.8-2.7-11.6-5.2-17.4-7.8c-11.4-5.1-22.1-11.4-32.1-18.9c-1.9-1.5-4-2.7-5.8-4.3
	c-4.2-3.4-8.3-6.9-12.4-10.5c-4.8-4.2-9.4-8.5-14.1-12.9c-1.3-1.2-2.5-2.6-3.9-4.1c-0.5,0.5-0.9,0.8-1.2,1.1
	c-3.4,4.1-6.8,8.2-10.2,12.3c-0.8,1-1.5,1.9-1.6,3.3c-0.1,1-0.8,1.9-1.4,2.8c-1.1,1.8-2.3,3.5-3.6,5.4c0.6,0.7,1,1.2,1.4,1.6
	c5.5,5,11.1,10,16.5,15c7,6.5,14.7,11.9,22.8,16.9c3,1.8,5.7,3.9,8.5,6c1.3,1,2.9,1.9,2.9,4c0,0.4,0.7,0.8,1.2,1.2
	c3,2.1,6,4.2,9,6.3c1.1,0.8,2.1,1.7,2.8,2.8c0.4,0.6,0.4,1.8,0,2.3c-0.4,0.5-1.5,0.6-2.3,0.5c-0.7-0.1-1.3-0.7-2-1.2
	c-6.1-4.2-12.3-8.4-18.4-12.7c-0.7-0.5-1.5-1.1-1.8-1.8c-1.3-3.4-4.6-4.5-7.1-6.4c-1-0.7-2.3-1.1-3.2-1.9c-4.8-4.3-10-8.2-15.4-11.7
	c-6.6-4.2-13-8.7-18.1-15.1c-1.2,1.4-3.1,1.3-4.1,3c-0.8,1.2-2,0.3-3-0.3c-1.2-0.8-1.9-1.6-1.4-3.1c0.1-0.3,0.3-0.5,0.5-0.7
	c2.3-1.9,3.1-4.8,4.5-7.3c1-1.9,2.3-3.8,3.6-5.6c2-2.8,4.3-5.5,6.1-8.4c3.5-5.7,7.8-10.8,12.3-15.7c1.1-1.2,2.9-2.1,2.1-4.4
	c-0.2-0.4,0.6-1.3,1.1-1.9c1.4-1.6,3-3.1,4.2-4.8c6.1-8.5,13.2-16.1,20.2-23.8c0.8-0.8,1.2-1.6,1.1-2.8c-0.1-1.6,0.8-2.2,2.4-1.9
	c1.4,0.3,2.7,0.5,4.1,0.7c0.3,0,0.8-0.2,1-0.4c3.7-3.3,7.4-6.7,11.1-10c-0.1-0.2-0.2-0.5-0.3-0.7c-2.6,0.4-5.3,0.6-7.9,1.1
	c-10.1,1.9-20.3,3.8-30.4,5.8c-2.3,0.4-4.5,1.1-6.7,1.9c-0.7,0.2-1.4,0.8-2,1.4c-1.1,1.2-2.2,1.5-3.2,0.4c-1.2-1.4-2.5-2.8-2.8-4.9
	c-0.4-2.9-1.1-5.7-1.6-8.5c-1.3-7.7-2.8-15.4-3.9-23.1c-1-7.2-1.7-14.4-2.6-21.6c-1-8.3-2.8-16.5-4.8-24.7
	c-3.5-13.8-6.3-27.9-9.4-41.8c-1.2-5.4-2.9-10.6-4.1-16c-1.4-6.8-2.4-13.7-3.7-20.5c-1.4-7.4-3.1-14.7-4.6-22.1
	c-4.6-22.2-9.2-44.4-13.8-66.6c-0.7-3.4-1.5-6.8-2.3-10.1c-0.1-0.6-0.7-1.1-1-1.7c-0.2-0.6-0.3-1.2-0.3-1.8c0-0.5,0.2-1.1,0.1-1.6
	c-0.6-2.3,0.7-4.1,2.9-4.5c3.7-0.7,7.4-1.3,11-2.3c8.6-2.5,17.3-4.7,26.2-6.2c5-0.8,10-2.3,15-3.3c3.2-0.6,6.5-1,9.8-1.2
	c4.1-0.3,8-1.2,11.8-2.7c6-2.3,12.2-3.6,18.4-4.9c6-1.2,12-3,17.9-4.6c11.2-3.1,22.3-6.1,33.5-9.3c7.2-2,14.5-3.3,21.8-4.6
	c8.7-1.5,17.2-3.6,25.8-5.3c17.7-3.3,35.5-6.5,53.3-9.8c2-0.4,3.9-1,5.9-1.6c3.6-1.1,7.1-2.3,10.6-3.6c1.1-0.4,2.2-1.2,3.2-1.9
	c4.4-3.3,7.5-7.8,11.1-11.8c0.8-0.9,0.9-1.8,0.5-2.9c-2.3-7-4.7-13.9-7.4-20.7c-4.2-10.3-8-20.7-11.8-31.1c-0.9-2.4-1.2-5.1-1.7-7.6
	c-0.5-2.2,0.7-3.9,1.9-5.5c0.4-0.5,1.2-0.9,1.7-0.8c1.9,0.3,3.8,0.6,5.6,1.2c1.6,0.5,3.2,1.4,4.8,2c5.2,1.9,10.6,3.6,15.7,5.7
	c3.5,1.5,6.9,3.4,10.3,5.2c4,2.2,7.8,4.7,11.8,6.7c2.6,1.3,5.4,2,8.3,3.1c4.9-4.3,10.4-7.9,14.4-13.3c4.5-6.1,9.8-11.4,15.3-16.6
	c2.9-2.8,5.5-5.9,8.3-8.8c0.9-1,1.9-1.9,3-2.7c4.9-3.4,6.6-2,9.8,2.5c0.9,1.3,1.1,3,1.8,4.9c0.9-0.1,1.8-0.2,2.7-0.5
	c6.1-1.6,12.1-3.4,18.2-4.8c9.9-2.3,18.6-7.1,26.7-12.8c4.9-3.5,9.2-7.9,13.5-12.3c8.8-8.9,16.7-18.8,24.4-28.7
	c0.8-1.1,1.7-2.1,2.4-3.3c4.7-7.6,10.5-14.3,15.8-21.4c5.3-7,9.9-14.5,14.8-21.8c5.6-8.2,11.2-16.4,16.9-24.6c1.5-2.1,3-4.3,4.5-6.4
	c0.9-1.2,0.9-2.4,0.2-3.8c-1.2-2.3-1.1-2.4,1.3-3.6c0.6-0.3,1.1-0.8,1.5-1.3c1.4-1.7,2.5-3.7,4.1-5.3c1.8-1.9,3.8-3.5,5.8-5.2
	c0.5-0.4,1.6-0.5,2-0.2c1.9,1.3,1.6,4.9-0.2,6.2c-0.9,0.6-1.8,1.5-2.4,2.4c-1.2,1.9-2.3,4-3.4,6c0.4,1.5,1.3,2.4,2.6,3.2
	c12.3,6.7,23.5,15.1,34.5,23.9c3,2.4,6,4.9,9.1,7.2c9,6.8,16.9,14.7,24,23.4c2.8,3.4,5.6,6.9,8.6,10.2c4.5,5,9.2,9.9,13,15.9
	c0.9-1.2,1.8-2.1,2.4-3.1c2.8-4.4,5.5-8.9,8.4-13.2c1.5-2.2,3.3-4.2,5-6.3c0.1-0.1,0.3-0.2,0.4-0.4c1.1-3.1,4.1-4.8,5.5-7.6
	c0.6-1.2,2.4-2.2,3.9-2.7c2-0.6,3.1,0.7,2.3,2.5c-1.2,2.7-2.4,5.5-4.2,7.8c-7.1,9.6-14.3,19.1-22,28.4c-1.6,1.9-2.9,3.8-5.3,4.6
	c-0.5,0.2-1.2,0.6-1.3,1c-0.7,2.8-3.5,4-5,6.1c-1.6,2.1-3.4,4.2-5.1,6.3c-11.3,12.9-23.5,25.1-35,37.8c-9.1,10-18.9,19.3-28.4,29
	c-3.8,3.9-7.7,7.9-11.4,11.9c-8.3,8.8-17.5,16.6-26.8,24.4c-5.5,4.6-11.5,8.7-17.5,12.9c-6.1,4.2-12.3,8.4-18.6,12.3
	c-3,1.9-6.4,3.1-9.6,4.6c-3.8,1.6-7.7,3-11.5,4.7c-3.1,1.4-6.3,2.3-9.7,2.5c-2.5,2.8-5.7,4.6-9.4,4.7c-7.7,0.2-15.4,1.4-23,2.2
	c-4.6,0.5-9.3,0.5-13.9,0.8c-1.5,0.1-3,0.4-4.7,0.7c0.1,1,0.2,1.8,0.4,2.5c1.9,10.3,4,20.7,5.7,31c1.4,8.9,2.2,17.8,3.7,26.7
	c1.9,11.6,4.1,23.2,6.2,34.8c1.4,8,2.9,15.9,4.4,23.9c0.3,1.9,0.8,3.7,1.7,5.7c0.4-0.8,0.9-1.6,1.2-2.5c4-10.6,12.4-15.5,22.9-17.9
	c7.9-1.8,15.5-1.2,23,1.6c2.9,1.1,5.7,2.2,8.6,3.3c0.3,0.1,0.6,0.3,0.8,0.3c3.6-1.2,5.9,1.6,8.6,2.9c1.4,0.7,2.4,1.8,4.2,1.4
	c0.7-0.1,1.6,0.7,2.7,1.2c8.8-6.3,17.8-12.6,26.7-19c-0.2-3.2,0.4-3.7,3.5-2.4c-0.1-0.8-0.4-1.5-0.3-2.2c0.1-0.7,0.3-1.6,0.8-1.9
	c0.9-0.6,1.6,0,2.1,0.9c0.2,0.3,0.4,0.6,0.8,1.3c1-0.7,1.8-1.4,2.8-2c3.6-2.3,7.1-4.7,10.8-6.7c3.8-2.1,7.7-0.8,10.6,2.4
	c3.4,3.7,6.1,8,8.9,12.1c1.9,2.8,3.2,5.9,4.8,8.9c0.8,1.5,1.7,3,2.5,4.5c2.5,4.8,2.1,8.5-1.8,12.2c-2.6,2.6-5.5,4.8-8.3,7.2
	c-0.7,0.6-1.3,1.1-1.7,1.3c-0.1,1.5,0.2,2.9-0.4,3.5c-1.2,1.3-2.4-0.4-3.9-0.7c-9.1,6.9-18.3,13.9-27.6,20.9
	c1.1,3.2,1.9,6.2,3.1,9.1c4.5,11.7,7.3,24,13.6,35c2.3,4,4.5,8.1,6.9,12c4.6,7.6,9.2,15.2,13.9,22.7c1.8,2.9,3.7,5.7,5.7,8.4
	c6.6,8.9,13.1,17.9,18.8,27.5c0.1,0.2,0.2,0.6,0.5,0.7c4.5,3.7,6.6,9.2,10.3,13.6c3.6,4.4,6.9,9.1,10.2,13.7
	c3.1,4.2,6.3,8.4,9.2,12.7c3.5,5.1,6.6,10.4,10.1,15.5c3.4,4.9,6.9,9.8,10.5,14.6c0.7,0.9,2,1.5,3,2.2c1.2,0.8,2.4,4.3,1.8,5.6
	c-0.5,1.2-1.9,1.5-3.2,0.5c-1.7-1.3-3.2-2.8-4.7-4.3c-0.9-0.9-1.7-1.8-2.7-2.8c-0.7,0.4-1.2,0.8-1.7,1.1
	c-8.7,6.6-17.2,13.4-26.6,19.1c-1.1,0.7-2.1,1.4-3.2,1.9c-14.2,7.3-28.1,15.4-43,21.3c-1.4,0.6-2.8,1.3-4.2,2
	c-5.2,2.7-10.7,4.4-16.5,5.2c-2.5,0.3-4.9,1.2-7.3,1.9c-3.8,1-7.6,2.1-11.7,1.3c-1.5-0.3-3,0.2-4.2,0.4c-0.6,1.3-1.1,2.3-1.4,3.3
	c-0.2,0.7-0.3,1.5-0.2,2.2c0.4,2.3,1,4.5,1.5,6.8c0.2,0.8,0.3,1.5,0.3,2.3c0,1.1-0.5,1.9-1.6,2.1c-1.1,0.2-1.9-0.4-2.2-1.4
	c-0.6-2-1.2-4.1-1.6-6.2c-2.3-12.1-6.2-23.7-10-35.3c-0.8-2.6-1.3-5.2-1.9-7.9c-2.4-11.8-4.7-23.7-7-35.5c-0.4-2.3-1-4.5-1.2-6.8
	c-0.2-1.6-1.6-2.4-1.9-3.7c-0.3-1.2,0.5-2.6,0.2-3.9c-1.2-6.4-2.4-12.7-3.7-19c-0.3-1.7-0.8-3.4-1.4-5c-1.6-5-3.3-10.1-5.1-15.1
	c-2.6-7.3-4.7-14.7-8.4-21.6c-1.1-2-1.9-4.2-2.8-6.3c-0.2-0.4-0.3-0.9-0.2-1.4c0.2-2.3,0.1-2.6-1.8-3.5c-4.4-2.1-8.7-4.1-13.1-6.2
	c-3-1.5-6.1-2.9-9-4.7c-1.8-1.1-3.3-2.7-5.4-4.5c0.8,2.5,1.3,4.4,2,6.3c0.3,0.8,0.6,1.6,0.9,2.5c0.3,1,0,1.9-0.9,2.5
	c-3.1,2.1-6.4,3.5-10.1,4.2c-0.2,0-0.4,0.1-0.6,0c-2.4-1.6-4.8-0.3-7.2,0.1c-4.6,0.7-9.1,1.5-13.7,2.6c-5.8,1.3-11.7,2.7-17.4,4.4
	c-10,2.9-20.2,4.4-30.4,5.8c-4.2,0.6-8.4,1.2-12.7,1.9c2.5,5.7,1.3,10.4-3.5,14.2c2.4,2.1,4.6,4.2,6.9,6.3c3.2,2.8,4.3,6.4,3.7,10.5
	c-0.9,6-3.7,10.8-9,14.2c-6.3,4-12.3,8.3-18.6,12.3c-3.2,2-6.8,3.7-10.3,5.3c-5.8,2.5-11.8,4.8-17.7,7.1
	C618.4,748.8,617.9,749,617.5,749.3z M442,447.6c1.1-0.4,2.3-0.9,3.4-1.3c3.3-1,6.7-2,10-3c0-0.1-0.1-0.3-0.1-0.4
	c-7.2,1.7-14.4,3.5-21.6,5.2c0,0.1,0.1,0.2,0.1,0.4C436.6,448.2,439.4,447.9,442,447.6c-5,1.5-10,2.9-15.3,3.5
	c1.1-0.5,2.3-1.1,3.4-1.6c-0.1-0.2-0.1-0.3-0.2-0.5c-1.6,0.5-3.2,1.1-4.8,1.6c-0.5,2.2-2.4,1.8-3.9,2.2c0.5-0.4,1-0.7,1.6-1.1
	c0-0.1-0.1-0.2-0.1-0.3c-0.9,0.3-1.8,0.5-3.1,0.9c0.8,0.2,1.2,0.3,1.7,0.4c-1.2,0.4-2.3,0.8-3.5,1.1c-4.5,1.2-8.9,2.5-13.4,3.7
	c-6.1,1.6-12.1,3.5-18.2,4.7c-6.2,1.2-12,3.8-18.6,3.5c-2.3-0.1-4.7,1.5-7,2.3c0.6,7,0.5,13.7,2.1,20.2c9.2-2.2,18.4-4.2,27.4-6.4
	c12.5-3,24.9-6.3,37.6-8.3c21.2-3.4,42.1-8,63-12.6c16.9-3.7,33.7-7.8,50.5-11.4c11.9-2.6,23.7-5.2,35.4-8.6
	c5.4-1.6,10.9-2.6,16.3-3.8c0.6-0.1,1.2-0.3,2.2-0.6c-0.8-0.4-1.1-0.5-1.5-0.7c-3.6-1.9-4.6-3.8-3.9-7.7c0.2-1.1,0.6-2.2,1.1-3.2
	c1.9-3.6,4.5-6.7,7.5-9.5c0.6-0.6,1.2-1.2,2.2-2.2c-1.7,0.2-2.7,0.4-3.7,0.5c-14.8,2.1-29.3,6-44.2,7c-4,0.3-8.1,0.9-12,1.8
	c-12.2,2.6-24.3,5.3-36.4,8.2c-10,2.3-19.9,4.9-29.8,7.4c-3.3,0.8-6.6,1.8-9.9,2.7c8.4-0.3,16.2-3.2,24.4-4.5
	c-0.9,0.4-1.8,0.8-2.7,1c-8.5,2.2-16.9,4.6-25.5,6.6C454.5,445.3,448.3,446.4,442,447.6z M860.4,173.4c-1.5,2-2.9,3.8-4.2,5.7
	c-2,3-3.7,6.1-5.8,9c-4.8,6.8-9.7,13.5-14.5,20.2c-1.9,2.6-3.8,5.1-5.3,7.9c-3.4,6-7.4,11.5-11.6,16.9c-1.6,2.1-3.2,4.1-4.6,6.3
	c-5.8,8.7-12.2,16.9-19.2,24.6c-1.9,2.1-3.7,4.5-5.5,6.7c-2.7,3.3-5.4,6.6-8.1,9.8c-6.9,8.2-15.3,14.3-25,18.9
	c-1.2,0.6-2.4,1.2-3.6,1.8c-7.9,4.2-16.3,7-25,9c-3.7,0.9-7.4,1.5-11,2.3c-3.4,0.8-6.6,2.3-9.2,4.7c-2,1.9-3.2,4.3-2.4,7
	c0.8,2.8,3.1,4.3,6,4.9c1.4,0.3,2.9,0.4,4.3,0.5c2.2,0.2,4.4,0.3,6.6,0.6c6.7,0.8,13.5,1,20.2-0.5c2.5-0.5,5.1-0.9,7.7-1.2
	c0.7-0.1,1.8,0.2,2,0.7c0.3,0.6,0.1,1.8-0.3,2.3c-1.2,1.5-2.5,3-4,4.2c-7.5,6-15.1,12-22.7,18c-0.3,0.2-0.6,0.5-1,0.7
	c-8,5.1-15.1,11.4-22.3,17.5c-3.5,3-5.2,6.9-5.5,11.4c-0.2,2.8,1.1,4.7,3.8,4.8c3.5,0.2,7.2,0.2,10.7-0.3c5.1-0.8,9.7-3.1,14.3-5.3
	c9.5-4.6,19.5-8.5,27.8-15.3c0.7-0.6,1.7-1,2.6-1.2c0.5-0.1,1.3,0.3,1.7,0.7c0.3,0.3,0.2,1.2,0,1.6c-0.4,0.7-1,1.4-1.7,1.9
	c-4.2,3.1-8.4,6.2-12.7,9.1c-4.2,2.8-8.6,5.2-12.8,8c-4.2,2.9-6.9,7-8.1,11.9c-1,4,1,6.8,5.1,7c3.1,0.1,6.3,0.2,9.2-0.5
	c5.6-1.4,11.1-3.2,16.6-5.1c2.6-0.9,5-2.5,7.4-3.9c6.9-4.3,13.6-8.8,20.5-13.1c1.1-0.7,2.1-2,3.6-0.8c0.9,0.7,0.6,1.9-1.2,3.7
	c-2.9,2.9-5.9,5.8-9,8.6c-3.1,2.9-5.5,6.2-7.5,9.9c-0.8,1.4-1.5,2.9-1.3,4.7c2,0.9,4,1.5,6.2,1.2c6.4-0.8,12.6-2.2,18.2-5.3
	c3.1-1.7,6.1-3.3,9.1-5.1c6.9-4.1,14.2-7.4,20.6-12.4c10.5-8.3,21.1-16.6,31.5-25c6.6-5.3,13-11,18.7-17.3
	c5.3-5.8,10.4-11.6,15.7-17.4c8.6-9.4,17.3-18.7,25.9-28.1c7.9-8.6,15.6-17.4,24.2-25.3c2.8-2.5,5.2-5.4,7.2-8.6
	c1.7-2.6,3.9-4.8,5.8-7.2c1.1-1.4,2.3-2.8,3.4-4.2c-2.1-2.3-4.1-4.3-5.9-6.4c-8.8-10.5-18.2-20.5-28.2-29.9c-1-1-1.9-2.2-3-3.2
	c-2.9-2.8-5.8-5.7-8.9-8.3c-6.6-5.5-13.4-10.7-20.1-16.1c-2.3-1.9-4.2-4.3-6.5-6.2C873.6,180.6,867.3,176.8,860.4,173.4z
	 M555.9,811.6c0.7-0.9,1.3-1.5,1.8-2.2c5.7-7.5,11.5-15,17.2-22.6c3.2-4.3,7.2-7.3,12.7-8.5c6.3-1.4,12.6-1.7,19-1.6
	c6.4,0.1,12.7-0.6,19.1-1.2c3.4-0.3,6.6-1.5,9.4-3.5c2.3-1.6,2.8-3.5,1.3-5.7c-2.1-3.1-4.6-5.9-8.2-7.5c-4.1-1.8-8.2-3.5-12.2-5.3
	c-2.7-1.2-5.4-2.6-8.6-1.3c-0.5,0.2-1.7-0.2-2-0.6c-0.3-0.4-0.1-1.4,0.2-2.1c0.8-2.1,2.7-2.9,4.5-3.8c5.9-2.9,11.8-5.7,17.7-8.7
	c6.4-3.3,12.9-6.6,19.2-10.2c5-2.8,9.9-5.9,14.8-9.1c3.4-2.2,6-5.2,7.5-9c1-2.7-0.1-7-2.5-8.3c-2.8-1.6-5.9-2.7-9.1-2.5
	c-5.8,0.5-11.6,0.8-17.2,2.4c-3.9,1.1-7.9,2-11.8,2.9c-1.3,0.3-2.7,0.4-4,0.4c-1.3,0-2.2-0.8-2.6-2c-0.4-1.3,0.6-1.7,1.4-2.5
	c1.6-1.4,3.5-1.5,5.3-2.1c8.4-2.5,16.8-5,25.3-7.5c0.9-0.3,1.9-0.6,2.7-1c3.4-1.9,4.3-6.4,1.9-9.5c-0.4-0.5-1.1-0.9-1.7-1
	c-2.7-0.5-5.3-1-8-1.2c-10.8-0.8-21.4,0.5-31.6,4.4c-2.6,1-5.1,0.2-7.7,0.6c-0.4,0.1-1.3-0.6-1.4-1.1c-0.1-0.5,0.2-1.4,0.6-1.7
	c1.1-0.9,2.3-1.8,3.6-2.4c4.3-2.3,8.8-4.1,13.7-4.6c5.6-0.5,10.2-3.3,14.8-6c1.3-0.8,2.5-1.8,3.6-2.9c1.8-1.8,1.8-3.2,0.2-5.3
	c-0.4-0.5-0.9-1.1-1.2-1.6c-0.5-1.1-1.4-1.6-2.5-1.8c-3-0.5-6.1-1.2-9.1-1.6c-10.4-1.1-20.8-0.8-31.1,0.8c-3.9,0.6-7.8,1.5-11.6,2.3
	c-13,2.7-25.8,5.7-38,11c-5.7,2.5-11.5,4.6-17.2,7c-7.2,3-14.6,5.7-21.2,10c-12.9,8.3-25.9,16.5-37.9,26.1
	c-10.7,8.6-21.3,17.2-30.9,27.1c-0.6,0.7-1.2,1.4-2.3,2.6c1,0.7,1.8,1.2,2.5,1.8c7.2,6.5,14.4,13.2,21.7,19.6
	c11.4,10.2,24.8,17.3,38.2,24.4c13.9,7.3,28,14.3,42.1,21.4C549.4,808.7,552.7,810.1,555.9,811.6z M375.5,567
	c4.6-0.1,8.8-0.8,12.9-1.7c17.5-3.8,35.1-7.7,52.6-11.6c7.8-1.7,15.6-3.5,23.4-5.2c11.5-2.5,23-5,34.5-7.6
	c13.8-3.1,27.7-6.2,41.5-9.2c14.4-3.1,28.9-6.3,43.3-9.2c11.3-2.3,22.6-4.3,33.8-6.5c13.2-2.6,26.3-5.4,39.4-8
	c5.7-1.1,11.5-1.8,17-3.3c13.2-3.7,26.5-7,40.1-8.6c3.3-0.4,6.6-1,10-1.5c-1-6.4-2-12.7-2.9-19c-1.5-10.5-3-21-4.5-31.5
	c-0.7-5.2-1.4-10.3-2.1-15.5c-0.1-0.6-0.4-1.2-0.8-2.1c-2.2,5.4-3.8,10.5-4.8,15.9c-2.4,12.2-5.1,24.3-7.8,36.5
	c-0.8,3.5-1.7,6.9-2.9,10.3c-1.4,3.8-4.5,4.9-8.1,3.1c-0.7-0.4-1.4-0.8-2.1-1c-2.4-0.8-4.2-2.4-5.4-4.6c-2.4-4.2-4.9-8.3-6.9-12.7
	c-5.2-11.5-11.7-22.2-18.1-33c-0.7-1.2-1.7-2.4-2.7-3.4c-0.5-0.6-1.4-1.1-2.2-1.1c-7.2-0.7-14.4-1.1-21.6-1.8
	c-5.3-0.5-10.4,0-15.5,1.2c-6.3,1.5-12.6,2.7-19,4.1c-6.3,1.4-12.7,2.6-18.9,4.1c-7.6,1.9-15.1,4.1-22.7,5.9
	c-18.2,4.2-36.5,8.2-54.8,12.2c-16,3.5-32,7.2-48.1,10.4c-19.9,3.8-39.9,6.9-59.5,12.2c-8.2,2.2-16.5,3.9-24.8,5.9
	c-1.7,0.4-3.6,0.7-5.2,2C366.2,517.4,372.1,541.9,375.5,567z M400.4,576c0.1,1.3,0.1,2,0.2,2.6c1.1,6.3,2,12.6,3.2,18.8
	c1.7,9.4,3.8,18.7,5.4,28.1c1.9,11.4,3.5,22.9,5.3,34.3c0.4,2.3,0.9,4.6,1.4,7.4c1.2-1.3,2-2.1,2.8-3c3.2-3.5,6.2-7.1,9.7-10.4
	c8.1-7.6,16.2-15.2,24.6-22.5c7-6.1,13.8-12.4,20-19.3c10.1-11.1,21.2-20.8,34.4-28c0.6-0.3,1.1-0.8,1.7-1.1
	c3.9-2.2,7.9-4.1,12.4-4.5c4.4-0.4,8.9-0.3,13.3,0.7c3.4,0.7,6.9,1.4,10,2.8c11.4,5.3,22.4,11.3,33.2,17.8c2.8,1.7,5.4,3.7,8.3,5.4
	c11.6,6.9,23.3,13.7,34.9,20.6c1.7,1,3.3,1.9,5.1,3c25.1-20.6,50.2-41.1,75.4-61.7c-3.3-16.5-6.4-32.9-10-49.4
	c-1.1,0.2-1.8,0.1-2.3,0.4c-6.9,3.1-14.3,4.7-21.6,6.4c-11.1,2.5-22.3,4.6-33.5,6.7c-6.5,1.2-13.2,1.9-19.7,3.2
	c-19.5,4.1-38.8,8.7-58.3,12.5c-16.2,3.2-32.3,6.8-48.4,10.3c-14.1,3.1-28.3,6.1-42.5,8.8c-9,1.7-18.1,3-27.1,4.4
	c-9.2,1.4-18.5,2.7-27.8,4.1C407,574.9,403.8,575.4,400.4,576z M662.7,657.1c-0.8-0.8-1.1-1.1-1.5-1.3c-3.6-2.3-7.2-4.5-10.7-6.9
	c-6.2-4.1-12.3-8.4-18.6-12.3c-9.7-6.1-19.7-11.9-29.5-17.8c-8.9-5.4-17.7-11-26.7-16.3c-8.2-4.8-16.6-9.4-25.1-13.9
	c-4.2-2.3-8.6-4.4-13.6-4.6c-2.2-0.1-4.4-0.3-6.7-0.2c-14.3,0.1-26.8,5-37.2,14.9c-5,4.8-9.8,9.9-14.9,14.6
	c-7.4,6.9-15.1,13.5-21.8,21.2c-0.9,1-1.9,2-2.9,2.9c-7.1,6.3-14.3,12.7-21.5,19c-1.5,1.3-3.1,2.6-4.5,4.1c-2.7,2.7-5.3,5.4-7.9,8.1
	c-0.9,1-1.8,2.1-3,3.6c1.8,8.6,3.7,17.9,5.5,27.2c0.3,1.5,1.2,1.8,2.5,1.7c2.8-0.2,5.6-0.1,8.4-0.5c8.9-1.2,17.8-2.5,26.6-3.9
	c8.5-1.3,16.8-3.4,25.5-3.9c1.7-0.1,3.5-0.6,4.9-1.5c17.1-11.1,35.6-19.4,54.3-27.1c6.7-2.8,13.5-5.2,20.4-7.3
	c14.7-4.4,29.7-7.6,45-9.2c10.8-1.1,21.4-0.7,31.9,1.9c1.1,0.3,2.3,0.5,3.3,1c3.1,1.4,5.9,3.1,5.5,7.2c0,0.3,0.2,0.7,0.4,1.2
	C654.8,658.2,658.5,657.7,662.7,657.1z M904.6,698.4c-1-1.5-1.6-2.8-2.4-3.8c-4.9-6.7-9.9-13.3-14.8-20
	c-8.2-11.2-16.4-22.4-22.9-34.8c-1.7-3.2-3.8-6-5.7-9.1c-3.5-5.7-6.8-11.4-8.9-17.8c-2.7-8.6-5.6-17.2-8.5-25.8
	c-0.3-1-0.8-1.9-1.2-2.9c-0.6,0.4-1,0.5-1.3,0.7c-8.8,6.3-17.5,12.7-26.3,19c-1.6,1.1-3.2,2.2-4.7,3.3c-1.1,0.8-2.2,1.6-3.1,2.5
	c-2.4,2.2-2.7,2.2-4.8-0.1c-3.6,1.3-4.3,1.3-7,0.9c-5.4-0.8-9.1-4-12-8.3c-3.9-5.8-6.5-12.1-7.5-18.9c-0.2-1.6-1-2.8-2.1-4
	c-2.1-2.5-5.3-3.1-8-4.6c-1.6-0.9-3.1-0.7-4.7,0.2c-3.1,1.7-5.2,4.3-6.6,7.4c-2.2,4.9-3.1,10.1-2.7,15.5c0.4,5.7,0.7,11.4,1.1,17
	c0.4,5.4,1,10.8,1.7,16.1c0.2,1.3,0.8,2.6,1.3,3.8c1.3,3.4,3.7,6.1,6.2,8.6c3.3,3.3,6.6,6.5,10.8,8.6c3.8,1.9,7.6,3.9,11.4,5.6
	c4.7,2.1,7.8,5.6,10.4,10c3.4,5.8,6.3,11.5,7.7,18.2c1.7,8.1,4.6,15.9,6.9,23.9c1.9,6.6,4.2,13,5.2,19.9c0.3,2.3,1.1,4.6,1.8,7.3
	c2.4-0.3,4.4-0.6,6.5-1c2.6-0.5,5.3-1.2,7.9-1.7c2.4-0.4,4.8-0.5,7.2-0.9c11.9-2.3,22.6-7.8,33.2-13.4c8.6-4.5,16.9-9.2,25.5-13.8
	C898,704.1,901,701.1,904.6,698.4z M595.3,429.2c0.9,0.3,1.7,0.8,2.5,0.9c7.8,0.9,15.5,1.8,23.4,0.3c8.4-1.6,16.7-2.9,25.3-2.7
	c3.2,0.1,6.3,0.2,9.3,1.5c1.2,0.5,2,1,2.5,2.1c1.2,2.5,2.4,5.1,3.6,7.6c1.2,2.5,2.3,5.1,3.8,7.4c4.1,6.1,8.5,11.9,12.7,18
	c3.2,4.6,6.1,9.3,9.3,14c1.9,2.9,4,5.6,5.9,8.4c0.2-0.1,0.4-0.1,0.6-0.2c0.7-2.8,1.3-5.5,2.1-8.3c2.4-8.9,4.2-17.8,5.8-26.9
	c1.5-8.2,3.5-16.4,5.4-24.6c0.2-0.7,0.6-1.4,1-2.1c1.7-3.1,4.6-4.4,7.7-5c4.3-0.9,8.7-1.8,13.1-2.3c9.2-1.1,18.4-1.9,27.6-3
	c1.9-0.2,4-0.4,5.4-1.5c-0.5-2-1.1-3.6-1.2-5.3c-0.2-3.6-3.6-5.7-6.8-4c-4.2,2.3-8.7,3.7-13.3,4.6c-3.4,0.7-6.8,1.3-10.3,1.7
	c-1.6,0.2-3.3,0.2-4.9-0.1c-4.4-0.7-8-4.7-8.3-9.2c-0.2-3.6,0.5-6.9,2.9-9.8c0.5-0.6,0.9-1.2,1.6-2.2c-4.4,1-8.3,1.8-12.2,2.8
	c-3.7,0.9-7.4,1.1-11.2,0.2c-2-0.5-3.6-1.5-4.5-3.4c-1.4-2.7-1.9-5.6-1.1-8.7c1.4-5.3,4.2-9.7,8.2-13.4c3.6-3.2,7.2-6.4,10.9-9.6
	c1.1-1,1.6-1.9,1.5-3.5c-0.4-3.6-0.5-7.1-0.8-10.7c-0.3-2.9-0.6-5.7-1-8.8c-2.3-0.4-4.3-0.8-6.3-1.3c-0.6-0.1-1.3-0.5-1.6-1
	c-2.1-4-3.7-8.1-2.6-12.7c0.4-1.7,1.2-3.2,2.7-4.3c1.7-1.1,3.2-2.4,5.1-3.7c-0.7-1.3-0.3-3-1.7-4.5c-2.3,2.1-4.5,4.1-6.6,6.2
	c-2,2-3.7,4.2-5.7,6.1c-4.7,4.6-9.7,8.9-14.2,13.6c-5.5,5.8-10.7,11.9-16,17.9c-0.8,0.9-1.5,0.8-2.5,0.1c-2.4-1.6-4.9-3.3-7.5-4.6
	c-3.3-1.7-6.8-3.2-10.2-4.8c-10.8-5.3-21.8-10.4-33.3-14.1c-0.8-0.3-1.6-0.4-2.9-0.6c0.7,1.8,1.1,3.2,1.6,4.5
	c1.7,4.2,3.7,8.3,5.3,12.5c3.7,10.2,7.1,20.4,10.8,30.6c1.1,3,2.2,6,3.6,8.8c1.4,2.9,1.5,3.4-0.5,6c-5.3,7.3-11.7,13.6-17.8,20.2
	c-1.6,1.8-3.1,3.7-4.7,5.5c-0.9,1.1-1.9,2.2-2.8,3.3C600.7,421,597,424,595.3,429.2z M376.4,573.1c0.3,1.7,0.5,2.9,0.7,4.1
	c2.1,10.5,4.3,21,6.3,31.5c1.7,8.7,3.3,17.4,5,26.2c2.1,11.7,4.1,23.4,6.4,35c2.4,12.3,5.4,24.5,7.1,37c0.6,4.2,1.7,8.3,3.3,12.3
	c0.9-0.1,1.7-0.1,2.4-0.2c7.3-0.9,14.5-2,21.8-2.8c11.7-1.3,23.3-3.3,34.5-7c0.9-0.3,1.8-0.6,2.6-1.2c4.7-3.3,9.4-6.7,14.1-10.1
	c0.6-0.4,1.1-0.9,1.7-1.4c-1.1-0.4-2.2-0.4-3.1-0.2c-8.2,1.4-16.4,2.6-24.5,4.2c-10.8,2.1-21.8,3.2-32.8,3.7c-2.8,0.1-3.1-0.1-4-2.6
	c-0.3-0.7-0.5-1.5-0.5-2.2c-0.2-5.1-1.4-10.1-2.3-15.1c-3.6-20.3-7.1-40.7-10.6-61c-1-5.9-1.6-11.9-2.7-17.7c-1.9-9.9-4-19.7-6-29.5
	c-0.7-3.4-0.3-4.2,3-5c5.7-1.3,11.5-2.4,17.3-3.4c5.7-0.9,11.5-1.5,17.2-2.4c8.9-1.5,17.9-3.2,26.8-4.7c8.6-1.5,17.2-2.7,25.7-4.3
	c8.6-1.7,17.2-3.8,25.8-5.5c19.9-4.1,39.9-8,59.8-12.3c11.4-2.5,22.8-5.1,34.4-6.5c13-1.6,25.6-4.7,38.3-7.9
	c9.4-2.4,18.8-4.2,28.3-5.9c6.2-1.1,12.6-1.8,18.5-4.4c2.4-1.1,4.6,0.3,5.1,3c0.7,4,1.3,8,2.2,12c1.7,8.1,3.8,16.2,5.3,24.3
	c2.2,11.9,3.8,23.8,6,35.7c2.4,12.6,5.2,25.1,7.8,37.7c0.1,0.6,0.5,1.2,0.8,2c4.7-8.2,9.2-16.1,13.9-24.4c-0.4-0.3-0.8-0.6-1.3-0.9
	c-3-2.3-4.6-5.4-5.5-8.9c-1.1-4.2-1.9-8.5-1.6-12.9c0.7-9.2,1.7-18.4,9.9-24.6c1.1-0.9,1.5-2.2,1.2-3.6c-0.5-3.2-0.8-6.5-1.4-9.7
	c-2.3-13-4.7-26-7.1-39c-0.3-1.7-0.7-3.4-1-5.1c-0.8,0.1-1.4,0.2-1.9,0.3c-2.8,0.7-5.6,1.4-8.4,2c-6.4,1.3-12.9,2.4-19.3,3.7
	c-19.8,3.8-39.6,7.7-59.4,11.6c-9.1,1.8-18.1,3.9-27.2,5.7c-15.1,3-30.4,5.6-45.5,8.8c-21.1,4.4-42.1,9.2-63.1,13.8
	c-18.8,4.1-37.5,8.4-56.3,12.4c-18.2,3.9-36.7,6.5-54.6,11.9C385.4,570.4,381.1,571.7,376.4,573.1z M815.4,742.3
	c0.8,3.7,1.7,7.3,2.4,11c1.4,6.9,2.7,13.8,4,20.7c0.5,2.4,1.3,3.1,3.7,3.1c0.6,0,1.2-0.1,1.7-0.1c11.1-1.5,21.6-4.8,31.7-9.7
	c2.3-1.1,4.7-2.2,7.1-3.2c8.3-3.4,16.7-6.7,24.9-10.2c9.3-4,18.2-8.5,25.3-15.9c1.5-1.6,3.4-2.9,5.1-4.3c0.9-0.7,1.9-1.2,2.9-0.3
	c1.1,0.9,0.8,2.1,0.1,3.1c-0.4,0.6-0.9,1.3-1.4,1.8c-1.8,1.7-3.5,3.7-5.6,5.1c-7.9,5.5-15.8,11.1-24.6,15.2
	c-5.4,2.5-10.8,5.2-16.2,7.8c-7.1,3.3-14.1,6.7-21.9,8.2c-4,0.8-7.9,1.8-11.6,3.5c-2,0.9-4.2,1.3-6.3,2c-2.8,1-5.8,1.1-8.4,2.7
	c-1,0.7-2.1,0.3-2.6-0.9c-0.5-1.2-1.3-1.2-2.4-0.8c1.7,12.1,5.9,23.4,9.2,35c1.1-0.1,2,0,2.8-0.2c5.4-1.6,11-2.5,16.7-2.8
	c1.3-0.1,2.7-0.2,4-0.6c7.6-2.5,15.4-4.5,22.7-7.8c9.5-4.2,18.7-9.2,27.8-14.2c14.6-8.1,29.5-15.8,42.1-26.9c0.6-0.5,1.1-1,1.6-1.4
	c-0.1-0.4-0.2-0.6-0.3-0.7c-3.7-4.8-8-9.2-10.7-14.8c-0.2-0.4-0.7-0.6-1.1-0.9c-0.9-0.6-2.1-1-2.8-1.9c-2.3-2.7-4.5-5.5-6.6-8.4
	c-2.8-3.8-5.2-7.9-8.2-11.6c-2.9-3.6-5.4-7.5-7.6-11.6c-1-1.9-2.1-3.7-3.2-5.5c-0.7-1.1-1.5-2.2-2.4-3.5c-1.3,1.1-2.5,2-3.5,3
	c-1.2,1.2-2.4,1.9-3.9,0.8c-5.7,4-11.2,7.9-16.8,11.7c-2.3,1.6-4.7,3.1-7.2,4.3c-6.9,3.4-14,6.5-20.9,9.8c-4.7,2.2-9.6,3.4-14.8,3.7
	c-2.3,0.1-4.7,0.1-6.9,0.6c-6,1.4-12,3-17.9,4.6C815.8,741.9,815.7,742,815.4,742.3z M553.2,815.4c-3.3-1.3-6.2-2.4-9.1-3.4
	c-11.8-4.1-23.1-9.4-33.9-15.6c-12.4-7.2-24.9-14.5-35.9-23.9c-0.4-0.4-0.9-0.7-1.4-1c-11.8-8.1-23.4-16.4-34.1-26
	c-0.5-0.5-1.2-0.9-1.9-1.4c-9.1,8.2-17.7,16.5-25.1,26c0.4,0.5,0.5,0.7,0.7,0.9c10.7,10.1,21.6,19.9,34.2,27.6
	c3.5,2.2,6.8,4.7,10.3,7c4.9,3.2,9.9,6.4,14.9,9.5c4.3,2.7,8.7,5.3,13.1,8c7.4,4.5,14.9,8.9,23.1,11.9c6.7,2.5,13.3,5.3,19.9,8
	c1.4,0.6,2.8,1.2,4,1.7c1.7-1.8,3.2-3.3,4.7-4.9c0.6-0.6,1-1.4,1.4-2.2c2.8-4.4,5.6-8.8,8.5-13.1
	C548.6,821.5,550.8,818.6,553.2,815.4z M706,648.9c1-1.8,1.7-3.4,2.6-4.9c1.4-2.4,2.9-4.8,4.5-7.1c1.7-2.4,2.7-4.8,1-7.6
	c-0.4-0.6-0.4-1.5-0.5-2.2c-0.7-3.8-1.5-7.6-2.2-11.4c-2.6-13.9-5.2-27.9-7.8-41.8c-0.2-1-0.5-2-0.9-3.4c-3.5,2.8-6.6,5.3-9.7,7.8
	c-6.1,5-12.2,10-18.3,15.1c-5.4,4.5-10.8,9-16.3,13.5c-8.6,7-17.3,13.9-26,20.9c-1.1,0.9-2,2-3,3c0.6,0.5,0.8,0.7,1.1,0.9
	c9.3,6.1,18.6,12.2,27.8,18.3c2.3,1.5,4.7,2.8,6.7,4.6c1.7,1.5,3.2,1.6,5.2,1c8.7-2.5,17.6-4.3,26.7-5.2
	C700,650,703,649.4,706,648.9z M775.9,576.7c0.4,1.6,0.6,3.1,1.1,4.5c1.4,4,2.9,7.9,4.5,11.9c1.2,3,2.5,6.1,4,8.9
	c1.3,2.4,3.6,3.6,6.3,4.3c1.4,0.4,2.5,0.1,3.7-0.8c3.4-2.8,6.8-5.7,10.4-8.2c10.1-7.2,20.3-14,30.3-21.3c9.8-7.2,19.4-14.6,29.1-22
	c0.8-0.6,1.5-1.4,2.2-2.1c-0.4-0.6-0.6-0.9-0.9-1.1c-3.7-3-6.4-6.7-8.6-10.8c-0.5-0.9-1.3-1.7-2-2.4c-2.3-2.2-4.7-4.3-6.9-6.6
	c-1.3-1.4-2.2-3-3.4-4.7c-2.2,1.7-4.3,3.4-6.5,5c-8,5.9-16,11.9-24,17.6c-4.9,3.5-10,6.6-14.8,10.1
	C792.2,564.7,784.3,570.6,775.9,576.7z M643,670.3c0.1,0.2,0.1,0.4,0.2,0.6c1.3,0.1,2.6,0.1,3.9,0.2c4.9,0.2,9.8,0.5,14.4,2.5
	c0.6,0.3,1.5,0.2,2.2,0.1c4.7-0.9,9.4-2,14.2-2.9c12.3-2.4,24.6-4.8,36.9-7.2c9.7-1.9,19.5-3.9,29.2-5.9c1.4-0.3,2.7-0.8,4.4-1.3
	c-1-4.8-1.9-9.3-2.9-13.7c-3.8,0.5-7.4,0.8-10.8,1.4c-4.3,0.7-8.5,1.6-12.6,2.4c-0.7,4.3-1,4.5-5.2,4.9c-3.7,0.4-7.5,0.8-11.2,1.2
	c-7,0.9-14,1.5-20.9,2.8c-7.7,1.4-15.2,3.4-22.9,5c-3.2,0.7-6.5,1-9.7,1.5c-1.3,0.2-2.1,0.7-2.7,2.1c-0.6,1.4-1.9,2.6-3,3.7
	C645.4,668.7,644.1,669.4,643,670.3z M750.9,576.3c3.1-3.5,7-5.4,11.1-6.1c0.2-2.6,0.2-4.8,0.5-7c0.8-5.7,3.8-10.5,7.3-14.9
	c5.5-6.8,11.9-12.1,21.3-12.3c1,0,1.9-0.4,3.5-0.7c-3-1.3-5.3-2.5-7.7-3.4c-2.6-0.9-5.3-1.8-8.2-1.4c-3.4,0.5-6.8,1.2-10.2,1.7
	c-4.9,0.8-8.9,3.1-12.1,6.8c-0.5,0.6-1.1,1.1-1.7,1.6c-2.6,2.1-4.1,4.9-5.1,7.9c-1,2.9-1.6,6-2.6,8.9c-1.4,4.2-1.1,8.3-0.3,12.6
	C747.2,572.8,748.7,574.6,750.9,576.3z M748.6,579.4c-0.4-0.5-0.6-0.7-0.8-0.9c-5.1-4.5-6.8-10.1-5.9-16.7c0.2-1.3,0.2-2.6,0.3-4
	c-2.8,0.2-4.6,0.8-6.4,2.2c-3.2,2.5-5.7,5.5-6.8,9.5c-2.5,8.3-2.5,16.7,0,25.1c0.7,2.2,1.8,4.2,3.8,5.3c2,1.1,4.1,2.1,6.2,2.6
	c3.4,0.8,5-0.7,5.2-4.1C744.5,591.8,745.1,585.3,748.6,579.4z M873.3,548.3c3-1.8,6.2-3.5,9.1-5.4c2.8-1.9,3.4-4,2.3-7.3
	c-0.3-0.9-0.6-1.8-1.1-2.7c-1.9-3.2-3.9-6.4-5.9-9.6c-1.7-2.7-3.5-5.3-5.1-8c-1.9-3.2-3.5-3.8-6.9-2c-2.2,1.2-4.3,2.5-6.5,3.9
	c-1.7,1.1-3.3,2.3-5,3.5c0.5,0.9,0.8,1.6,1.2,2.2c1.8,3,3.6,5.9,5.3,8.9c1,1.6,2,3.3,3,4.9c0.7,1.1,1.5,2,2.1,3.1
	C867.6,543.2,870.1,546,873.3,548.3z M808.6,544.4c0-0.3-0.1-0.5-0.1-0.8c-4.7-2.2-9.4-4.3-14.8-3.6c-8.6,1-15.2,5.4-20.5,11.8
	c-3.6,4.3-5.7,9.4-6.6,14.9c-0.5,2.9,0.6,4.2,3.4,4.9c1.5,0.4,2.1-0.6,3-1.3c9.4-7.5,19-14.9,29.2-21.3
	C804.2,547.6,806.4,546,808.6,544.4z M733.7,638.2c5.2-1.5,10.3-3,15.4-4.4c-0.1-0.5-0.1-0.9-0.2-1.3c-2.6-7.4-4-15.1-4.2-23
	c0-1.1-0.3-2.2-0.4-3.2c-1.4,0.2-2.5,0.6-3.5,0.4c-1.7-0.2-2.4,0.6-3.1,1.9c-1.9,3.7-3.8,7.4-5.8,11c-2,3.6-4,7.2-6.1,11.1
	C728.3,633.3,730.8,635.6,733.7,638.2z M737.7,338.1c-6.5-1.4-12.5-2.3-19-2.5c0.4,5.1,0.8,9.9,1.2,15.1
	C726,346.4,731.6,342.4,737.7,338.1z M739.2,545.7c0.5,2.7,0.1,5.6,1.7,8C740.9,550.9,740.4,548.2,739.2,545.7z M754.1,658.9
	c0.9-0.5,1.4-0.7,1.9-1c-0.6-1.4-1.1-2.5-1.9-4.2C754.1,655.7,754.1,657.2,754.1,658.9z M409,773.8c0.7,1.4,0.7,1.4,2.2,1.8
	C410.4,774.2,410.4,774.2,409,773.8z M711.7,645.2c0.2,0.1,0.5,0.3,0.7,0.4c0.5-0.9,1-1.8,1.5-2.8c-0.2-0.1-0.4-0.2-0.6-0.3
	C712.8,643.4,712.3,644.3,711.7,645.2z M441.1,735.7c-0.1-0.1-0.2-0.2-0.3-0.3c-0.3,0.3-0.5,0.5-0.8,0.8c0.1,0.1,0.1,0.1,0.2,0.2
	C440.5,736.1,440.8,735.9,441.1,735.7z"/>
<g>
	<path class="st1" d="M283.3,199.6c-0.4-1.6-1.7-3.3-3.1-4.1c-1.6-0.8-3.5-1.3-5.2-0.7c-1.6,0.5-3.4,1.5-4.1,3.1
		c-3.1,7.3-6.9,14.2-11.4,20.7c-1,1.4-1.1,3.7-0.7,5.2c0.4,1.6,1.7,3.3,3.1,4.1c3.5,1.8,7.1,0.7,9.3-2.4c4.5-6.5,8.3-13.4,11.4-20.7
		C283.4,203.1,283.9,201.5,283.3,199.6z"/>
	<g>
		<path class="st1" d="M190.2,220.1c-0.4-0.5-0.8-1-1.2-1.5c-0.2-0.2-0.3-0.4-0.5-0.6c0,0,0,0,0,0c0,0,0,0,0,0
			c0-0.1-0.1-0.1-0.1-0.2c-0.5-0.6-0.1-0.3,0.1,0c-0.2-0.4-1-1.2-1.1-1.4c-0.4-0.5-0.8-1.1-1.2-1.6c-1.6-2.2-3.1-4.5-4.5-6.8
			c-2.8-4.6-5.3-9.3-7.4-14.2c-0.6-1.5-2.6-2.7-4.1-3.1c-1.6-0.4-3.8-0.2-5.2,0.7c-1.5,0.9-2.7,2.3-3.1,4.1
			c-0.4,1.9-0.1,3.5,0.7,5.2c4.6,10.5,10.8,20.2,18.1,29.1c2.3,2.8,7.3,2.5,9.6,0C192.9,226.8,192.6,223.1,190.2,220.1z"/>
		<path class="st2" d="M188.5,218c0,0,0-0.1-0.1-0.2C188.5,217.9,188.5,218,188.5,218C188.5,218,188.5,218,188.5,218z"/>
	</g>
	<path class="st1" d="M131,288.6c-5.3-0.8-10.5-2-15.6-3.7c-2.5-0.8-4.9-1.7-7.3-2.7c-0.2-0.1-0.5-0.2-0.7-0.3
		c-0.4-0.2-0.8-0.4-1.2-0.6c-0.2-0.1-0.4-0.2-0.6-0.4c0,0,0,0,0,0c0-0.1,0-0.1-0.1-0.2c-1.7-3.1-6.3-4.4-9.3-2.4
		c-3.2,2-4.3,6-2.4,9.3c1.6,2.9,4.3,4.9,7.2,6.2c3,1.4,6.1,2.6,9.3,3.7c5.6,1.9,11.4,3.3,17.2,4.2c1.9,0.3,3.5,0.3,5.2-0.7
		c1.4-0.8,2.8-2.4,3.1-4.1C136.5,293.8,134.8,289.2,131,288.6z"/>
	<path class="st1" d="M267.9,329.7c8.6-11.9,13.5-26.2,13.4-40.9c-0.1-5-0.7-10-2.5-14.6c-4.5-11.3-15.6-18.6-26.6-23.8
		c-13.8-6.6-29.1-11.2-44.3-9.8c-15.3,1.4-30.5,9.9-36.9,23.8c-2.5,5.5-3.6,11.4-4.7,17.4c-5.5,30.3,13,63.7,44.6,69.8
		c13.8,2.6,27.5-1.5,40.5-0.9c5.1,0.2,4.5-3.6,7-6.1c2.5-2.6,6.7-10.5,9.4-14.3C267.8,330,267.9,329.8,267.9,329.7z"/>
	<g>
		<g>
			<path class="st0" d="M24.5,544.4c-0.2-0.3,0.9-1.5,1.1-1.8c0.5-0.9,0.9-1.8,1.5-2.7c1.1-1.6,2.1-3.3,3.2-4.9
				c1.2-1.7,2.2-3.5,3.1-5.5c0.8-1.9,2-3.4,3.1-5.1c1.1-1.7,2.4-3.4,3.4-5.2c1.1-1.8,2-3.7,3-5.6c0.9-1.8,2.2-3.3,3.2-5
				c1-1.8,1.6-3.8,2.8-5.4c1.2-1.6,2.4-3.1,3.4-4.8c1.1-1.8,2.2-3.3,3.5-5c1.2-1.5,1.9-3.3,3.2-4.8c1.3-1.6,2.5-3.2,3.8-4.8
				c2.6-3.4,5.4-6.7,8.2-9.9c2.8-3.2,5.3-6.6,8.2-9.7c1.4-1.5,2.9-2.9,4.1-4.6c1.3-1.7,2.6-3.4,4-5c1.5-1.5,3-3,4.5-4.5
				c1.4-1.4,2.8-2.9,4.4-4.1c1.6-1.3,3.2-2.6,4.9-3.7c1.5-1.1,2.7-2.5,4.1-3.8c1.5-1.4,3.3-2.6,4.8-4c1.5-1.4,3-2.9,4.4-4.5
				c0.6-0.6,1.1-1.3,1.6-1.9c0.6-0.9,1.4-1.3,2.2-2c1.4-1.2,2.5-2.9,3.8-4.2c1.5-1.5,2.9-3.1,4.7-4.4c1.5-1.1,2.9-2.4,4.2-3.7
				c1.4-1.4,2.9-2.6,4.1-4.1c1.4-1.6,2.9-2.8,4.5-4.1c1.7-1.4,3.4-2.9,5.2-4.1c1.6-1.1,3.2-2.1,4.7-3.3c1.6-1.3,3.4-2.4,5-3.6
				c1.6-1.2,3.2-2.5,4.8-3.7c3.4-2.4,7.1-4.4,10.5-6.8c1.7-1.2,3.4-2.4,5.3-3.4c1.7-0.8,3.3-1.5,4.8-2.7c1.5-1.1,2.9-2.3,4.4-3.4
				c1.7-1.1,3.6-1.8,5.4-2.5c1.8-0.7,3.5-1.7,5.2-2.5c0.8-0.4,0.4-1.7-0.4-1.6c-0.1,0-0.2,0-0.3,0c-1.1,0.1-1.1,1.9,0,1.8
				c0.1,0,0.2,0,0.3,0c-0.1-0.5-0.3-1.1-0.4-1.6c-1.9,0.9-3.7,1.9-5.6,2.7c-1.8,0.7-3.6,1.4-5.2,2.5c-1.6,1.1-3,2.4-4.6,3.5
				c-1.6,1.2-3.4,1.8-5.1,2.8c-1.9,1-3.5,2.3-5.3,3.4c-1.7,1.2-3.5,2.2-5.3,3.4c-1.8,1.2-3.7,2.2-5.4,3.5c-1.7,1.3-3.3,2.6-5,3.8
				c-1.6,1.1-3.2,2.2-4.7,3.4c-1.7,1.3-3.6,2.4-5.3,3.7c-1.7,1.2-3.3,2.6-4.9,3.9c-1.6,1.3-3.1,2.6-4.4,4.1c-2.6,3.1-5.9,5.6-9,8.1
				c-1.6,1.3-3,2.8-4.4,4.3c-1.4,1.5-2.5,3-4.1,4.2c-0.7,0.5-1.1,1-1.6,1.7c-0.7,0.9-1.4,1.7-2.2,2.6c-1.5,1.5-3,3-4.5,4.4
				c-1.6,1.4-3.3,2.5-4.8,4c-0.6,0.6-1.2,1.3-1.9,1.9c-0.8,0.7-1.7,1.2-2.6,1.8c-3.3,2.5-6.2,5.3-9.1,8.2c-1.6,1.5-3.2,3.1-4.6,4.8
				c-1.4,1.6-2.6,3.4-4,5c-1.4,1.6-3,3.1-4.4,4.7c-1.4,1.6-2.7,3.3-4.1,4.9c-2.8,3.4-5.7,6.5-8.4,10c-1.3,1.6-2.5,3.3-3.8,4.9
				c-1.2,1.6-2.6,3.1-3.8,4.8c-0.6,0.8-0.9,1.7-1.5,2.5c-0.6,0.9-1.3,1.6-1.9,2.5c-1.2,1.5-2.1,3.3-3.2,5c-1.1,1.8-2.6,3.2-3.5,5.1
				c-0.9,1.9-1.8,3.7-3,5.4c-2.4,3.4-3.9,7.3-6.1,10.8c-1.1,1.7-2.3,3.5-3.5,5.1c-1.3,1.8-1.9,3.9-3,5.8c-1,1.8-2.3,3.3-3.3,5
				c-1,1.7-2.1,3.3-3,5.1c-0.7,1.4-2,2.1-1.2,3.8C23.5,546.4,25,545.5,24.5,544.4L24.5,544.4z"/>
		</g>
	</g>
	<g>
		<g>
			<path class="st0" d="M37.4,542.5c-0.2-0.1-0.4-0.2-0.6-0.3c-0.2-0.1-0.4-0.2-0.6-0.2c-0.2,0-0.4,0.1-0.6,0.2
				c-0.1,0.1-0.3,0.2-0.4,0.3c-0.1,0.1-0.2,0.3-0.3,0.5c-0.2,0.3-0.3,0.6-0.4,0.9c-0.1,0.3-0.2,0.6-0.3,0.9c0-0.1,0.1-0.1,0.1-0.2
				c0,0,0,0.1-0.1,0.1c0.5,0.1,1.1,0.3,1.6,0.4c0-0.1,0-0.2,0-0.3c0-0.2-0.1-0.5-0.3-0.6c-0.2-0.2-0.4-0.3-0.6-0.3
				c-0.2,0-0.5,0.1-0.6,0.3c-0.2,0.2-0.2,0.4-0.3,0.6c0,0.1,0,0.2,0,0.3c0,0.1,0,0.2,0,0.2c0,0.1,0.1,0.2,0.2,0.3
				c0.1,0.1,0.3,0.3,0.5,0.3c0.2,0,0.3,0,0.5,0c0.2,0,0.4-0.2,0.5-0.4c0.2-0.5,0.4-1,0.6-1.6c0,0.1-0.1,0.1-0.1,0.2
				c0.1-0.2,0.2-0.4,0.3-0.6c0,0.1-0.1,0.1-0.1,0.2c0.1-0.1,0.1-0.2,0.2-0.2c-0.1,0-0.1,0.1-0.2,0.1c0,0,0.1,0,0.1-0.1
				c-0.1,0-0.1,0.1-0.2,0.1c0,0,0,0,0.1,0c-0.1,0-0.2,0-0.2,0c0,0,0.1,0,0.1,0c-0.1,0-0.2,0-0.2,0c0,0,0.1,0,0.1,0
				c-0.1,0-0.1-0.1-0.2-0.1c0.2,0.1,0.4,0.2,0.6,0.3c0.2,0.1,0.4,0.2,0.7,0.1c0.2-0.1,0.4-0.2,0.5-0.4c0.1-0.2,0.2-0.5,0.1-0.7
				C37.7,542.8,37.6,542.6,37.4,542.5L37.4,542.5z"/>
		</g>
	</g>
	<g>
		<g>
			<path class="st0" d="M141.8,605.3c-0.1-0.1-0.2-0.3-0.3-0.4c0,0.3,0,0.6,0,0.9c0.4-0.9,1.1-1.6,1.5-2.5c0.5-1,0.8-2.1,1.2-3.1
				c0.9-2.2,2-4.3,3-6.4c1-2.1,1.9-4.2,2.9-6.2c1-1.9,2-3.9,2.7-6c0.7-2.1,1.8-4,2.8-6c1-2.1,2.1-4.1,3.4-5.9
				c2.5-3.6,4-7.7,6.5-11.4c2.5-3.7,4.8-7.4,7-11.3c2.3-4.1,4-8.5,6.1-12.6c2.2-4.1,4.5-8,6.3-12.3c0.9-2.2,2.1-4.1,3.3-6.1
				c1.2-2,2.2-4.1,3.6-6c2.6-3.5,5.3-6.9,7.4-10.7c0.6-1,1.1-2,1.7-3c0.6-0.9,1.4-1.5,1.9-2.4c0.6-0.9,0.8-1.9,1.5-2.7
				c0.7-0.9,1.6-1.7,2.4-2.6c1.4-1.5,2.7-3,3.8-4.8c1.1-1.7,2.5-3.1,3.6-4.8c1.2-1.8,2.3-3.8,3.7-5.5c1.3-1.6,2.3-3.3,3.6-4.9
				c1.3-1.8,2.6-3.6,3.8-5.5c0.6-0.9,1.2-1.8,1.9-2.5c0.7-0.7,1.5-1.4,2.1-2.2c1.4-1.9,2.6-3.9,4.1-5.7c1.3-1.6,3-2.8,4.4-4.3
				c1.4-1.5,2.7-3,4.7-3.7c1.8-0.7,3.8-1,5.7-1.5c2.2-0.6,4.3-1.4,6.4-2.1c2.3-0.7,4.6-1.2,6.9-1.7c4.6-1.1,9.1-2.6,13.7-3.9
				c2.3-0.6,4.5-1.3,6.8-2c0.9-0.3,1.8-0.6,2.7-1c1-0.4,2.1-0.5,3.2-0.9c0.9-0.3,1.7-0.9,2.5-1.4c0.8-0.4,1.6-0.9,2.3-1.5
				c0.6-0.6,0.9-1.3,1.2-2.1c0.4-1,0.9-1.9,1.1-2.9c0.4-1.7,0.4-3.7-0.3-5.3c-0.3-0.8-0.9-1.4-1.4-2c-0.7-0.7-1.3-1.6-2-2.2
				c-0.8-0.7-1.7-0.9-2.5-1.4c-0.7-0.4-1.3-1.1-2.2-1.2c-1.1-0.2-1.6,1.5-0.5,1.7c0.8,0.2,1.5,1,2.3,1.3c1.1,0.5,1.9,1.1,2.7,2.1
				c0.6,0.7,1.4,1.3,1.8,2.1c0.5,0.9,0.6,2,0.6,3c0,1.1-0.3,2.1-0.7,3.1c-0.4,0.9-0.6,2-1.3,2.7c-0.7,0.7-1.8,1.1-2.6,1.7
				c-1,0.6-1.9,0.9-3.1,1.2c-2.1,0.5-4.1,1.4-6.1,2.1c-2.2,0.7-4.4,1.3-6.6,1.9c-4.5,1.2-9,2.8-13.5,3.7c-4.4,0.9-8.5,2.7-12.8,3.7
				c-1.8,0.4-3.6,0.7-5.3,1.5c-1.8,0.8-3.1,2.1-4.4,3.6c-1.3,1.5-3,2.7-4.3,4.2c-1.5,1.6-2.7,3.4-3.9,5.2c-0.6,0.9-1.2,1.8-2,2.5
				c-0.7,0.7-1.4,1.3-2,2.1c-1.3,1.8-2.3,3.7-3.7,5.5c-0.6,0.8-1.3,1.6-1.9,2.5c-0.6,0.9-1.1,1.9-1.9,2.8c-1.3,1.5-2.5,3.2-3.6,4.8
				c-0.6,0.8-1,1.8-1.6,2.6c-0.6,0.8-1.4,1.5-1.9,2.3c-1.2,1.7-2.2,3.5-3.6,5.1c-1.3,1.5-3.1,2.9-4,4.7c-0.5,0.9-0.8,1.8-1.5,2.6
				c-0.7,0.8-1.3,1.5-1.8,2.4c-1.2,2-2.2,4-3.5,5.9c-1.2,1.8-2.5,3.6-3.9,5.3c-2.7,3.4-4.7,7.4-7,11.1c-1.2,1.9-1.9,4.2-2.8,6.2
				c-1,2-2.1,4-3.2,6c-2.3,4.1-4.1,8.3-6.1,12.5c-1,2.1-2.1,4-3.3,6c-1.1,1.9-2.1,3.8-3.3,5.7c-1.2,1.8-2.5,3.5-3.6,5.4
				c-1.1,1.9-1.9,3.9-2.9,5.8c-1.1,1.9-2.4,3.6-3.5,5.4c-1.1,1.9-1.9,4-3.1,5.9c-1.1,1.9-1.6,3.9-2.4,5.9c-0.9,2.1-2.1,4-3,6.1
				c-0.9,2-1.8,4.1-2.8,6.1c-0.9,2-2,4-2.8,6.1c-0.4,1-0.7,1.8-1.3,2.7c-0.6,0.8-0.9,1.3-0.3,2.2
				C140.8,607.1,142.4,606.2,141.8,605.3L141.8,605.3z"/>
		</g>
	</g>
	<g>
		<g>
			<path class="st0" d="M226.5,428.7c-0.2,0-0.4,0-0.5,0c0.2,0.4,0.4,0.9,0.5,1.3c0.4-0.8,1.5-1.2,2.1-1.7c1.2-0.9,2.1-2.1,3.2-3.1
				c1.1-0.9,2.3-1.5,3.4-2.3c1.1-0.7,2.1-1.7,3.3-2.4c1.1-0.6,2.2-1,3.3-1.6c1.2-0.6,2.2-1.4,3.4-2c2.6-1.3,5.4-1.7,8.2-2.3
				c1.2-0.3,2.6-0.3,3.8-0.7c0.5-0.2,0.9-0.5,1.4-0.7c0.6-0.3,1.3-0.3,2-0.6c1.1-0.5,2-1.2,3-1.8c1.1-0.7,2.4-1.1,3.5-1.7
				c2.2-1.2,3.6-3,4.9-5c0.6-0.9,1.3-1.7,1.4-2.8c0.1-1.1-0.1-2.2-0.5-3.2c-0.4-1.1-1.1-1.8-1.9-2.6c-0.9-0.8-1.6-1.8-2.5-2.6
				c-0.9-0.7-1.9-1.3-2.9-1.8c-0.9-0.4-1.5-1.4-2.4-1.9c-2.3-1.4-5.1-1.8-7.7-2.4c-2.8-0.7-5.3-2-7.9-3.3c-2.6-1.2-5.3-1.5-8.1-2
				c-1.3-0.2-2.5-0.3-3.8-0.5c-1.6-0.2-3.1-0.6-4.7-0.7c-3-0.3-5.8-0.9-8.8-0.9c-2.8,0-5.9-0.4-8.7,0.3c-2.8,0.7-5.4,2.2-8.1,3.3
				c-1.3,0.5-2.5,1.1-3.4,2.1c-0.9,1-2.2,1.7-3.2,2.6c-1.1,1-2.4,1.8-3.5,2.8c-1,1-2,2.2-3.2,3c-0.5,0.4-1.1,0.7-1.5,1.3
				c-0.4,0.5-0.6,1.1-1.1,1.5c-0.4,0.4-0.9,0.7-1.3,1.1c-0.5,0.6-0.9,1.1-1.6,1.5c-0.7,0.4-0.4,1.8,0.4,1.6c1.5-0.2,2.7-0.9,3.9-1.7
				c1.2-0.8,2.3-1.5,3.1-2.6c1.6-2.2,3.7-5,6.4-5.7c-0.2-0.5-0.5-1.1-0.7-1.6c-0.5,0.3-0.9,0.6-1.4,0.9c-1,0.5-0.1,2.1,0.9,1.5
				c0.5-0.3,1-0.6,1.4-0.9c0.8-0.5,0.3-1.9-0.7-1.6c-2.5,0.7-4.2,2.7-5.9,4.6c-1,1.1-1.7,2.4-2.9,3.2c-1.2,0.9-2.7,2-4.2,2.2
				c0.1,0.5,0.3,1.1,0.4,1.6c1-0.5,1.5-1.3,2.2-2.1c0.7-0.7,1.3-1.3,1.9-2.1c0.7-1,1.9-1.6,2.8-2.4c0.9-0.9,1.7-1.9,2.7-2.7
				c0.9-0.8,2-1.4,2.9-2.2c0.9-0.8,2-1.4,2.8-2.2c0.9-0.9,1.7-1.5,2.8-2c1.2-0.5,2.5-1,3.7-1.5c2.6-1.2,4.9-2.1,7.8-2.1
				c2.9,0,6-0.2,8.9,0.3c5.5,0.9,11,1.3,16.4,2.3c2.7,0.5,5,1.8,7.4,2.9c2.4,1.1,4.8,1.7,7.3,2.3c1.2,0.3,2.4,0.6,3.5,1.1
				c0.6,0.3,1.3,0.5,1.8,1c0.4,0.3,0.7,0.7,1.1,1.1c0.8,0.6,1.8,1,2.7,1.5c1.1,0.8,1.8,1.6,2.7,2.6c0.9,0.9,1.8,1.5,2.2,2.8
				c0.4,1.2,0.3,2.2-0.4,3.3c-1.5,2.2-2.8,4.2-5.2,5.4c-1,0.5-2.1,1-3.2,1.6c-1.1,0.6-2,1.6-3.2,1.9c-0.5,0.1-0.9,0.2-1.4,0.4
				c-0.6,0.3-1.1,0.6-1.7,0.8c-1.2,0.4-2.6,0.5-3.8,0.7c-2.8,0.6-5.6,1.1-8.2,2.4c-1.2,0.6-2.2,1.4-3.4,2c-1.2,0.6-2.5,1.1-3.6,1.8
				c-1.2,0.8-2.3,1.8-3.5,2.5c-1.2,0.7-2.4,1.4-3.4,2.4c-1.1,1-2,2.2-3.2,3c-0.8,0.6-1.8,1.1-2.3,2c-0.3,0.5,0,1.1,0.5,1.3
				c0.4,0.1,0.6,0.1,1,0.1C227.6,430.4,227.6,428.6,226.5,428.7L226.5,428.7z"/>
		</g>
	</g>
	<g>
		<g>
			<path class="st0" d="M63.9,497.1c1.6,1.2,3.3,2.1,4.8,3.4c1.5,1.2,3.2,2,4.7,3.1c1.6,1.2,2.7,3,4.3,4.3c1.5,1.2,3.3,2.1,4.8,3.4
				c3.2,2.7,6.8,4.9,10.1,7.6c1.7,1.4,3.3,2.8,4.9,4.1c1.6,1.3,3.3,2.1,5.2,2.8c4,1.6,7.5,3.9,11.1,6.2c1.8,1.1,3.4,2.4,5.2,3.5
				c1.7,1,3.5,1.7,5.1,2.8c1.7,1.1,3.3,2.4,5.1,3.4c1.8,1,3.5,2.1,5.2,3.2c1.8,1.2,3.7,2.2,5.5,3.2c0.8,0.4,1.6,0.9,2.5,1.1
				c1,0.3,2.1,0.5,3.1,0.9c2.2,0.9,4.5,1.8,6.7,2.6c1.2,0.4,2.4,0.7,3.5,1.1c1,0.3,1.9,1,2.9,1.4c2,0.8,4.3,1,6.4,1
				c1.2,0,2.5-0.1,3.7,0c1.2,0.1,2.4,0.5,3.7,0.5c0.5,0,0.8-0.4,0.9-0.9c0-0.2,0-0.4,0-0.6c0.1-1.1-1.7-1.1-1.8,0c0,0.2,0,0.4,0,0.6
				c0.3-0.3,0.6-0.6,0.9-0.9c-1.1,0-2.1-0.3-3.1-0.4c-1.1-0.2-2.2-0.1-3.3-0.1c-2,0-4.2,0-6.1-0.6c-0.9-0.3-1.7-0.8-2.5-1.2
				c-0.9-0.4-1.9-0.7-2.9-1c-2-0.6-4-1.3-5.9-2.1c-1-0.4-2-0.9-3-1.2c-0.9-0.3-2-0.5-2.9-0.8c-2.1-0.8-4-2.1-5.9-3.2
				c-1.7-1-3.2-2.2-4.9-3.1c-1.8-1-3.5-2-5.2-3.2c-1.6-1.1-3.2-2.1-4.9-2.9c-1.8-0.9-3.4-2.1-5.1-3.2c-3.4-2.3-6.8-4.7-10.5-6.4
				c-1.9-0.9-4-1.5-5.9-2.6c-1.8-1.1-3.3-2.6-4.9-3.9c-1.6-1.3-3.2-2.7-4.9-3.9c-1.7-1.3-3.5-2.3-5.1-3.6c-1.7-1.3-3.3-2.6-5.1-3.8
				c-2-1.3-3.2-3.1-4.9-4.6c-1.6-1.4-3.6-2.3-5.3-3.6c-1.7-1.3-3.4-2.4-5.2-3.6C63.9,494.9,63,496.5,63.9,497.1L63.9,497.1z"/>
		</g>
	</g>
	<g>
		<g>
			<path class="st0" d="M189.7,365c-2-2.5-4.9-3.6-7.1-5.9c-0.9-0.9-1.9-1.7-3-2.2c-1.5-0.8-2.8-1.8-4.3-2.6
				c-2.7-1.5-5.6-3.3-7.9-5.4c-1.1-1-1.8-2.2-2.6-3.6c-0.9-1.4-1.9-2.8-2.8-4.2c-0.7-1.3-1.6-2.4-2.2-3.8c-0.8-1.6-1-3.5-1.5-5.2
				c-0.5-1.6-0.6-3.2-1.1-4.8c-0.4-1.6-0.6-3.6-0.7-5.3c-0.1-3.7,0-7.4,0-11c0-1.8-0.2-3.6,0.2-5.4c0.4-1.8,0.8-3.6,1.3-5.3
				c0.4-1.5,1-2.9,1.6-4.4c0.6-1.4,0.7-3,1.4-4.4c0.7-1.3,1.4-2.7,2.2-3.9c1.1-1.4,2.1-2.9,3.2-4.3c2.1-2.7,4.6-5,7.3-7.1
				c1.3-1.1,2.7-2.1,4-3.1c1.3-1,2.5-2.2,3.8-3.2c1.2-0.9,2.8-1.3,4.2-1.9c1.8-0.7,3.5-1.6,5.2-2.3c3.3-1.5,7-2.1,10.4-3.3
				c1.4-0.5,2.9-1.1,4.4-1.2c1.9-0.2,3.9-0.1,5.8-0.1c3.8,0,7.6,0,11.4,0.1c2.1,0,4.3,0,6.4,0c1.1,0,2.1,0,3.2,0
				c0.9,0,1.7,0.2,2.6,0.4c3.9,0.5,7.7,1.6,11.4,2.9c0.8,0.3,1.5,0.5,2.3,0.7c0.9,0.2,1.6,0.6,2.4,1.1c0.6,0.4,1.3,0.6,2,0.8
				c0.9,0.3,1.6,0.9,2.4,1.3c1.7,0.8,3.4,1.3,4.9,2.5c1.5,1.2,3,2.6,4.4,4c0.8,0.8,2.1-0.4,1.3-1.3c-2.5-2.5-5-4.9-8.3-6.2
				c-1.3-0.6-2.5-1.4-3.8-1.9c-0.8-0.3-1.5-0.5-2.2-1c-0.7-0.4-1.3-0.8-2.1-1c-3.3-0.9-6.6-2.1-10-2.9c-1.7-0.4-3.4-0.7-5.2-1
				c-1.7-0.3-3.4-0.2-5.2-0.2c-4.1,0-8.2,0-12.4,0c-1.8,0-3.6,0-5.4,0c-2,0-4.2-0.1-6.2,0.1c-1.4,0.2-2.8,0.7-4.1,1.1
				c-1.9,0.7-3.8,1.2-5.7,1.7c-3.6,0.9-6.8,2.6-10.2,4.1c-1.5,0.7-3.2,1.1-4.6,2.1c-1.2,0.9-2.3,1.9-3.5,2.9c-3,2.4-6.1,4.6-8.8,7.3
				c-2.4,2.4-4.4,5.2-6.4,7.9c-1,1.3-1.7,2.8-2.5,4.3c-0.7,1.2-0.8,2.7-1.3,4c-0.6,1.6-1.3,3.1-1.8,4.7c-0.5,1.8-0.9,3.5-1.3,5.3
				c-0.4,1.8-0.3,3.5-0.3,5.3c0,2.1,0,4.2,0,6.3c0,3.6-0.2,7.1,0.5,10.7c0.2,0.8,0.5,1.5,0.6,2.3c0.1,0.8,0.2,1.5,0.4,2.3
				c0.4,1.9,0.9,3.9,1.5,5.6c0.6,1.7,1.8,3.1,2.6,4.7c0.9,1.6,2.1,3,3,4.6c0.9,1.5,1.9,2.9,3.2,4c1.2,1,2.6,1.9,3.9,2.7
				c1.7,1.1,3.5,2.1,5.2,3.2c0.8,0.5,1.6,1.1,2.4,1.6c0.7,0.4,1.3,0.6,1.9,1.1c0.7,0.5,1.3,1.2,1.9,1.8c0.6,0.6,1.2,1,1.9,1.4
				c1.7,1,3.3,2.2,4.5,3.7C189.2,367.1,190.4,365.8,189.7,365L189.7,365z"/>
		</g>
	</g>
	<g>
		<g>
			<path class="st0" d="M165,216c0.8,2.6,1.9,5.1,3.1,7.5c1.3,2.5,2.3,5.2,3.7,7.7c1.4,2.3,2.9,4.6,4.1,7c1,2.2,1.8,4.5,3.7,6.1
				c1.1,0.9,2.6-0.6,1.6-1.6c-1.8-1.5-2.5-3.8-3.4-5.8c-1.2-2.4-2.7-4.6-4-6.9c-1.3-2.3-2.2-4.7-3.4-7.1c-1.2-2.5-2.4-4.9-3.2-7.6
				C166.7,214.1,164.6,214.6,165,216L165,216z"/>
		</g>
	</g>
	<g>
		<g>
			<path class="st0" d="M97.7,301.9c2.8,0,5.2,1.2,7.8,2.2c2.7,1.1,5.5,2,8.3,3c2.4,0.8,4.7,1.6,7.1,2.3c1.8,0.6,4.1,1.1,5.5,2.5
				c1,1,2.6-0.6,1.6-1.6c-1.4-1.5-3.6-2.2-5.5-2.8c-2.5-0.8-5-1.6-7.5-2.5c-2.9-1-5.9-2-8.7-3.1c-2.7-1.1-5.4-2.3-8.4-2.3
				C96.2,299.7,96.2,301.9,97.7,301.9L97.7,301.9z"/>
		</g>
	</g>
	<g>
		<g>
			<path class="st0" d="M264.1,229c-1-0.3-2.2-0.2-2.7,0.9c-0.2,0.4-0.3,0.9-0.3,1.3c0,0.2,0,0.4,0,0.6c0,0.1,0,0.2,0,0.3
				c0-0.2,0,0.1,0,0.1c-0.6,2.7-1.8,5.2-2.9,7.7c-0.2,0.5-0.2,1.2,0.4,1.5c0.5,0.3,1.3,0.1,1.5-0.4c1-2.3,2.1-4.6,2.8-7
				c0.3-0.9,0.4-1.8,0.5-2.7c0,0,0-0.3,0-0.1c0,0.2,0-0.1,0-0.1c0,0,0.1-0.3,0-0.1c-0.1,0.1,0-0.1,0.1-0.1c-0.1,0.1-0.1,0.1-0.2,0.2
				c-0.1,0-0.2,0.1-0.1,0c0.1,0,0.1,0,0,0c-0.1-0.1,0.1,0,0.2,0c-0.2,0,0.3,0.1,0.2,0.1C264.9,231.5,265.5,229.3,264.1,229
				L264.1,229z"/>
		</g>
	</g>
	<path class="st0" d="M176.2,268.8c-0.2,0.1-0.3,0.2-0.5,0.2c-0.4,1-1.1,1.8-2.2,2.7c-3.9,3-7.7,6.1-9.9,10.8
		c-3.9,8.3-7,16.9-8,26.2c-0.9,8.2-1.3,16.3,0.5,24.5c3.6,17,13.4,28.7,29.2,35.7c0.4,0.2,0.8,0.4,1.4,0.8c-2.6,1.2-5,2.3-7.3,3.4
		c-11,5.5-20.9,12.8-30.5,20.4c-21.5,17.2-42.1,35.5-60.4,56.1c-8.6,9.7-17,19.5-24.5,30.1c-3.3,4.7-6.7,9.5-10.1,14.3
		c-0.4,0-1-0.2-1.6-0.1c-1.4,0.2-2.2,1.1-1.7,2.4c0.7,2,0,3.6-0.9,5.2c-1.1,1.8-2.2,3.6-3.3,5.4c-5,8.3-10,16.5-14.9,24.8
		c-1.7,2.9-3.3,5.9-4.8,8.9c-0.4,0.8-0.7,1.8-0.8,2.7c-0.1,1.3,1.5,2.2,2.4,1.3c1.3-1.2,2.6-2.6,3.4-4.1
		c6.3-12.2,12.9-24.2,20.8-35.5c0.5-0.8,1.1-1.5,1.5-2.1c3.8,2.6,7.3,5.3,11.1,7.7c6.3,3.9,12.7,7.7,19.1,11.4
		c6.7,3.8,13.5,7.5,20.3,11.1c6.6,3.6,13.3,7,19.9,10.7c7.2,4.1,14.5,8.1,22.3,11.1c3.7,1.4,7.4,2.8,11.3,4.3
		c-1.7,3.5-3.3,6.8-4.9,10.1c-5.5,11.5-10,23.4-14.5,35.3c-0.1,0.4-0.4,0.8-0.3,1.1c0.2,0.7,0.5,1.6,1,1.9c0.5,0.3,1.6,0,2-0.4
		c0.7-0.6,1.2-1.5,1.5-2.4c0.8-1.9,1.3-4,2.2-5.9c4.3-8.8,8.5-17.5,12.9-26.2c6.3-12.3,12.6-24.6,19.1-36.7c3.2-6,7-11.8,10.6-17.6
		c2.4-4,4.8-8,7.2-11.9c4.5-7.1,9.1-14.1,13.7-21.2c3.1-4.8,6.2-9.6,9.3-14.3c0.8-1.2,1.7-2.3,2.8-3.3c3.1-3,6.2-6.1,9.6-8.9
		c3.4-2.8,7-5.5,10.7-7.8c6.7-4.2,14.1-6.6,21.7-8.7c7.8-2.2,15.5-4.7,22.5-9c3.6-2.2,6.8-4.7,9.2-8.2c2.5-3.7,2-6.9-1.6-9.6
		c-1.1-0.8-2.4-1.5-3.8-2.4c2-0.8,3.7-1.7,5.5-2.3c4.4-1.6,7-4.9,9.4-8.7c0.5-0.9,0.8-2,1.1-3c1.1-5.4-1.2-10.2-6.1-12.7
		c-0.4-0.2-0.8-0.6-1.5-1c1.1-0.4,1.8-0.8,2.5-1c2.9-0.8,4.8-2.7,6.5-5c5.5-7.4,1.2-15.4-4.6-18.4c-6-3.2-12.5-5-19.2-6.3
		c-3.1-0.6-6.2-1.1-9.3-1.7c0-0.4,0-0.6,0.1-0.8c3.3-5.3,4.9-11.3,5.9-17.4c-0.3-0.9-0.3-1.8,0.2-2.8c1-2.3,1.6-4.7,2.2-7.1
		c-0.1,0-0.2,0.1-0.3,0.1c0.1-1.2,0.1-2.5,0.3-3.7c1.5-10.2,1.3-20.4-1.4-30.4c-1.5-5.7-4.2-10.5-9-14.1c-1.1-0.8-2.1-1.8-3.1-2.6
		c-2.2-1.8-4-3.9-7-4.7c-2.2-0.6-4.2-2.3-6.1-3.8c-4.3-3.5-9.3-5.4-14.7-6.5c-3.4-0.7-6.8-1.2-10.3-1.7c-4.9-0.8-9.8-0.2-14.7,0.5
		c-5.6,0.7-11.3,1.3-16.9,2.2c-6.1,1-12,2.8-17.2,6.3c-0.5,0.3-1,0.5-1.9,1c0-0.3,0-0.5,0-0.8 M170.9,351.2c-2.7-4-5.7-7.9-7.7-12.2
		c-1.7-3.5-2.2-7.6-3.1-11.4c-1.7-7.5-0.6-15,0.8-22.4c2.1-10.7,7-19.8,15.3-26.9c0.4-0.4,0.9-0.8,1.3-1.2c5.7-6.4,13.1-9.6,21.1-12
		c7.4-2.3,15-2.6,22.6-2.3c5.8,0.2,11.6,0.5,17.3,1.3c9.2,1.2,17.2,4.9,23.2,12.4c1.9,2.4,3.9,4.8,5.8,7.2c4,4.9,6.4,10.5,7.5,16.7
		c1.5,8,2,16.1,1.5,24.2c-0.1,1.9-0.5,3.8-1.2,5.6c-2.7,7.4-5.9,14.7-9.8,21.6c-0.1,0.3-0.3,0.5-0.5,0.7c-2.6,2.7-4.6,6-8.5,7.5
		c-3.1,1.2-6.2,2.7-9.3,4.1c-4.2-9.6-5-19.7-7.4-29.4c2.2-1.4,4.2-2.6,6-3.9c5.5-3.9,8.8-9.1,9.7-15.8c0.5-3.5-1.1-6.6-4.3-8.1
		c-5.1-2.5-10.1-2.3-14.9,0.8c-2.6,1.7-4,4.2-4.5,7.1c-1.1,5.4-0.7,10.8,0.2,16.1c0.1,0.7,0.2,1.5,0.3,2.4c-2.8,1.5-5.7,1.7-8.9,2.1
		c-0.5-1.2-1-2.4-1.4-3.5c-2.4-6.3-5.9-11.9-10.9-16.5c-2.3-2.1-4.8-3.5-7.8-4.1c-6.1-1.1-9.4,1.5-11.2,6.6
		c-1.5,4.2-1.5,8.6-0.2,12.8c1.3,4.2,4,7.2,8.3,8.7c6.3,2.2,12.7,3.5,19.3,1.8c0.5-0.1,1-0.1,1.8-0.2c3.6,9.6,5.5,19.7,9.3,29.7
		c-2,0.4-3.7,0.7-5.3,0.9c-0.4,0.1-1-0.1-1.3-0.4c-2.8-1.7-2.7-1.8-5,0.4c-0.2,0.2-0.4,0.3-0.8,0.6c-1.8-3-4.9-3.4-7.8-4.5
		c-3.9-1.3-8-1.5-11.8-2.6c-5.1-1.5-9.9-3.7-14.9-5.6c-1.4-0.6-2.8-1.3-4.2-1.9C176.1,356.1,173,354.2,170.9,351.2z M270.2,392.8
		c-2.7-1.5-5.2-2.9-8-4.5c0.7-0.8,1-1.4,1.5-1.7c1.9-1.1,3.9-2.2,5.9-3c2.3-0.9,3-0.6,4,1.8c0.6,1.3,1.1,2.7,1.8,4.5
		C273.6,390.8,271.9,391.8,270.2,392.8z M270.8,401.9l-0.4,0c-0.1-0.6-0.1-1.2-0.2-1.8c0.1,0,0.2,0,0.4,0
		C270.7,400.7,270.7,401.3,270.8,401.9z M265.2,381.9c-2.4,1.3-4.6,3.3-7.5,3.4c-0.5,0-1,0.2-1.4,0c-3.7-1.2-7.5-2.4-11.4-3.7
		c3.2-2.5,6.3-4.8,9.3-7.1c0.7-0.5,1.4-1.1,1.8-1.9c0.3-0.6,0.5-1.6,0.1-2.1c-0.3-0.5-1.3-0.5-2-0.6c-0.3,0-0.7,0.3-1,0.5
		c-7.6,4.8-16.1,6.8-24.7,8.5c-1.1,0.2-2.3,0.1-3.6,0.2c-0.4-0.8-0.8-1.5-1.4-2.6c3.8-1.3,7.3-2.6,10.8-3.7
		c7.1-2.2,14.2-4.1,21.3-6.5c2.8-0.9,5.3-2.7,8.1-4.2c2.8,5.3,4.7,11.3,6.6,16.9C268.4,380,266.9,381,265.2,381.9z M240.2,366.6
		c-0.4,0.2-1.1,0.6-1.8,0.9c-1.3,0.5-2.7,1-4,1.5c-3.1-10-6-19.5-9.1-29.3c2.6-0.9,5.1-1.8,7.8-2.8
		C235.5,346.9,237.8,356.6,240.2,366.6z M235.5,314c0.2-0.5,0.5-1,0.7-1.5l0.3,0.1c-0.2,0.5-0.4,1.1-0.7,1.6L235.5,314z
		 M238.2,318.7c0.3-2.7,1.3-5.2,3.1-7.4c2-2.5,4.9-3.1,7.8-1.7c1.9,0.9,2.6,1.9,2,3.9c-0.6,2.2-1.5,4.4-2.5,6.4
		c-2.1,4-5.3,7-9.5,9.8C238.3,325.8,237.9,322.3,238.2,318.7z M242.1,358.4l1,3.4c-0.2,0.1-0.3,0.2-0.5,0.3
		C242.1,360.9,241.4,359.8,242.1,358.4z M219.6,335.3c-5.6,2.5-17,1.5-21.3-3.7c-4.5-5.5-4.6-8.8-2.1-14.3c1.3-2.9,3.1-3.5,6.2-2.6
		c4.1,1.2,7.5,3.4,10.1,6.9C215.6,325.8,217.8,330.3,219.6,335.3z M178.3,361.1c4.4,1.8,9.1,3.1,13,5.9
		C186.4,366.1,182,364.2,178.3,361.1z M289.8,425.1c-2.5,2.7-5.5,4.8-8.8,6.5c-9,4.5-18.4,7.4-28.2,9.5c-8.8,1.9-17.2,4.8-23.9,11
		c-3.2,3-5.9,6.6-8.8,10c-2.3,2.7-4.5,5.5-7,8.1c-3.5,3.5-6.5,7.3-8.8,11.8c-8.1,15.5-17,30.6-26.9,44.9c-6,8.6-11.4,17.5-16.3,26.7
		c-0.3,0.5-0.6,1-1,1.7c-2-1.1-4-2-5.9-3.2c-6.2-3.9-12.8-6.7-19.7-8.9c-4.2-1.4-8.3-3.2-12-5.6c-1.5-0.9-2.9-1.9-4.5-2.6
		c-9.9-4.7-18.8-10.9-27.7-17.3c-3.9-2.8-8.1-5.2-12.3-7.7c-4.5-2.7-9-5.3-12.9-8.8c-2-1.8-4.3-3.2-6.7-4.9c0.6-0.9,1.2-1.8,1.8-2.7
		c7.7-10.4,15.3-20.8,23.3-31c4-5.1,8.4-9.8,12.9-14.5c7.1-7.3,14.3-14.3,21.5-21.5c6.8-6.8,14-13.3,21.9-18.9
		c8.5-6,16.8-12.5,25.6-18c9.9-6.2,20.3-11.6,30.4-17.3c0.9-0.5,2-0.7,3-0.6c3.2,0.2,6.3,0.7,9.5,1c1.2,0.1,2.2,0.5,2.9,1.6
		c1.2,2.1,2.4,4.2,3.6,6.4c-0.8,0.4-1.4,0.7-2,1c-6.7,2.7-12.8,6.3-18.3,11c-1,0.8-1.5,1.7-1.2,3c0.4,1.4,1.4,1.8,2.6,1
		c0.2-0.1,0.5-0.4,0.7-0.6c4.1-3.9,9-6.7,14.1-9c2.1-1,4.5-1.7,6.9-2c9.2-1.2,18.3-0.7,27.3,1.5c4.8,1.2,9.4,2.8,13.5,5.8
		c1,0.7,2.2,1.3,3.2,1.9c3.3,2,5.3,4.9,5.6,8.9c0.3,4.1-2.2,7.9-6.2,8.9c-3,0.8-6,1.1-9.2,0.7c-3.6-0.4-7.3-0.3-11-0.2
		c-2.7,0.1-4.9,1.7-6.8,3.6c-2.1,2.1-4,4.4-6.1,6.6c-0.8,0.9-1.8,1.7-2.7,2.6c-0.4,0.4-0.7,0.9-1,1.4c-0.5,1-1.3,2-0.1,3.1
		c0.9,0.8,2.4,0.8,3.7-0.3c2.7-2.3,5.3-4.8,8-7.1c1.9-1.7,3.8-3.3,5.6-5c1.2-1.1,2.7-1.6,4.3-1.5c2.4,0.1,4.8,0.1,7.2,0.4
		c3.8,0.4,7.5,0,11-1.7c0.9-0.5,1.7-0.4,2.7-0.2c4.2,0.5,8.5,0.4,12.7,0.9c2.9,0.3,5.9,0.9,8.7,1.9
		C291.9,418.8,292.5,422.3,289.8,425.1z M299.5,392.2c1.7,1.6,2.2,3.4,1.6,5.7c-1.4,5.3-4.5,9.1-9.9,10.2c-6,1.3-12.2,1.9-18.2,2.8
		c-0.7,0.1-1.5,0-2.6,0c2.2-4.3,5.2-8,3.1-12.9c0.8-0.5,1.4-0.9,2.1-1.2c0.7-0.4,1.4-0.7,2-1.1c4.1-2.4,4.6-3.7,3.6-8.5
		C287.9,387.1,294.3,387.2,299.5,392.2z M292.9,382.1c-4.7,0.5-9.4,0.5-13.9,0c-2.7-5.9-5.4-11.6-8-17.3c-0.4-1-0.8-2-1.4-2.9
		c-1.1-1.7-0.8-3,1-4.5c4,0.9,8.3,1.5,12.4,2.8c5.8,1.9,11.4,4.2,16.9,6.6c1.5,0.6,2.9,1.9,3.9,3.2c1.7,2.1,1.3,4.5-0.4,6.5
		C300.7,379.9,297.2,381.7,292.9,382.1z"/>
</g>
<path class="st0" d="M174.5,720.7c-1.9,0.4-3.8,0.7-5.6,1.2c-6.1,1.7-12,1.2-17.7-1.6c-1.7-0.8-2.8-2-3.4-3.7
	c-1.3-3.7-1.7-7.6-0.8-11.4c0.9-3.9,3.4-6.6,7.2-8c2.6-0.9,5.2-1.3,7.9-1.4c5.2-0.2,10.4-0.8,15.8-1.2c0.3-1.2,0.5-2.4,0.8-3.6
	c2-9.4,6.4-17.5,12.6-24.7c3.7-4.3,7.9-7.9,12.7-10.9c2.1-1.3,4.6-2,6.9-2.8c6.6-2,13.1-3.8,20-4.5c5-0.4,9.8,0.6,14.7,1.1
	c5.4,0.5,10.5,2.3,15.7,4c1.8,0.6,3.4,1.8,5,2.9c3.5,2.5,7.1,5.1,10.3,7.9c2.2,2,4.2,4.3,5.7,6.8c2.3,3.8,4.3,7.8,6.1,11.8
	c2.5,5.3,2.8,11,2.8,16.7c0,3.9,0,7.7,0,11.8c0.6,0.1,1.3,0.4,2.1,0.5c6.5,0.9,13,1.8,19.5,2.5c3.9,0.4,7.9,0.6,11.8,0.8
	c1.5,0.1,2.7,1.4,2.6,3.1c-0.3,5.9-0.5,11.8-1,17.6c-0.7,9.6-1.7,19.2-3.4,28.7c-1.9,10.8-4.1,21.6-6.9,32.3
	c-0.9,3.4-1.3,7-1.8,10.5c-0.5,3.2-0.8,3.5-4.1,3.4c-0.8,0-1.5,0-2.3,0c-9.5,0.3-18.9-0.3-28.3-1.2c-7-0.6-14-1.4-21-2.1
	c-2.2-0.2-4.4-0.3-6.6-0.4c-6.6-0.3-13.1-0.6-19.7-0.8c-3.9-0.1-7.7,0.2-11.6,0.2c-1.9,0-3.9,0.1-5.8,0c-2.8-0.2-3.3-1.2-2.2-3.8
	c0.3-0.8,0.7-1.6,1.2-2.3c3-4.5,4.7-9.5,5.8-14.7c0.8-3.5,1.9-6.9,2.8-10.3c0.3-1.1,0.6-2.2,0.9-3.3c-0.3-0.2-0.5-0.5-0.8-0.5
	c-10.1-2.4-19.2-6.9-27.7-12.7c-7.3-4.9-12.2-11.8-15-20C177.7,732.8,176.3,726.9,174.5,720.7z M226.5,771.4
	c-0.6,3.3-0.8,6.3-1.6,9.2c-0.9,3.2-2.3,6.3-3.4,9.5c-1.3,3.7-2.4,7.4-3.7,11.3c1.2,0.1,1.9,0.2,2.7,0.2c5,0,10,0.1,15.1,0
	c14.2-0.4,28.4,1.1,42.5,2.2c10.8,0.8,21.5,1.4,32.5,2.1c0.5-1.8,0.9-3.4,1.2-5c1.7-9.8,3.5-19.6,5.1-29.4
	c1.1-6.8,1.9-13.6,2.7-20.4c0.8-6.3,1.4-12.6,2-19c0.4-4.6,0.6-9.2,0.9-13.8c-10.5-1.4-20.8-2.9-31.3-4.3c-0.4,3.4-2.2,6.2-1.5,9.6
	c0.1,0.6-0.3,1.3-0.5,1.9c-1.1,3.5-2.4,6.9-3.3,10.5c-1.6,6.2-4,11.9-8.4,16.6c-0.5,0.6-1,1.2-1.3,1.9c-1.8,3.6-4.7,6.1-8,8.1
	c-3.6,2.1-7.3,3.9-11.4,4.9c-2,0.5-4,0.9-5.8,1.7c-5.6,2.3-11.3,3-17.3,2.4c-1.5-0.2-3.1-0.2-4.6-0.3
	C228.1,771.4,227.2,771.4,226.5,771.4z M182.1,704.8c0.1,2.6,0.2,5.2,0.5,7.8c0.1,1.4,0.7,2.8,1,4.1c0.2,1.1,0.3,2.3,0.5,3.4
	c2,8.1,6.3,14.8,12.7,20.2c3.2,2.7,6.4,5.2,10.2,6.9c7.3,3.3,14.8,5.5,22.6,6.9c4.9,0.9,9.8,1.1,14.7,0.4c7.2-1.1,13.9-3.8,19.9-8.1
	c2.3-1.7,4.7-3.4,7.2-4.9c5.7-3.5,8.8-8.7,10.7-14.9c0.5-1.6,0.8-3.2,1.4-4.7c2.7-6.8,3.4-13.8,3.3-21c-0.1-7.1-2-13.7-5.2-20
	c-2.1-4-4.4-8-6.7-11.8c-1.2-2-2.4-4-4.1-5.5c-5.3-4.9-11.3-8.7-18.5-10.4c-5.5-1.3-11.1-2.7-16.8-2.5c-8.8,0.2-17.4,2.2-25.8,4.9
	c-0.7,0.2-1.4,0.6-2,1.1c-2.6,1.8-5.3,3.6-7.8,5.5c-1.7,1.3-3.5,2.5-4.7,4.2c-4.2,6.1-7.9,12.6-10.1,19.8
	C183.2,692.3,182.6,698.5,182.1,704.8z M275.8,745.3c-0.1-0.1-0.3-0.2-0.4-0.3c-0.6,0.4-1.2,0.9-1.8,1.3c-3.2,2-6.5,3.9-9.5,6.1
	c-4.7,3.4-9.6,6-15.4,6.6c-1,0.1-2.3,0.2-3,0.8c-1.8,1.5-3.8,1.6-6,1.7c-2,0.1-4,0.2-6.1,0.4c-6.3,0.5-12.3-0.2-18.1-2.7
	c-3.8-1.7-7.5-3.4-11.4-4.9c-1.9-0.8-3.7-1.6-5.1-3.2c-3.6-4-7.1-8.1-10.7-12.2c-0.7-0.8-1.3-1.6-2.3-3c0.1,1,0,1.4,0.1,1.7
	c1.8,5.6,4.8,10.5,8.5,15c0.9,1.1,2.2,1.9,3.4,2.6c5.7,3.2,11.4,6.4,17.2,9.6c2.6,1.4,5.3,2.3,8.2,2.5c8.5,0.7,17,0.7,25.2-2.1
	c9.5-3.3,18.3-7.8,24.4-16.2C274,747.6,274.9,746.4,275.8,745.3z M177.4,698.6c-2,0.2-3.5,0.2-5,0.4c-2.8,0.4-5.5,0.8-8.3,1.4
	c-2.8,0.6-5.5,1.5-8.3,2.2c-1.4,0.4-2.1,1.3-2.1,2.7c0.1,3.1,0.2,6.2,0.5,9.2c0.1,0.7,0.8,1.5,1.5,1.9c2.4,1.5,5,1.8,7.8,1.1
	c3.4-0.8,6.8-1.2,10.2-1.8c1-0.2,2-0.3,3-0.4C176.9,709.9,177.2,704.5,177.4,698.6z"/>
<path class="st1" d="M375.5,567c-3.3-25.1-9.3-49.6-12.6-74.7c1.6-1.3,3.4-1.6,5.2-2c8.3-2,16.6-3.6,24.8-5.9
	c19.6-5.3,39.7-8.3,59.5-12.2c16.1-3.1,32.1-6.8,48.1-10.4c18.3-4,36.6-8,54.8-12.2c7.6-1.7,15.1-4,22.7-5.9
	c6.3-1.5,12.6-2.8,18.9-4.1c6.3-1.4,12.7-2.6,19-4.1c5.1-1.2,10.2-1.7,15.5-1.2c7.2,0.7,14.4,1.2,21.6,1.8c0.8,0.1,1.6,0.6,2.2,1.1
	c1,1,1.9,2.2,2.7,3.4c6.4,10.8,12.9,21.5,18.1,33c2,4.4,4.5,8.5,6.9,12.7c1.2,2.2,3,3.8,5.4,4.6c0.7,0.2,1.4,0.7,2.1,1
	c3.5,1.8,6.7,0.7,8.1-3.1c1.2-3.4,2.1-6.8,2.9-10.3c2.7-12.1,5.4-24.3,7.8-36.5c1-5.3,2.6-10.4,4.8-15.9c0.4,0.9,0.7,1.5,0.8,2.1
	c0.7,5.2,1.4,10.3,2.1,15.5c1.5,10.5,3,21,4.5,31.5c0.9,6.3,1.9,12.5,2.9,19c-3.4,0.5-6.7,1.1-10,1.5c-13.6,1.7-26.9,4.9-40.1,8.6
	c-5.6,1.6-11.4,2.2-17,3.3c-13.2,2.6-26.3,5.4-39.4,8c-11.3,2.2-22.6,4.2-33.8,6.5c-14.5,3-28.9,6.1-43.3,9.2
	c-13.9,3-27.7,6.2-41.5,9.2c-11.5,2.5-23,5-34.5,7.6c-7.8,1.7-15.6,3.5-23.4,5.2c-17.5,3.9-35.1,7.7-52.6,11.6
	C384.3,566.2,380.1,566.9,375.5,567z M462.7,530.5c1.4-0.2,2.9-0.3,4.3-0.6c4.6-1,9.2-2.1,13.8-3.3c8.7-2.1,17.4-4.3,26.1-6.5
	c4.4-1.1,8.8-2.3,13.1-3.5c2.1-0.6,4.3-1.1,6.4-1.7c5-1.3,10.1-2.7,15.1-4c3.6-1,7.2-2.2,10.9-3c6-1.3,12.1-2.3,18.2-3.3
	c13.3-2.3,26.6-4.7,39.9-7c8.2-1.4,16.3-3,24.2-5.7c5.8-1.9,11.4-4.2,16.5-7.6c3.6-2.5,5-7,3-10c-1.5-2.3-3.5-4-6.3-4.8
	c-3.6-1-7.2-1.3-10.9-0.6c-11.9,2.3-23.8,4.6-35.5,8.3c-7.2,2.3-14.8,3.7-22.3,5.1c-11.1,2.1-22.3,3.4-33.4,5.7
	c-12.8,2.7-25.5,6.1-38.2,9.2c-10.2,2.4-20.5,4.7-30.7,7.1c-5.6,1.3-11.3,2.6-16.5,5.2c-2.9,1.5-5.8,3.1-7.8,5.8
	c-1.9,2.5-2.2,5.3-1.2,8.2C452.9,527.7,456.4,530.3,462.7,530.5z M551.3,467.5c0.4,2,0.8,3.8,1.2,5.7c0.3,1.2,0.6,2.5,1.2,3.5
	c0.3,0.5,1.4,0.9,1.9,0.7c0.5-0.2,0.8-1.1,0.9-1.8c0.1-0.4-0.3-0.9-0.4-1.4c-0.5-2.7-1.1-5.4-1.6-8.2c2.2-0.8,4.1-1.4,6.1-2.1
	c0.3,1,0.5,1.8,0.7,2.6c0.5,1.9,0.9,3.8,1.5,5.6c0.2,0.8,0.7,1.7,1.3,2.1c0.6,0.4,1.7,0.5,2.3,0.2c0.9-0.5,0.7-1.4,0.2-2.3
	c-0.6-1.1-1.1-2.2-1.4-3.4c-0.5-1.7-0.7-3.4-1.3-5c-0.3-0.8-1.2-1.9-1.8-1.9c-2.2-0.2-4.4-1-6.6,0.4c-0.4,0.2-0.9,0.2-1.5,0.3
	c-0.2-0.7-0.4-1.4-0.6-2c-0.4-1.6-0.9-3.2-1.3-4.7c-0.3-1-0.9-1.5-2-1.2c-1,0.3-1.4,1-1.2,2c0.1,0.7,0.4,1.3,0.6,1.9
	c0.4,1.7,0.9,3.5,1.3,5.3c-1.3,0.7-2.3,1.2-3.2,1.7c-0.9-0.6-1.6-1.4-2.4-1.7c-1.2-0.3-2.4-0.2-3.6-0.2c-0.6,0-1.3,0.3-1.8,0.7
	c-2.2,1.6-3.4,6.8-2.4,9.3c1.1,2.7,3.8,3.4,6.1,1.5c0.6-0.5,1.1-1,1.8-1.7c0.3,1.1,0.5,2,0.9,2.9c0.4,1,1.2,1.9,2.4,1.4
	c1.1-0.5,1-1.4,0.7-2.4c-0.6-2.2-1.1-4.4-1.6-6.7C549,468.3,550,467.9,551.3,467.5z M636.4,447.9c-3.8-2.5-5.7-1.8-7.3,2.5
	c-0.3,0.7-0.5,1.4-0.8,2.3c-1.7-4.6-3.5-5.9-7.5-5.4c-2.2,0.2-4.1,2.6-4.5,5.7c-0.4,3.2,0.7,5.5,3.1,6.5c3.1,1.3,5.8,0,9-4.1
	c0.1,0.8,0.1,1.4,0.2,2.1c0.1,0.7,0.3,1.3,0.5,2c0.4,1,1.1,1.7,2.2,1.3c1.3-0.4,1.4-1.3,0.9-2.5c-1.1-2.9-0.6-5.6,1.1-8.6
	c0.8,1.4,1.3,2.4,2,3.3c1.1,1.6,2.4,1.5,3.2-0.3c0.3-0.6,0.6-1.3,1.1-2.6c0.7,2,1.1,3.5,1.6,4.9c0.5,1.4,1.5,2.6,3.1,2.6
	c0.7,0,1.6-0.6,2-1.3c0.5-0.8,0.1-1.8-0.9-2.1c-1.3-0.3-1.6-1.2-1.9-2.3c-0.3-1.1-0.6-2.2-1-3.3c-1.3-3.4-2.9-3.7-5.4-1.2
	C636.8,447.6,636.6,447.7,636.4,447.9z M608.9,455.8c0.2,0.7,0.4,1.1,0.5,1.6c0.2,1.4,0.3,2.9,0.7,4.3c0.2,0.6,1,1.3,1.6,1.3
	c1,0.1,1.5-0.7,1.6-1.7c0-0.6-0.2-1.1-0.3-1.7c-0.2-1.7-1-3.3,0.5-4.9c0.3-0.3-0.1-1.6-0.5-2c-1.2-0.9-1.4-2-1.5-3.3
	c-0.1-1.1-0.3-2.1-0.4-3.1c-0.1-1-0.5-1.7-1.6-1.7c-1.2,0-1.6,0.9-1.6,2c0,0.7,0.1,1.3,0.2,2c0.2,1.3,0.3,2.6,0.5,4
	c-2.1,0.7-4,1.4-6,2c-0.2-1.2-0.3-1.9-0.4-2.7c-0.1-1.1-0.3-2.1-0.4-3.2c-0.2-1.1-0.7-1.9-1.9-1.7c-1.2,0.2-1.3,1.2-1.3,2.2
	c0,0.3,0.1,0.6,0.1,0.9c0,2.3,1,4.5,0.1,6.9c-0.1,0.3,0.2,0.9,0.4,1.3c0.3,0.9,0.6,1.8,0.8,2.7c0.2,0.9,0.3,1.9,0.7,2.8
	c0.2,0.5,1,1,1.5,1c0.5,0,1.2-0.7,1.4-1.2c0.2-0.7,0-1.5-0.1-2.2c-0.2-1.1-0.4-2.2-0.6-3.5C605,457.1,606.9,456.5,608.9,455.8z
	 M439.3,491.8c-2.1-2.3-3.8-4.2-5.5-6c-1.4-1.5-2.2-1.8-3.1-1.1c-0.8,0.7-0.7,1.7,0.7,3.2c1.6,1.8,3.2,3.6,4.9,5.3
	c1.4,1.5,2,3.1,1.3,5.2c-0.9,2.5-1.5,5.2-2.2,7.8c-0.3,1.2-0.8,2.4-0.9,3.6c-0.1,0.6,0.3,1.5,0.8,1.9c0.8,0.5,1.7,0.1,2.1-0.8
	c0.2-0.3,0.3-0.7,0.4-1.1c2.2-8.7,4.5-17.3,6.7-26c0.5-2.1,0.1-3.2-1.2-3.3c-1.8-0.1-1.8,1.5-2,2.6
	C440.7,485.9,440.1,488.5,439.3,491.8z M499.5,476.8c0.1,0.5,0.1,1.4,0.3,2.3c1,3.9,5.5,6.8,8.8,5.4c2.2-0.9,3.8-2.5,5.1-4.5
	c0.6-0.9,0.6-1.8-0.4-2.5c-0.9-0.6-1.6-0.1-2.2,0.6c-0.8,0.9-1.6,1.9-2.5,2.7c-1.2,1.1-2.6,1.1-3.6,0c-0.9-0.9-1.9-2.1-2.1-3.3
	c-0.3-2.7,0.4-5.4,2.3-7.5c0.7-0.7,1.7-1.4,2.6-1.6c0.6-0.1,1.4,0.7,2.2,0.9c0.6,0.2,1.5,0.3,1.8,0c0.4-0.5,0.8-1.6,0.5-2
	c-0.6-0.9-1.6-1.8-2.5-2.1c-2.3-0.8-4.4,0.1-6.1,1.6C500.7,469.5,499.7,472.8,499.5,476.8z M467,489.9c-0.5-0.6-1-0.9-1.1-1.3
	c-0.6-1.8-1.2-3.7-1.6-5.5c-0.3-1.1-0.4-2.1-1.9-2.1c-1.1,0-1.7,1.1-1.4,2.7c0.4,1.9,0.8,3.8,1.5,5.6c0.4,1.1,1.3,2.2,2.2,3
	c1.7,1.5,3.4,1.2,4.8-0.4c0.5-0.6,1-1.2,1.6-2.1c0.7,1.7,1.2,3,1.8,4.3c0.6,1.3,1.6,1.8,2.4,1.2c1-0.7,1.2-1.6,0.7-2.8
	c-1.3-3.2-2.6-6.4-3.9-9.6c-0.5-1.1-0.5-2.6-2.2-2.7c-1.1,0-1.5,0.9-1.6,3.2C468.4,485.5,468.3,487.7,467,489.9z M459.7,489.4
	c0.1-2.1-1.7-4-3.3-5.8c-0.4-0.4-1.2-0.6-1.9-0.6c-3-0.3-5.6,1.3-6.6,4.1c-0.5,1.6-0.8,3.4-0.8,5.1c0,2.6,1.4,4.3,3.8,5.2
	c2.5,0.9,4.8,0.3,6.5-1.7C458.9,494.1,459.6,492.2,459.7,489.4z M649.2,452c3-1.5,4-2.4,4.8-4.2c0.7-1.7,0.2-3.3-1.2-4.4
	c-1.4-1-3.1-0.9-4.5,0.4c-2,2.1-3,4.7-2.6,7.7c0.4,2.9,2.6,4.8,5.5,5c2.6,0.1,6-2.2,6.4-4.5c0.1-0.5-0.3-1.4-0.7-1.7
	c-0.4-0.3-1.3-0.1-1.8,0.2c-0.6,0.4-1,1.2-1.5,1.7C652.2,453.6,651.4,453.6,649.2,452z M530.1,477.1c1.7-1.8,3-3,4-4.5
	c0.9-1.4,0.4-3.3-0.9-4.5c-1.3-1.2-2.9-1.4-4.3-0.5c-2.2,1.4-2.8,4-3.5,6.1c-0.4,1.1,0.6,3,1.5,4.2c2.2,3.2,6.4,3.2,8.9,0.2
	c0.6-0.8,1.2-1.6,0.4-2.6c-0.8-0.9-1.7-0.6-2.5,0.2c-0.3,0.3-0.7,0.8-1.1,0.9C531.9,476.9,531.2,476.9,530.1,477.1z M582.8,463.7
	c1.2-1.5,2.5-2.6,3.3-4.1c0.8-1.6-0.2-3.7-1.6-4.5c-1.4-0.7-2.8-0.2-4,1.3c-2.1,2.6-2.4,5.5-1,8.2c1.1,2,2.9,2.9,5,2.5
	c1.9-0.4,4.4-2.8,4.4-4.5c0-0.5-0.4-1.4-0.9-1.6c-0.4-0.2-1.3,0-1.8,0.4c-0.6,0.5-0.9,1.3-1.4,1.8
	C584.3,464,583.5,464.6,582.8,463.7z M478.3,480.5c-0.1-0.2-0.3-0.7-0.8-1c-0.5-0.3-1.4-0.7-1.7-0.4c-0.5,0.4-1,1.4-0.9,1.9
	c1.1,3.1,2.2,6.1,3.5,9.1c0.2,0.5,1.3,0.9,1.9,0.8c0.5-0.2,0.9-1.1,1.1-1.7c0.1-0.4-0.1-0.9-0.2-1.4c-0.1-1.2-0.2-2.5-0.1-3.7
	c0.3-2.3,1.1-2.7,3.5-2.6c0.6,0,1.6-0.4,1.8-0.9c0.2-0.5-0.1-1.7-0.5-2c-0.8-0.5-2.1-1-2.9-0.7C481.5,478.5,480,479.6,478.3,480.5z
	 M572,465.2c-1.2-1.9-2.1-3.5-3.1-5c-0.5-0.8-1.2-1.3-2.2-0.8c-1,0.6-1.1,1.5-0.6,2.5c1.2,2.2,2.5,4.4,3.7,6.5
	c0.7,1.1,1.5,2.1,3,1.8c1.3-0.3,1.7-1.4,2-2.6c0.8-2.7,1.6-5.3,2.3-8c0.1-0.6-0.2-1.6-0.7-1.9c-0.5-0.2-1.6,0-1.9,0.5
	c-0.6,0.8-1,1.8-1.4,2.8C572.8,462.2,572.5,463.5,572,465.2z M517.5,472.7c-0.6-0.5-1.1-1.2-1.7-1.5c-0.4-0.2-1.3-0.2-1.6,0
	c-0.4,0.4-0.8,1.2-0.6,1.7c0.9,2.4,1.9,4.8,2.8,7.2c0.4,0.9,1,1.6,2,1.2c0.5-0.2,0.8-1.1,1.1-1.8c0.1-0.3,0-0.8-0.1-1.1
	c-0.1-2.9,1-4.5,3.7-5.5c0.4-0.1,0.9,0,1.1-0.3c0.4-0.4,1-1.1,0.9-1.6c-0.1-0.5-0.7-1.3-1.2-1.4c-0.7-0.2-1.6-0.1-2.2,0.3
	C520.4,470.7,519.1,471.7,517.5,472.7z M562.9,455.5c0-1.7-0.9-2.7-1.9-2.6c-1,0.1-1.6,0.7-1.6,1.7c0,1.1,1,2.3,1.9,2.1
	C562,456.5,562.5,455.8,562.9,455.5z"/>
<path class="st1" d="M595.3,429.2c1.7-5.1,5.4-8.2,8.7-11.6c1-1,1.9-2.2,2.8-3.3c1.6-1.8,3.1-3.7,4.7-5.5c6.1-6.6,12.4-13,17.8-20.2
	c1.9-2.6,1.9-3.1,0.5-6c-1.4-2.9-2.6-5.8-3.6-8.8c-3.6-10.2-7.1-20.4-10.8-30.6c-1.5-4.3-3.5-8.4-5.3-12.5c-0.5-1.3-1-2.7-1.6-4.5
	c1.3,0.3,2.1,0.4,2.9,0.6c11.5,3.7,22.4,8.8,33.3,14.1c3.4,1.6,6.9,3.1,10.2,4.8c2.6,1.4,5.1,3,7.5,4.6c1,0.7,1.7,0.8,2.5-0.1
	c5.3-6,10.5-12.1,16-17.9c4.5-4.7,9.5-9.1,14.2-13.6c2-1.9,3.7-4.2,5.7-6.1c2.1-2.1,4.3-4.1,6.6-6.2c1.4,1.5,1,3.1,1.7,4.5
	c-1.8,1.3-3.4,2.6-5.1,3.7c-1.5,1.1-2.3,2.6-2.7,4.3c-1,4.6,0.5,8.8,2.6,12.7c0.3,0.5,1,0.9,1.6,1c2,0.5,4.1,0.8,6.3,1.3
	c0.3,3.1,0.7,5.9,1,8.8c0.3,3.6,0.5,7.1,0.8,10.7c0.2,1.5-0.3,2.5-1.5,3.5c-3.7,3.1-7.3,6.3-10.9,9.6c-4,3.6-6.9,8-8.2,13.4
	c-0.8,3.1-0.3,5.9,1.1,8.7c0.9,1.8,2.5,2.9,4.5,3.4c3.7,0.9,7.4,0.7,11.2-0.2c3.9-1,7.8-1.8,12.2-2.8c-0.7,1-1.1,1.6-1.6,2.2
	c-2.3,2.9-3.1,6.2-2.9,9.8c0.3,4.4,3.9,8.5,8.3,9.2c1.6,0.2,3.3,0.3,4.9,0.1c3.4-0.5,6.9-1.1,10.3-1.7c4.7-0.9,9.2-2.3,13.3-4.6
	c3.2-1.8,6.6,0.4,6.8,4c0.1,1.7,0.8,3.3,1.2,5.3c-1.4,1.1-3.4,1.2-5.4,1.5c-9.2,1-18.4,1.9-27.6,3c-4.4,0.5-8.8,1.4-13.1,2.3
	c-3.1,0.7-6,2-7.7,5c-0.4,0.7-0.8,1.3-1,2.1c-1.8,8.2-3.9,16.3-5.4,24.6c-1.6,9-3.4,18-5.8,26.9c-0.7,2.7-1.4,5.5-2.1,8.3
	c-0.2,0.1-0.4,0.1-0.6,0.2c-2-2.8-4-5.6-5.9-8.4c-3.1-4.6-6.1-9.4-9.3-14c-4.2-6-8.6-11.9-12.7-18c-1.6-2.3-2.6-4.9-3.8-7.4
	c-1.2-2.5-2.4-5-3.6-7.6c-0.5-1.1-1.4-1.6-2.5-2.1c-3-1.3-6.1-1.4-9.3-1.5c-8.6-0.2-16.9,1.1-25.3,2.7c-7.8,1.5-15.6,0.5-23.4-0.3
	C597,429.9,596.2,429.5,595.3,429.2z"/>
<path class="st1" d="M775.9,576.7c8.4-6.1,16.3-12.1,24.4-17.9c4.9-3.5,10-6.6,14.8-10.1c8.1-5.8,16-11.7,24-17.6
	c2.2-1.6,4.3-3.3,6.5-5c1.2,1.7,2.1,3.4,3.4,4.7c2.2,2.3,4.6,4.4,6.9,6.6c0.8,0.7,1.5,1.5,2,2.4c2.2,4.1,5,7.8,8.6,10.8
	c0.3,0.2,0.5,0.6,0.9,1.1c-0.7,0.7-1.4,1.5-2.2,2.1c-9.7,7.4-19.3,14.9-29.1,22c-10,7.3-20.3,14.1-30.3,21.3
	c-3.6,2.6-7,5.4-10.4,8.2c-1.2,1-2.3,1.2-3.7,0.8c-2.6-0.7-5-1.9-6.3-4.3c-1.6-2.9-2.8-5.9-4-8.9c-1.6-3.9-3.1-7.9-4.5-11.9
	C776.5,579.8,776.2,578.3,775.9,576.7z"/>
<path class="st1" d="M275.8,745.3c-0.9,1.2-1.8,2.3-2.7,3.5c-6.1,8.4-14.9,12.9-24.4,16.2c-8.2,2.9-16.7,2.9-25.2,2.1
	c-2.9-0.3-5.7-1.1-8.2-2.5c-5.7-3.2-11.5-6.4-17.2-9.6c-1.2-0.7-2.5-1.5-3.4-2.6c-3.7-4.5-6.8-9.4-8.5-15c-0.1-0.3-0.1-0.7-0.1-1.7
	c1,1.3,1.6,2.2,2.3,3c3.5,4.1,7.1,8.1,10.7,12.2c1.4,1.5,3.2,2.4,5.1,3.2c3.9,1.5,7.6,3.3,11.4,4.9c5.8,2.5,11.9,3.3,18.1,2.7
	c2-0.2,4-0.3,6.1-0.4c2.1-0.1,4.2-0.2,6-1.7c0.7-0.6,2-0.7,3-0.8c5.8-0.6,10.8-3.2,15.4-6.6c3-2.2,6.3-4,9.5-6.1
	c0.6-0.4,1.2-0.8,1.8-1.3C275.6,745,275.7,745.1,275.8,745.3z"/>
<path class="st1" d="M177.4,698.6c-0.2,5.9-0.5,11.2-0.7,16.9c-1,0.1-2,0.3-3,0.4c-3.4,0.6-6.9,1-10.2,1.8c-2.8,0.6-5.4,0.4-7.8-1.1
	c-0.7-0.4-1.4-1.2-1.5-1.9c-0.3-3.1-0.4-6.1-0.5-9.2c0-1.4,0.7-2.4,2.1-2.7c2.8-0.7,5.5-1.6,8.3-2.2c2.7-0.6,5.5-1,8.3-1.4
	C173.9,698.8,175.4,698.8,177.4,698.6z"/>
<path class="st0" d="M462.7,530.5c-6.3-0.2-9.8-2.7-11.2-7c-1-2.9-0.7-5.7,1.2-8.2c2.1-2.7,4.9-4.3,7.8-5.8
	c5.2-2.7,10.9-3.9,16.5-5.2c10.2-2.4,20.5-4.7,30.7-7.1c12.8-3,25.4-6.5,38.2-9.2c11-2.3,22.3-3.7,33.4-5.7c7.5-1.4,15-2.8,22.3-5.1
	c11.6-3.6,23.6-5.9,35.5-8.3c3.6-0.7,7.3-0.4,10.9,0.6c2.8,0.8,4.8,2.5,6.3,4.8c2,3.1,0.6,7.6-3,10c-5.1,3.5-10.7,5.7-16.5,7.6
	c-7.9,2.6-16,4.3-24.2,5.7c-13.3,2.3-26.6,4.6-39.9,7c-6.1,1.1-12.2,2.1-18.2,3.3c-3.7,0.8-7.2,2-10.9,3c-5,1.4-10.1,2.7-15.1,4
	c-2.1,0.6-4.3,1.1-6.4,1.7c-4.4,1.2-8.7,2.4-13.1,3.5c-8.7,2.2-17.4,4.3-26.1,6.5c-4.6,1.1-9.2,2.2-13.8,3.3
	C465.6,530.2,464.1,530.3,462.7,530.5z M462.1,527.2c1.8-0.2,3-0.2,4.3-0.5c4.2-1,8.5-2,12.7-3c8.6-2.2,17.2-4.3,25.8-6.5
	c4.7-1.2,9.3-2.4,14-3.6c2.1-0.6,4.3-1.2,6.4-1.7c3.8-1,7.8-1.5,11.5-2.9c9.8-3.6,20-5.2,30.1-7.1c11.6-2.1,23.2-4.2,34.7-6.2
	c1.6-0.3,3.2-0.5,4.9-0.7c10.2-1.4,20.2-3.4,29.8-7c4.4-1.6,8.5-4,12.8-6.1c1.7-0.9,2.9-2.5,2.8-4.4c-0.1-2.1-1.7-3.4-3.5-4.3
	c-0.3-0.2-0.7-0.3-1.1-0.4c-3-1-6.1-1.3-9.2-0.7c-7.9,1.5-15.8,2.9-23.5,4.9c-10.4,2.7-20.5,6.1-31.1,7.9c-6.7,1.1-13.3,2.1-20,3.3
	c-6.1,1-12.2,2-18.2,3.3c-12.7,2.5-24.9,6.9-37.7,9.2c-9.7,1.8-19.2,4.3-28.8,6.6c-5.7,1.3-11.6,2.4-16.8,5.3
	c-2.3,1.3-4.7,2.7-6.5,4.6c-2.6,2.8-1.2,7.8,2.4,9.1C459.3,526.8,461,527,462.1,527.2z"/>
<path class="st0" d="M551.3,467.5c-1.3,0.4-2.2,0.8-3.5,1.2c0.5,2.2,1,4.5,1.6,6.7c0.3,1,0.4,2-0.7,2.4c-1.3,0.5-2-0.4-2.4-1.4
	c-0.4-0.9-0.6-1.8-0.9-2.9c-0.7,0.6-1.2,1.2-1.8,1.7c-2.3,1.8-5,1.2-6.1-1.5c-1.1-2.5,0.2-7.7,2.4-9.3c0.5-0.4,1.2-0.7,1.8-0.7
	c1.2-0.1,2.5-0.1,3.6,0.2c0.8,0.2,1.5,1,2.4,1.7c0.9-0.5,1.9-1,3.2-1.7c-0.4-1.8-0.8-3.6-1.3-5.3c-0.2-0.7-0.5-1.3-0.6-1.9
	c-0.2-1,0.2-1.7,1.2-2c1-0.3,1.7,0.3,2,1.2c0.5,1.6,0.9,3.2,1.3,4.7c0.2,0.6,0.4,1.3,0.6,2c0.6-0.1,1.1-0.1,1.5-0.3
	c2.1-1.3,4.4-0.5,6.6-0.4c0.7,0,1.5,1.1,1.8,1.9c0.6,1.6,0.8,3.4,1.3,5c0.3,1.2,0.8,2.3,1.4,3.4c0.5,0.9,0.7,1.8-0.2,2.3
	c-0.6,0.3-1.7,0.2-2.3-0.2c-0.6-0.4-1.1-1.4-1.3-2.1c-0.6-1.8-1-3.7-1.5-5.6c-0.2-0.8-0.4-1.6-0.7-2.6c-2.1,0.7-3.9,1.3-6.1,2.1
	c0.5,2.8,1.1,5.5,1.6,8.2c0.1,0.5,0.5,1,0.4,1.4c-0.1,0.7-0.4,1.6-0.9,1.8c-0.5,0.2-1.6-0.2-1.9-0.7c-0.6-1.1-0.9-2.3-1.2-3.5
	C552,471.3,551.7,469.5,551.3,467.5z M541.7,467.1c-1.1,1.8-2.1,3.6-0.9,5.8C543.6,470.6,543.8,468.8,541.7,467.1z"/>
<path class="st0" d="M636.4,447.9c0.2-0.2,0.4-0.3,0.6-0.5c2.5-2.6,4.1-2.3,5.4,1.2c0.4,1.1,0.7,2.2,1,3.3c0.3,1,0.5,2,1.9,2.3
	c1,0.2,1.4,1.3,0.9,2.1c-0.4,0.6-1.3,1.3-2,1.3c-1.6,0-2.6-1.1-3.1-2.6c-0.5-1.4-1-2.8-1.6-4.9c-0.5,1.2-0.8,1.9-1.1,2.6
	c-0.8,1.8-2.1,1.9-3.2,0.3c-0.6-0.9-1.2-2-2-3.3c-1.7,3-2.2,5.7-1.1,8.6c0.5,1.2,0.3,2.1-0.9,2.5c-1.1,0.4-1.8-0.3-2.2-1.3
	c-0.2-0.6-0.4-1.3-0.5-2c-0.1-0.6-0.1-1.3-0.2-2.1c-3.1,4.2-5.9,5.4-9,4.1c-2.4-1-3.5-3.3-3.1-6.5c0.4-3.1,2.3-5.4,4.5-5.7
	c4-0.4,5.8,0.8,7.5,5.4c0.3-0.9,0.6-1.6,0.8-2.3C630.6,446.1,632.6,445.4,636.4,447.9z M620.6,450.4c-0.5,1.2-1,2.3-1.3,3.3
	c-0.3,1.5,0.4,2.6,1.6,2.9c1.5,0.4,3.2-0.8,3.7-2.4c0.4-1.5-0.1-2.3-1.8-2.9C622.2,451.1,621.6,450.8,620.6,450.4z"/>
<path class="st0" d="M608.9,455.8c-2,0.7-3.9,1.3-6,2.1c0.2,1.2,0.4,2.4,0.6,3.5c0.1,0.7,0.3,1.6,0.1,2.2c-0.2,0.5-0.9,1.1-1.4,1.2
	c-0.5,0-1.3-0.5-1.5-1c-0.4-0.9-0.4-1.9-0.7-2.8c-0.2-0.9-0.5-1.8-0.8-2.7c-0.1-0.5-0.5-1-0.4-1.3c1-2.3-0.1-4.6-0.1-6.9
	c0-0.3-0.1-0.6-0.1-0.9c-0.1-1,0-2,1.3-2.2c1.2-0.2,1.7,0.6,1.9,1.7c0.2,1,0.3,2.1,0.4,3.2c0.1,0.8,0.2,1.5,0.4,2.7
	c2-0.7,3.9-1.3,6-2c-0.2-1.4-0.4-2.7-0.5-4c-0.1-0.7-0.2-1.3-0.2-2c0-1.1,0.4-1.9,1.6-2c1.1,0,1.5,0.7,1.6,1.7
	c0.1,1.1,0.3,2.1,0.4,3.1c0.1,1.3,0.3,2.4,1.5,3.3c0.4,0.3,0.8,1.7,0.5,2c-1.5,1.6-0.7,3.3-0.5,4.9c0.1,0.6,0.3,1.1,0.3,1.7
	c0,1-0.6,1.8-1.6,1.7c-0.6-0.1-1.4-0.7-1.6-1.3c-0.4-1.4-0.5-2.8-0.7-4.3C609.3,456.9,609.1,456.4,608.9,455.8z"/>
<path class="st0" d="M439.3,491.8c0.8-3.3,1.4-5.9,2-8.5c0.3-1.2,0.2-2.7,2-2.6c1.2,0,1.7,1.2,1.2,3.3c-2.2,8.7-4.5,17.3-6.7,26
	c-0.1,0.4-0.2,0.7-0.4,1.1c-0.5,0.9-1.3,1.3-2.1,0.8c-0.5-0.3-0.9-1.3-0.8-1.9c0.1-1.2,0.6-2.4,0.9-3.6c0.7-2.6,1.3-5.2,2.2-7.8
	c0.7-2.1,0.1-3.7-1.3-5.2c-1.6-1.8-3.3-3.5-4.9-5.3c-1.3-1.5-1.5-2.5-0.7-3.2c0.9-0.7,1.7-0.4,3.1,1.1
	C435.5,487.6,437.2,489.5,439.3,491.8z"/>
<path class="st0" d="M499.5,476.8c0.3-4,1.2-7.4,4.1-9.9c1.8-1.5,3.8-2.4,6.1-1.6c1,0.3,1.9,1.2,2.5,2.1c0.3,0.4-0.1,1.5-0.5,2
	c-0.3,0.3-1.2,0.1-1.8,0c-0.8-0.2-1.6-1-2.2-0.9c-1,0.2-2,0.8-2.6,1.6c-1.9,2.1-2.6,4.8-2.3,7.5c0.1,1.2,1.1,2.4,2.1,3.3
	c1.1,1.1,2.5,1.1,3.6,0c0.9-0.9,1.7-1.8,2.5-2.7c0.6-0.7,1.3-1.2,2.2-0.6c1,0.7,1,1.6,0.4,2.5c-1.3,2-2.9,3.7-5.1,4.5
	c-3.3,1.3-7.8-1.5-8.8-5.4C499.5,478.2,499.5,477.4,499.5,476.8z"/>
<path class="st0" d="M467,489.9c1.4-2.3,1.4-4.4,1.5-6.5c0.1-2.3,0.5-3.2,1.6-3.2c1.7,0.1,1.7,1.6,2.2,2.7c1.3,3.2,2.6,6.4,3.9,9.6
	c0.5,1.1,0.3,2.1-0.7,2.8c-0.8,0.6-1.8,0.1-2.4-1.2c-0.6-1.3-1.1-2.6-1.8-4.3c-0.6,0.8-1.1,1.5-1.6,2.1c-1.5,1.6-3.2,1.8-4.8,0.4
	c-0.9-0.8-1.8-1.9-2.2-3c-0.7-1.8-1.2-3.7-1.5-5.6c-0.3-1.6,0.3-2.7,1.4-2.7c1.4-0.1,1.6,1,1.9,2.1c0.4,1.9,1,3.7,1.6,5.5
	C466,489,466.4,489.3,467,489.9z"/>
<path class="st0" d="M459.7,489.4c-0.1,2.8-0.8,4.6-2.2,6.2c-1.7,2-4,2.5-6.5,1.7c-2.4-0.9-3.9-2.6-3.8-5.2c0-1.7,0.3-3.5,0.8-5.1
	c0.9-2.8,3.6-4.4,6.6-4.1c0.6,0.1,1.5,0.2,1.9,0.6C458,485.5,459.8,487.3,459.7,489.4z M450.4,490.5c-0.1,2.6,0.4,3.4,1.9,3.8
	c1.5,0.4,2.6-0.2,3.5-1.8c1-2,0.8-3.8-0.6-5.3c-1.2-1.3-3-1.2-3.8,0.4C450.7,488.6,450.6,489.9,450.4,490.5z"/>
<path class="st0" d="M649.2,452c2.2,1.6,3,1.6,4.4,0.2c0.5-0.5,0.9-1.3,1.5-1.7c0.5-0.3,1.4-0.4,1.8-0.2c0.4,0.3,0.8,1.1,0.7,1.7
	c-0.5,2.3-3.8,4.6-6.4,4.5c-2.9-0.1-5.2-2.1-5.5-5c-0.4-3,0.6-5.5,2.6-7.7c1.3-1.4,3.1-1.5,4.5-0.4c1.4,1,1.9,2.7,1.2,4.4
	C653.3,449.5,652.2,450.5,649.2,452z"/>
<path class="st0" d="M530.1,477.1c1.1-0.2,1.8-0.2,2.5-0.4c0.4-0.1,0.7-0.6,1.1-0.9c0.8-0.8,1.7-1,2.5-0.2c0.9,0.9,0.3,1.8-0.4,2.6
	c-2.5,3-6.8,3-8.9-0.2c-0.8-1.2-1.8-3.1-1.5-4.2c0.7-2.2,1.3-4.7,3.5-6.1c1.3-0.9,3-0.6,4.3,0.5c1.3,1.2,1.8,3,0.9,4.5
	C533.1,474.1,531.7,475.3,530.1,477.1z"/>
<path class="st0" d="M582.8,463.7c0.7,0.9,1.4,0.3,2.1-0.3c0.5-0.5,0.8-1.4,1.4-1.8c0.4-0.3,1.3-0.6,1.8-0.4c0.5,0.2,0.9,1,0.9,1.6
	c0,1.7-2.6,4.1-4.4,4.5c-2.1,0.4-4-0.5-5-2.5c-1.5-2.8-1.1-5.7,1-8.2c1.2-1.5,2.7-2,4-1.3c1.5,0.7,2.5,2.9,1.6,4.5
	C585.3,461.1,584,462.3,582.8,463.7z"/>
<path class="st0" d="M478.3,480.5c1.7-0.9,3.2-2,4.8-2.6c0.8-0.3,2,0.2,2.9,0.7c0.4,0.3,0.8,1.4,0.5,2c-0.2,0.5-1.2,0.9-1.8,0.9
	c-2.4-0.1-3.1,0.3-3.5,2.6c-0.2,1.2,0,2.5,0.1,3.7c0,0.5,0.3,1,0.2,1.4c-0.2,0.7-0.6,1.6-1.1,1.7c-0.5,0.2-1.6-0.3-1.9-0.8
	c-1.3-3-2.5-6.1-3.5-9.1c-0.2-0.5,0.4-1.5,0.9-1.9c0.3-0.2,1.2,0.1,1.7,0.4C478,479.8,478.2,480.4,478.3,480.5z"/>
<path class="st0" d="M572,465.2c0.5-1.7,0.8-3,1.2-4.2c0.4-1,0.7-2,1.4-2.8c0.4-0.4,1.5-0.7,1.9-0.5c0.5,0.2,0.8,1.3,0.7,1.9
	c-0.7,2.7-1.5,5.3-2.3,8c-0.3,1.1-0.7,2.3-2,2.6c-1.5,0.3-2.3-0.7-3-1.8c-1.3-2.1-2.5-4.3-3.7-6.5c-0.5-1-0.5-1.9,0.6-2.5
	c1-0.5,1.7,0,2.2,0.8C569.9,461.7,570.8,463.2,572,465.2z"/>
<path class="st0" d="M517.5,472.7c1.6-1,2.9-2,4.4-2.7c0.6-0.3,1.5-0.4,2.2-0.3c0.5,0.1,1.1,0.9,1.2,1.4c0.1,0.5-0.5,1.1-0.9,1.6
	c-0.2,0.2-0.7,0.1-1.1,0.3c-2.7,1-3.8,2.6-3.7,5.5c0,0.4,0.2,0.8,0.1,1.1c-0.3,0.6-0.6,1.5-1.1,1.8c-0.9,0.4-1.6-0.3-2-1.2
	c-1-2.4-2-4.8-2.8-7.2c-0.2-0.5,0.2-1.3,0.6-1.7c0.3-0.3,1.1-0.3,1.6,0C516.4,471.5,516.9,472.2,517.5,472.7z"/>
<path class="st0" d="M562.9,455.5c-0.4,0.3-0.9,1-1.6,1.1c-0.9,0.2-1.9-1-1.9-2.1c0-1,0.6-1.6,1.6-1.7
	C562,452.8,562.9,453.9,562.9,455.5z"/>
<path class="st0" d="M617.1,562c0.4-1.9,0.6-4,1.4-5.8c0.6-1.5,1.6-3,2.8-3.9c4.8-3.1,10-5,15.9-4.2c6,0.8,9.9,4.4,12.6,9.5
	c1.7,3.2,1.7,6.9,2.1,10.4c0.1,0.5-0.2,1.4-0.5,1.5c-1.8,0.5-2,2.2-2.8,3.4c-3.8,5.7-14.6,9.2-21,6.9c-4.5-1.7-7.7-4.8-9-9.5
	C617.8,567.7,617.6,564.9,617.1,562z M636.1,553.4c-4.1-0.3-7.8,1.4-11.3,3.5c-3.1,1.9-4,4.5-2.7,7.9c0.9,2.2,1.8,4.5,3,6.6
	c2.2,4,5.6,5.4,10,4.5c1.1-0.2,2.2-0.6,3.3-1c4.1-1.2,6-4.2,6.8-8.2c0.4-2.3,0.7-4.6,0.9-6.8c0.1-0.7-0.2-1.5-0.7-2
	C643,555,640.2,553,636.1,553.4z"/>
<path class="st0" d="M372,479.5c-2.6,0-4.5-2.2-4.1-4.8c0.4-2.6,2-4.4,4.2-5.6c1.4-0.8,3-0.4,4.2,0.8c1,1.1,1.5,2.1,0.4,3.5
	c-0.4,0.5-0.2,1.5-0.3,2.2C376,477.9,374.2,479.5,372,479.5z M371.9,473.4c-0.4,1-1.4,1.7-0.2,2.6c0.2,0.2,0.8,0.1,1-0.1
	C373.6,474.8,372.8,474.3,371.9,473.4z"/>
<path class="st0" d="M392.2,471c0,2.4-2.8,4.8-5.6,4.8c-2.2,0-3.9-1.6-3.9-3.8c-0.1-2.8,2.4-5.4,5-5.3
	C390.6,466.7,392.2,468.3,392.2,471z M388.3,471.9c-0.8-0.7-1.6-2-2.2-0.4c-0.1,0.2,0.1,0.5,0.2,1
	C387,472.3,387.7,472.1,388.3,471.9z"/>
<path class="st0" d="M400.4,471.5c-1.2-0.3-2.1-0.4-3-0.8c-1.3-0.6-1.9-1.7-1.7-3c0.4-2.2,1.7-3.7,3.7-4.4c2-0.7,3.9-0.1,5.4,1.2
	c1.6,1.4,1.2,4.6-0.8,5.8C402.9,470.9,401.6,471.1,400.4,471.5z M400.8,467.9c0-0.2,0.1-0.4,0.1-0.5c-0.4-0.1-0.9-0.1-1.4-0.2
	c0,0-0.1,0.3-0.1,0.5C399.9,467.7,400.4,467.8,400.8,467.9z"/>
<path class="st0" d="M277.8,770.8c0.2-2,0.5-4,0.7-6c0.1-0.9,0.4-1.9,1.6-1.6c1.2,0.2,1,1.3,0.9,2.1c-0.2,2.4-0.5,4.8-0.5,7.2
	c0,2.4,0.5,4.8,1.9,6.9c1.6,2.5,3.7,3.1,6.2,1.6c1.9-1.2,3.9-2.6,5.3-4.4c3.6-4.5,6.9-9.3,10.2-14c0.3-0.4,0.3-1,0.7-1.2
	c0.4-0.3,1.1-0.5,1.5-0.3c0.4,0.2,0.6,0.9,0.7,1.4c0,0.4-0.3,0.9-0.6,1.3c-3.4,4.7-6.6,9.5-10.2,14c-1.7,2.1-4,3.9-6.4,5.4
	c-3.9,2.4-7.5,1.2-9.8-2.8C278.3,777.4,277.8,774.2,277.8,770.8z"/>
<path class="st0" d="M291,751.2c-0.6,2.1-1.1,3.8-1.5,5.4c-0.4,1.5-0.6,3-1,4.5c-0.1,0.5-0.3,1.2-0.7,1.5c-0.5,0.4-1.3,0.5-1.9,0.8
	c-0.2-0.6-0.6-1.3-0.5-1.8c0.9-3.6,2-7.2,3.1-10.8c0.1-0.5,0.9-0.7,1.4-1.1C290.4,750.3,290.8,750.8,291,751.2z"/>
<path class="st0" d="M295.9,764.3c-0.3-0.5-0.9-1.1-0.8-1.5c0.8-3.3,1.7-6.5,2.7-9.7c0.1-0.4,1-0.6,1.5-0.9c0.2,0.6,0.7,1.1,0.7,1.6
	c-0.1,0.9-0.5,1.8-0.7,2.8c-0.4,1.9-0.8,3.7-1.1,5.6C298,763.4,297.3,763.9,295.9,764.3z"/>
<path class="st0" d="M238.6,747.8c-6.2,1.3-13.4-0.7-20.2-3.2c-6-2.2-12.1-4.7-16.6-9.7c-3.4-3.7-6.9-7.5-8.3-12.4
	c-0.8-2.8-2.5-5.6-2.1-8.8c0.1-1-0.7-2.1-1.1-3.2c-0.3-0.9-0.8-1.8-0.8-2.7c0.2-2.2,0.2-4.4-0.2-6.7c-0.3-1.3,0.1-2.9,0.6-4.2
	c1.1-3.1,1.6-6.2,2.5-9.3c1.9-6.6,5.6-12.3,9.8-17.6c4.6-5.6,11-8.3,17.8-10.3c4.5-1.4,9.2-2,14-1.7c2.7,0.2,5.4-0.2,8.1-0.3
	c2.2,0,4.4,0.4,6.5,1.3c1.1,0.5,2.4,0.8,3.6,0.7c3.9-0.2,7.2,1.2,9.9,4c1.4,1.4,3.1,2.6,4.6,3.8c5.4,4.5,9.4,10.1,11.9,16.5
	c3.2,8.3,4.4,16.9,2.1,25.8c-1.1,4.3-1.9,8.7-3.1,12.9c-1.1,4-2.8,7.8-5.8,10.9c-6.1,6.3-12.7,11.9-21.8,13.3
	C246.7,747.6,243.3,747.6,238.6,747.8z M275,689c0.4,4.4,1.5,8.6,0.8,12.9c-0.3,1.9-0.9,3.7-1.5,5.5c-0.3,1-0.6,1.9-0.9,2.9
	c-0.1,0.5-0.1,1.2-0.2,1.7c-1.3,4.4-2.4,8.8-3.8,13.1c-0.9,2.8-2.2,5.5-4.6,6.6c-1.1,1.8-1.6,3.4-2.8,4.5c-2.8,2.5-6,4.4-9.6,5.5
	c-0.8,0.2-2,0.1-2.2,1.4c4,0,6.9-1,9.6-2.7c7.8-4.7,11.7-12.2,14.3-20.4c2.2-6.8,2.9-14,3-21.1C277.1,695.5,276.4,692.1,275,689z"/>
<path class="st3" d="M541.7,467.1c2.2,1.7,1.9,3.5-0.9,5.8C539.6,470.7,540.6,468.9,541.7,467.1z"/>
<path class="st3" d="M620.6,450.4c1.1,0.4,1.7,0.7,2.3,0.9c1.7,0.5,2.2,1.3,1.8,2.9c-0.4,1.7-2.2,2.8-3.7,2.4
	c-1.3-0.3-2-1.3-1.6-2.9C619.5,452.6,620.1,451.6,620.6,450.4z"/>
<path class="st3" d="M450.4,490.5c0.2-0.5,0.3-1.8,0.9-2.9c0.8-1.6,2.6-1.7,3.8-0.4c1.5,1.5,1.7,3.3,0.6,5.3c-0.9,1.6-2,2.2-3.5,1.8
	C450.8,493.9,450.3,493,450.4,490.5z"/>
<path class="st1" d="M636.1,553.4c4.1-0.5,6.9,1.6,9.3,4.4c0.4,0.5,0.7,1.4,0.7,2c-0.2,2.3-0.5,4.6-0.9,6.8c-0.7,4-2.6,7-6.8,8.2
	c-1.1,0.3-2.2,0.7-3.3,1c-4.4,0.9-7.8-0.5-10-4.5c-1.2-2.1-2.2-4.3-3-6.6c-1.3-3.4-0.4-6,2.7-7.9C628.3,554.8,632,553.1,636.1,553.4
	z"/>
<path class="st0" d="M475.7,521.6c-2.5-1.4-4.8,0-7.3,1.3c-3,1.5-6.5-1.1-6.7-4.6c-0.2-3.2,3.5-6.6,6.7-6.1c1.9,0.3,3.1,1.7,3.7,3.3
	c0.8,2.1,2.2,2.7,4.2,2.7c1.1,0,2,0.2,2.2,1.4C478.5,520.8,477.6,521.6,475.7,521.6z M467.2,515.5c-1.4,0.6-2.5,1.3-2.3,2.8
	c0.1,0.6,0.8,1.4,1.3,1.6c1.5,0.4,2.4-0.7,3.3-2.1C468.8,516.9,468,516.2,467.2,515.5z"/>
<path class="st0" d="M514.6,147.7c0.4,6.3,1.4,12.3,1.2,18.3c-0.7,17.6-7.7,32.6-20.6,44.7c-7.1,6.6-15.5,9.6-25.2,7.5
	c-5.3-1.2-9.7-4.1-13.5-7.9c-15.9-15.8-15.6-43.7,0.6-59c6.3-6,13.9-9.9,22.3-11.6c6.6-1.4,13.5-1.5,20.3-2.1c0.6-0.1,1.3,0,2.4,0
	c-1.3-2.4-2.4-4.5-3.6-6.5c-13-21.9-32.6-33.1-57.7-35.3c-14.8-1.3-29.2,1.1-43.1,6.4c-20.2,7.7-38.5,18.5-54.7,32.7
	c-6.1,5.4-11.4,11.5-15.1,18.8c-0.7,1.5-1.2,3.2-1.5,4.9c-0.4,2.1-1.5,3.4-3.6,3.5c-2.1,0.1-3.8-0.9-4.1-2.9
	c-0.2-1.8,0.1-3.9,0.8-5.5c4.1-10,10.9-18.2,19.1-25.1c22.4-19,47.3-33.4,76.6-39c16.3-3.1,32.6-2.4,48.4,3.2
	c21.8,7.7,36.6,22.8,46.1,43.5c0.8,1.8,1.8,2.8,3.9,3.3c11.2,2.8,21.1,8.3,30.3,15c19.6,14.3,35.1,32.5,48.4,52.7
	c0.5,0.8,1.1,1.6,1.6,2.4c0.1,0.1,0.3,0.2,0.9,0.6c-0.5-4.7-0.9-9.1-1.3-13.5c-0.3-3.9-0.6-7.9-0.8-11.8c-0.1-3,1.3-4.7,3.8-4.8
	c2.2-0.1,3.5,1.6,3.8,4.5c1.4,13.9,2.8,27.8,4.2,41.7c0.1,1.4,0.3,2.9,0.3,4.3c0,4.7-3.4,7-7.6,4.9c-4.5-2.2-9-4.5-13.1-7.2
	c-8.2-5.3-16-11.1-24.2-16.3c-3.3-2.1-7.3-3.3-10.8-5.2c-1.2-0.7-2.4-2.2-2.7-3.6c-0.4-1.9,1-3.5,2.9-3.6c2-0.1,4.4,0.1,6.1,1.1
	c6.2,3.6,12.3,7.5,18.4,11.5c6.7,4.4,13.4,9,20.7,14c-0.2-1.3-0.2-1.6-0.4-1.9c-12.2-19.9-25.6-38.9-43.4-54.5
	c-9.9-8.7-20.4-16.4-32.9-21C516.6,148.4,515.5,148.1,514.6,147.7z M508.7,161.9c-0.7-3.6-1.6-8.9-2.8-14.1
	c-0.2-0.9-1.4-2.1-2.3-2.2c-11-1.5-21.7-0.2-31.8,4.8c-20.4,10-26,33.7-12.4,51.9c7.8,10.5,19.4,12.2,29.4,3.8
	C502,195.1,507.5,180.4,508.7,161.9z"/>
<g>
	<path class="st0" d="M753.9,790c0,6.7,0.3,13.5-0.1,20.2c-0.2,4.7-1.3,9.3-2,14c-0.5,2.9-2.1,4.3-4.4,3.9c-2.4-0.4-3.4-2.2-3-5.3
		c0.8-6.3,1.9-12.6,2.3-18.9c0.3-4.8-0.3-9.7-0.6-14.5c-0.2,0-0.5,0-0.7-0.1c-0.4,0.6-0.8,1.2-1.1,1.9c-6.3,13-14.7,24.6-24.1,35.5
		c-1.5,1.7-3.2,2.1-5.1,0.9c-1.8-1.1-2.3-3.6-0.9-5.6c0.9-1.3,2-2.3,3-3.5c11.5-13.8,20.6-29,27-45.8c0.5-1.5,2.1-3,3.5-3.5
		c2-0.7,3.4,1,4.5,2.8c8.9,14.9,18,29.6,30.4,42c2.4,2.4,2.5,4.9,0.5,6.5c-1.8,1.4-3.7,1-5.8-1.1c-8.2-8-14.9-17.1-21.1-26.7
		c-0.6-0.9-1.2-1.9-1.9-2.8C754.2,789.8,754,789.9,753.9,790z"/>
	<path class="st0" d="M726.4,882.8c-1.3-0.9-2.8-1.4-3.2-2.4c-0.5-1.1-0.5-3.1,0.2-4c4.7-5.9,6.6-12.9,9.4-19.7
		c1.4-3.5,2.9-6.9,4.6-10.2c0.8-1.7,2.4-2.5,4.3-1.9c2,0.6,2.9,2,2.7,3.9c-0.1,1.2-0.6,2.4-1.1,3.6c-2.8,6.7-5.6,13.5-8.6,20.1
		c-1.3,2.9-3.2,5.6-5.1,8.3C728.9,881.4,727.7,881.9,726.4,882.8z"/>
	<path class="st0" d="M716.6,903.4c-0.6,0.6-1.7,1.7-2.8,2.6c-0.7,0.6-1.8,0.6-2.5,1.2c-4.2,3.7-8.2,7.5-12.4,11.1
		c-2.6,2.3-5.5,4.2-8.2,6.3c-1.9,1.5-3.8,1.4-5.4-0.4c-1.6-1.9-1.2-3.9,0.6-5.3c3.5-2.9,7.2-5.5,10.7-8.4c3.1-2.6,6-5.3,8.8-8.2
		c2-2.1,4.1-3.7,7.2-3.7C715,898.7,716.7,900.3,716.6,903.4z"/>
	<path class="st0" d="M674.1,935.8c-0.5,0.5-1.4,1.9-2.6,2.4c-5.4,2.1-10.8,3.9-16.2,5.7c-4.1,1.3-8.3,2.5-12.4,3.6
		c-2.3,0.6-4.3,0-5.1-2.5c-0.7-2,0.5-4,3-4.8c9.1-3.1,18.1-6.2,27.2-9.3C671.1,929.9,674.2,931.8,674.1,935.8z"/>
	<path class="st0" d="M613.9,944c2,0.8,4.1,1.3,6,2.4c1.7,1,1.8,2.9,0.9,4.6c-1,1.8-2.5,2.1-4.4,1.8c-1.8-0.3-3.8-0.5-5.6-0.3
		c-7.3,0.7-14.5,1.6-21.8,2.4c-0.8,0.1-1.7,0.1-2.6-0.1c-2-0.4-3.1-1.7-3-3.7c0.1-1.9,1.1-3.4,3.1-3.6c9.1-1,18.2-1.9,27.3-2.9
		C613.8,944.4,613.9,944.2,613.9,944z"/>
</g>
<g>
	<path class="st0" d="M1154.9,379c-6.6,1.5-13.2,2.8-19.6,4.5c-4.5,1.2-8.9,3.1-13.3,4.7c-2.7,1-3.8,2.6-3,4.3
		c0.8,1.8,2.8,2.2,5.7,1.2c6-2,11.9-4.3,18-6c4.6-1.3,9.5-1.9,14.3-2.8c0.1,0.2,0.1,0.4,0.2,0.6c-0.5,0.4-1.1,0.9-1.6,1.3
		c-11.6,7.8-21.4,17.1-30.3,26.9c-1.4,1.5-1.5,3,0,4.3c1.4,1.2,3.9,1,5.6-0.5c1.1-1,1.9-2.1,2.9-3.2c11.4-12.1,24.6-22.7,39.9-31.4
		c1.3-0.8,2.6-2.3,2.8-3.6c0.3-1.8-1.6-2.5-3.5-2.9c-16.1-3.8-32.1-7.7-46.4-14.8c-2.7-1.4-5.3-0.9-6.4,1c-1.1,1.7-0.3,3.1,2.1,4.4
		c9.2,4.7,19.4,8,29.8,10.8c1,0.3,2,0.6,3,0.9C1155,378.7,1155,378.9,1154.9,379z"/>
	<path class="st0" d="M1069.3,421.2c1.1,0.8,1.9,1.9,2.9,2c1.2,0.1,3.1-0.3,3.8-1c4.9-5,11.4-8.1,17.5-11.8c3.1-1.9,6.2-3.8,9.2-5.9
		c1.5-1,2-2.4,1.1-3.8c-0.9-1.4-2.4-1.8-4.3-1.3c-1.2,0.4-2.3,1-3.3,1.6c-6.1,3.7-12.2,7.4-18.1,11.2c-2.6,1.7-4.9,3.8-7.2,5.9
		C1070.2,418.9,1070,420,1069.3,421.2z"/>
	<path class="st0" d="M1050.9,433.5c-0.4,0.6-1.3,1.7-2,2.8c-0.4,0.7-0.3,1.6-0.8,2.2c-2.8,4.1-5.9,8.1-8.6,12.3
		c-1.7,2.6-3.2,5.3-4.7,7.9c-1.1,1.8-0.7,3.3,1.3,4.2c2.1,0.9,4,0.1,5.1-1.6c2.2-3.4,4-6.9,6.3-10.3c2-3,4.1-5.9,6.4-8.8
		c1.7-2.1,2.9-4.1,2.4-6.5C1055.9,433.8,1054,432.7,1050.9,433.5z"/>
	<path class="st0" d="M1027,474.3c-0.4,0.5-1.6,1.5-1.9,2.6c-1.1,4.7-1.9,9.4-2.7,14.1c-0.6,3.5-1,7.1-1.3,10.6
		c-0.2,1.9,0.8,3.4,3.3,3.5c2.1,0.1,3.8-1.3,4.2-3.4c1.4-7.9,2.8-15.7,4.2-23.6C1033.3,475.4,1030.9,473.4,1027,474.3z"/>
	<path class="st0" d="M1029.7,523.7c-1.1-1.4-2-3-3.4-4.2c-1.3-1.1-3.1-0.8-4.7,0.3c-1.6,1.1-1.6,2.5-0.9,3.9
		c0.6,1.4,1.2,2.9,1.3,4.4c0.6,5.9,1,11.8,1.6,17.8c0.1,0.7,0.3,1.4,0.6,2c0.7,1.5,2.2,2,4.1,1.6c1.9-0.5,3.1-1.6,2.9-3.2
		c-0.6-7.4-1.4-14.8-2-22.2C1029.4,523.9,1029.6,523.8,1029.7,523.7z"/>
</g>
</svg>
