<?xml version="1.0" encoding="UTF-8"?>
<svg id="Layer_1" data-name="Layer 1" xmlns="http://www.w3.org/2000/svg" viewBox="0 0 44.36 75.93">
  <defs>
    <style>
      .cls-1 {
        fill: #fff;
        stroke-width: 0px;
      }
    </style>
  </defs>
  <path class="cls-1" d="m34.32,33.58l-.34-.08c.17-.4,1.02-2.09,3.12-1.57,1.99.49,1.99,2.2,1.94,2.74-.17,0-.32.07-.42.19.14,0,.26,0,.34,0,.05,0,.1,0,.15,0,0,0,0,0,0,0,0,0,0,0,0,0,.18.05.29.24.25.42-.01.05-.03.09-.06.13l.02.1c.01.06-.02.12-.07.14,0,0-.07.03-.18.08.22-.02.42-.17.48-.4.05-.21-.03-.42-.19-.55l1.31-2.43c.09.02.18,0,.27-.04.17-.1.22-.32.12-.48-.1-.17-.31-.22-.48-.12-.17.1-.22.31-.12.48.01.02.03.04.05.06l-1.28,2.37c.04-.64-.05-2.38-2.08-2.88-2.26-.56-3.19,1.34-3.35,1.71l-.34-.09-.21.87.87.21.21-.87Zm-.73.01l.5.12-.12.5-.5-.12.12-.5Zm3.9,5.08c-.17.1-.38.05-.48-.12-.1-.17-.05-.38.12-.48.08-.05.17-.06.26-.04l1.09-2.02c.1-.05.2-.1.29-.14l-1.21,2.25s.04.04.06.07c.1.17.05.38-.12.48m1.71-3.14s-2.02.89-2.51,1.5c-.45.03-.77.05-.77.05,0,0-.42-.37-.93-.31-.05,0-.09.01-.13.02v.05s-.14.03-.14.03l.03.12-1.19.41-.19-.9-.19-.9,1.26-.12.03.12.15-.03v.05c.05-.01.09-.02.14-.04.49-.15.72-.66.72-.66,0,0,.3-.11.72-.28.7.35,2.91.34,2.91.34l.05.22-2.2.49c-.16-.44-.91-.27-.87.22.17.47.91.31.88-.15l2.21-.45.05.22Z"/>
  <path class="cls-1" d="m34.33,20.11l.95,1.52-1.52.95-.95-1.52,1.52-.95Zm-3.22-1.78l1.52-.95-.95-1.52-1.52.95.95,1.52Zm2.31,1.64l-.3-.07-.64.4-.83-1.34,1.34-.83.29.47s.04,0,.06,0l.24.06-.52-.84-1.71,1.07,1.07,1.71,1.02-.63Zm4.02-.54c.02-.08.1-.13.18-.11l.07.02c.08.02.13.1.11.18l-.04.18,1.68.39c.32.07.52.4.44.72-.08.33-.4.53-.71.45l-1.68-.39-.04.18c-.02.08-.1.13-.18.11l-.07-.02c-.08-.02-.13-.1-.11-.18l.03-.13-.12-.03.03-.12-3.85-.89s-.08-.02-.11-.03c-.2-.05-.25-.3-.56-.52l.07-.29c.36-.06.52-.27.73-.22.03,0,.11.03.11.03l3.85.89.03-.12.12.03.03-.13Zm.45,1.28l-.03.12s.71.16,1.27.29c.17.04.31-.02.41-.07-.18,0-.15,0-.66-.12-.5-.12-.99-.23-.99-.23m-.61-.31s-.12.52-.13.56c-.01.04.02.09.11.1.09.02.12-.02.12-.02-.08,0-.15-.04-.14-.08,0-.04.04-.56.04-.56m-3.95-.81c-.44-.1-.55-.31-.73-.39,0,0,.32.44.66.52.21.05,1.17.27,1.98.46.8.19,1.69.39,1.69.39l.03-.12s-3.19-.75-3.62-.85"/>
  <path class="cls-1" d="m14.44,16.46c.18-.08.27-.29.19-.47-.08-.18-.28-.27-.47-.19-.18.08-.27.29-.19.47.08.18.28.27.47.19m-.25-.6c.15-.06.32,0,.39.16.06.15,0,.33-.16.39s-.32,0-.39-.16c-.06-.15,0-.33.16-.39m1.83,2.42l-1.37.58-.26-.6,1.37-.58.25.6Zm-2.16-3.19c-.26.11-.46.3-.58.55l-.32-.77,1.37-.58.32.77c-.26-.08-.54-.08-.79.03m.88,2.08c.26-.11.46-.3.58-.55l.32.77-1.37.58-.32-.77c.26.08.54.08.79-.03m-.53-3.16l-1.37.58-.25-.6,1.37-.58.26.6Zm6.26-3.77l-1.45.61-.11.28,1.65-.7c.05-.02.11,0,.13.05l2.11,4.99c.02.05,0,.11-.05.13l-6.37,2.7-2.19-5.17,3.48-1.47.11-.28-5.32,2.25c-.16.07-.24.25-.17.41l2.11,4.99c.07.16.25.24.41.17l8.01-3.39c.16-.07.23-.25.17-.41l-2.11-4.99c-.07-.16-.25-.24-.41-.17m-4.31,8.1l-1.57.66-.34-.8,1.57-.67.34.8Zm-.37-.88l-1.57.67-.48-1.13c.28.18.64.23.96.09.33-.14.55-.43.61-.75l.48,1.13Zm-2.24-.99c-.18-.42.02-.91.44-1.08.42-.18.91.02,1.08.44.18.42-.02.9-.44,1.08-.42.18-.91-.02-1.08-.44m1.32-1.18c-.28-.18-.63-.23-.96-.09-.33.14-.55.43-.61.75l-.48-1.13,1.57-.66.48,1.13Zm-.51-1.21l-1.57.66-.34-.8,1.57-.66.34.8Zm2.21,1.07s-.02.1,0,.15.06.08.11.11c.05.02.1.02.15,0s.08-.06.1-.11l.02-.06.23-.14s.03-.02.04-.04l.27-.41s0-.01.01-.02l1.35-3.32,1.62-.69s.1,0,.12.05l2.02,4.77s0,.1-.05.12l-6.1,2.58-2.1-4.95,3.23-1.37-.99,2.44s0,.01,0,.02l-.09.48s0,.04,0,.06l.07.26-.02.06Zm.08-.35l.08.3-.04.1s0,.08.04.09h0s.08,0,.09-.04l.04-.1.27-.17.27-.41,2.17-5.36-.06-.02.1-.24c.04-.11,0-.23-.12-.27l-.14-.06c-.11-.04-.23,0-.27.12l-.1.24-.06-.02-2.17,5.36-.09.48Zm.92-2.53l.65.26-.03.08-.65-.26.03-.08Zm-.09.73c.03-.08.12-.12.2-.08h0c.08.03.11.12.08.2l-.31.77-.28-.12.31-.77Zm-.49,1.21l.14-.35.28.12-.14.35c-.03.08-.12.11-.2.08h0c-.08-.03-.11-.12-.08-.2"/>
  <path class="cls-1" d="m22.78,32.64v.22h.81v.12h-.81s0,1.01,0,1.01h.81s0,.12,0,.12h-.81s0,1.01,0,1.01h.81s0,.12,0,.12h-.81s0,1.01,0,1.01h.81s0,.12,0,.12h-.81s0,1.01,0,1.01h.81s0,.12,0,.12h-.81s0,1.01,0,1.01h.81s0,.12,0,.12h-.81s0,1.01,0,1.01h.81s0,.12,0,.12h-.81s0,1.01,0,1.01h.81s0,.12,0,.12h-.81s0,1.01,0,1.01h.81s0,.12,0,.12h-.81s0,1.01,0,1.01h.81s0,.12,0,.12h-.81s0,1.01,0,1.01h.81s0,.12,0,.12h-.81s0,.22,0,.22h1.99s.05-11.83.05-11.83h-1.99Zm1.24,11.17c0,.38-.59.38-.59,0,0-.38.59-.38.59,0"/>
  <path class="cls-1" d="m9.82,30.52c.08-.02.11-.12.05-.17L.67,21.13c-.07-.07-.2,0-.17.1l.58,2.44-.02-.07.64-.15.03.11-.64.15.24,1-.02-.09.64-.15.02.1-.64.15,1.22,5.09-.02-.09.64-.15.03.1-.64.15.24,1-.02-.09.64-.15.03.1-.64.15.28,1.18c.01.06.07.09.12.08l6.61-1.59ZM.57,21.56l.41-.1.09.09-.48.11-.02-.1Zm.24,1.02l.64-.15.02.1-.64.15-.03-.11Zm.73,3.06l.64-.15.02.1-.64.15-.02-.1Zm.25,1.02l.64-.15.03.1-.64.15-.02-.1Zm.24,1.02l.64-.15.03.11-.64.15-.03-.11Zm.24,1.02l.64-.15.02.1-.64.15-.03-.11Zm1.78,1.55l-1.07-4.46c-.05-.21.21-.35.36-.2l3.8,3.8c.12.12.06.32-.1.36l-2.73.65c-.12.03-.23-.04-.26-.16m3.68,0c-.11-.44.57-.6.68-.16.1.44-.57.6-.68.16m-4.72,1.51l.64-.15.02.11-.64.15-.02-.11Z"/>
  <path class="cls-1" d="m8.31,23.41l.41-.67.02-.02c.16-.13.17-.37.04-.53l-5.46-6.29.75.81.23.14-.04.07.19.21.08-.13,1.62.98-.36.6.19.21.4-.67,1.62.98-.68,1.13.19.21.73-1.2,1.62.98-1.01,1.66.25.27,1.02-1.69c.1-.14.1-.32,0-.43-.02-.02-.09-.07-.13-.1-.14-.08-6.66-4.03-6.66-4.03l.78.47h0s-.72-.46-.72-.46l.73.4h0s1.81.55,1.81.55l-.12.38.24.13.13-.43,1.81.55-.25.81.24.13.26-.86,1.81.55-.38,1.24.31.17.1-.33.28-.91c.06-.2-.05-.41-.25-.47l-5.94-1.81h.04s-1.13-.37-1.13-.37l1.47.39,1.03.06v.21s.25.07.25.07l.02-.27,1.89.1-.04.65.27.07.04-.71,1.89.1-.06,1.1.34.09.06-1.1c.01-.21-.15-.38-.35-.39l-6.94-.39-.16-.05.23.14-.23-.14c-.05-.03-.12-.05-.18-.05l-.52-.16c-.18-.05-.36.03-.44.19h-.14c-.21-.02-.38.14-.39.34l-.08,1.38-.92.8c-.16.13-.17.37-.04.53l5.5,6.34c.13.16.37.17.53.04l1.67-1.45c.18.11.41.05.51-.13m-6.02-7.7l-.51.84.27-.87.22.07.02-.03Zm-1.13,1.49l.38-1.24v-.1s.03,0,.03,0l.07-.24-.48,1.57Zm.5.76c-.18-.21-.16-.52.05-.7.21-.18.52-.16.7.05.18.21.16.52-.05.7-.21.18-.52.16-.7-.05"/>
  <path class="cls-1" d="m13.66,31.33l-.32-.7.38-.17.56.59-.63.28Zm-1.04,1.15l-.83-1.84c1.34.04,1.37-.14,1.44,0l.34.75c.07.15-.1.05-.94,1.08m.59-1.02c-.11.18-.51.58-.57.76,0,0,.3-.35.52-.54.22-.19.34-.23.28-.36-.06-.13-.14-.31-.14-.31,0,0,.02.26-.09.44m-8.5,2.33l.86,1.91c.1.12.26.17.41.13l-1.1-2.44c-.13.08-.2.24-.17.39m-.13.06c-.15.07-.22.25-.15.4l.61,1.36c.07.15.25.22.4.15h.02s-.86-1.92-.86-1.92h-.02Zm.36-.49l5.73-2.59,1.11,2.45-5.74,2.59-1.11-2.45Zm6.49-.72l-5.42,2.7.09.21,5.51-2.49-.19-.42Zm.34.35l.2-.09-.19-.42-.2.09.19.42Zm.34.07l-1.11-2.45.16-.07c.17-.07.36-.02.46.11l.05-.02.86,1.91-.05.02c.03.17-.06.35-.22.42l-.16.07Zm.06-.25c.15-.07.21-.24.14-.38l-.74-1.64s.43,1.07.52,1.44c.1.41,0,.62,0,.62l.08-.04Z"/>
  <path class="cls-1" d="m32.99,30.87l.09.12-5.62,4.14-.55.24c-.01-.07-.04-.14-.09-.21-.05-.07-.12-.12-.18-.16l.39-.46,5.61-4.14.09.12-5.57,4.11-.4.4.36-.31.07-.05,5.58-4.12.18.24-5.58,4.12-.46.32.45-.22.06-.04,5.57-4.11Zm-6.2,4.43s-.02-.06-.04-.09c-.02-.03-.06-.07-.09-.08,0-.01,0-.03,0-.04-.03,0-.05-.02-.08-.04l-.42.42s.07.04.1.08c.03.04.04.08.05.12l.51-.27s-.01-.07-.01-.1c-.01,0-.02-.01-.03-.02m-.69.25l-.18.21s0,.09.06.08l.26-.11s-.02-.07-.04-.1c-.03-.03-.06-.06-.09-.07m8.25-5.5c.07-.05.08-.14.03-.2l-.26-.35c-.05-.06-.14-.08-.21-.03l-.28.21.43.59.28-.21Zm-1.08.13l.33.45.04-.03-.33-.45-.04.03Zm-.07.05l.33.45.04-.03-.33-.45-.04.03Zm-.02-.11l-.07-.1-.04.03.07.1.04-.03Zm.07-.05l-.07-.1-.04.03.07.1.04-.03Zm.3-.37l-.34.25.07.1.32-.24.06.08-.32.24.33.45.34-.25-.47-.63Zm-.7.79l-.06-.08.32-.24-.07-.1-.34.25.47.63.34-.25-.33-.45-.32.23Z"/>
  <path class="cls-1" d="m40.6,26.47l.44.26.57-2.07c.13,0,.25-.05.32-.17.09-.15.05-.34-.08-.44l.63-.38-.93,3.36.43.26-.06.1-.41-.24-.56,2.02c-.06-.08-.14-.15-.25-.18-.1-.03-.21-.02-.3.03l.6-2.17-.47-.28.06-.1Zm2.19-4.43l.29.17.08-.14-.29-.17-.08.14Zm-6.81,7.4l.96-.76-.19-.17-.77.94Zm1.41-1.43c-.08-.08-.12-.18-.12-.28l-.3.3-.2.32.31.31.29-.22.3-.3c-.1,0-.2-.05-.27-.13m.59-.03c-.15.15-.4.15-.56,0-.15-.15-.15-.4,0-.56.16-.15.4-.15.56,0,.15.16.15.4,0,.56m-.07-.48c-.11-.12-.3-.12-.41,0-.12.11-.12.3,0,.41.11.12.3.12.41,0,.11-.11.12-.3,0-.41m2.24,3.68l-.14-.03-.09.45s.06.07.08.02l.15-.44Zm.22-.56l-.27-.07-.11.5.21.06.16-.48Zm.97-6.46c.09-.15.27-.21.43-.14l.03-.73h0s-2.49,2.44-2.49,2.44l-.45-.26-.06.1.42.25-1.49,1.46c.1,0,.2.05.28.13.08.08.12.18.12.28l1.6-1.57.46.27.06-.1-.43-.25,1.53-1.5c-.07-.11-.08-.25,0-.36m-.06-.51l.17-.17c-.09-.25-.07-.53.08-.78.26-.44.82-.59,1.26-.33.44.26.59.83.33,1.26-.14.24-.38.4-.64.44l-.06.23c.36-.03.7-.22.9-.56.32-.54.14-1.24-.4-1.56-.54-.32-1.24-.14-1.56.4-.2.33-.2.73-.05,1.05m-.61,6.57l.11-.41c-.09.04-.2.06-.3.03-.11-.03-.19-.1-.25-.18l-.11.41-.06.36.42.12.18-.33Zm-.45-.91c.06-.21.27-.33.48-.28.21.06.33.28.28.49s-.28.33-.49.27c-.21-.06-.33-.27-.27-.48m.3.39c.16.04.32-.05.36-.2.04-.16-.05-.32-.2-.36-.15-.04-.32.05-.36.2-.04.15.05.32.2.36m1.26-5.6c.13.08.17.24.1.37-.08.13-.24.17-.37.1-.13-.08-.17-.24-.1-.37.08-.13.24-.17.37-.1m-.28.15c-.05.08-.02.18.06.23.08.05.18.02.23-.06.05-.08.02-.18-.06-.23-.08-.05-.18-.02-.23.06m1.75-2.19l.57-.97-.3-.18-.1-.06-.57.97.1.06.3.18Zm-3.19,4.75l.19.11.5-.85-.19-.11-.5.85Z"/>
  <path class="cls-1" d="m14.71,34.45l1.04.4-.45.54h0s-.43-.74-.43-.74l-.15-.21Zm.39,1.03l-.54-.94-.35-.48h0s.51.26.51.26l1.02.39s0-.01,0-.02c0-.14.12-.27.31-.36l.57-.26-2.85-.97-.31.37,1.18,2.2.45-.2Zm.84-.49s-.06-.04-.08-.06l-.29.34.49-.22-.11-.06Zm1.46-1.25s.01,0,.02,0c-.03-.13-.02-.27.01-.42.02-.08.05-.16.08-.25-.06,0-.12-.02-.18-.03h0s-.03.03-.04.04c-.02,0-.04.01-.07.01-.07,0-.14-.02-.22-.04-.07-.02-.15-.04-.24-.07-.08-.03-.16-.06-.24-.1-.08-.04-.15-.08-.22-.12-.04-.03-.06-.07-.06-.12,0-.04,0-.07.02-.11l-.44.2c-.26.12-.38.43-.26.69l.1.21,1.14.39.59-.26Zm2.32-1.92c.07.06.14.11.19.15.03.02.06.05.09.07h.01s-.14-.31-.14-.31l-.11-.25c-.12-.26-.43-.38-.69-.26h0c.06.06.12.11.17.16.15.14.31.28.48.43m.48,1.46c-.06-.02-.12-.04-.17-.07l-.03.04s-.03.03-.04.03c-.03.01-.06.01-.09,0-.05-.01-.09-.03-.13-.05.02.08.03.16.03.25,0,.1-.02.21-.06.32-.04.11-.1.22-.19.32-.06.06-.11.12-.17.17l2.1,1.21c.06.04.1.08.13.11,0-.09,0-.19-.04-.28l-1.09-2.38c-.03.05-.06.1-.09.15l-.14.17Zm-6.29,1.28c-.11.16-.14.37-.05.56l.36.77.33-.15-.63-1.18Zm4.25-2.54c-.1-.1-.2-.18-.28-.24l-.54.25s-.02.05-.03.08l.36.65s.02-.04.04-.07c.12-.2.27-.42.46-.68m2.36.03c-.01.06-.04.13-.08.21-.04.08-.08.17-.12.26-.04.09-.09.18-.14.26-.05.08-.1.16-.14.22l-.14.17c-.1-.03-.2-.07-.28-.13-.08-.06-.18-.13-.29-.22l-.02.02c.05.07.09.16.12.25.03.09.04.19.04.29,0,.1-.03.21-.07.32-.04.11-.1.22-.19.32-.04.05-.09.09-.13.13l-.72-.41c-.2-.12-.54-.13-.83-.05-.02-.11-.01-.22.02-.35.04-.17.13-.37.26-.58.13-.22.31-.47.52-.75-.26-.27-.48-.43-.66-.49-.17-.06-.33-.01-.47.16-.09.1-.15.21-.19.33l.4.74-.18.22c-.06,0-.13-.02-.2-.04-.07-.02-.15-.04-.22-.07-.08-.03-.15-.06-.22-.09-.07-.03-.14-.07-.2-.11.02-.2.09-.42.21-.66.12-.24.27-.48.46-.7.16-.19.31-.33.45-.41.14-.09.28-.13.41-.14.13,0,.25.01.37.07.12.06.23.13.34.22.2.17.38.32.53.47.15.14.32.29.49.43.07.06.14.11.19.16.06.04.11.09.18.13l.34-.3.18.15Zm-1.38.72c-.03-.05-.06-.1-.08-.14l-.5-.42c-.13.16-.23.3-.29.41-.07.11-.11.22-.11.3,0,.09,0,.17.05.24.04.07.1.14.19.21.13.11.25.16.37.16.12,0,.23-.06.32-.16.06-.07.1-.14.11-.21.01-.07.02-.14.01-.21,0-.07-.02-.13-.05-.18m-.42-.26c-.06.08-.11.16-.15.22-.07.11-.11.22-.11.3-.01.09,0,.17.05.24.01.02.02.03.03.05.08.05.15.08.22.08.04,0,.07,0,.1-.02.04-.02.08-.05.12-.1.05-.05.07-.11.08-.16.01-.06.02-.12.01-.17,0-.05-.02-.1-.04-.14-.02-.04-.04-.08-.06-.11l-.25-.21Zm.19,1.7l-.29-.16-.33-.19c-.2-.12-.58-.11-.85,0l-1.33.6c-.27.12-.32.31-.12.42l.33.19-3.56,1.61c-.29.13-.34.34-.12.46l2.45,1.35c.22.12.61.11.88-.01l5.26-2.41c.27-.12.32-.32.12-.44l-2.47-1.42Z"/>
  <path class="cls-1" d="m28.57,20.93l-1.56.69-.3,1.68c-.04.24-.34.33-.51.15l-1.14-1.26-1.69.23c-.24.03-.42-.23-.29-.44l.85-1.47-.74-1.53c-.11-.22.09-.47.32-.41l1.67.35,1.23-1.18c.18-.17.47-.06.49.18l.18,1.69,1.5.8c.22.12.2.43-.02.53m.91-2.7l-2.25-.82-.07.18,2.25.82.07-.18Zm-6.91,1.24l-.77,2.11.18.07.77-2.11-.18-.07Zm7.01-.67l-.77,2.11.18.07.77-2.11-.18-.07Zm-3.1-1.66l-2.26-.82-.07.18,2.26.82.06-.18Zm2.06,4.51l-.77,2.11.18.07.77-2.11-.18-.07Zm-3.46,1.65l2.25.82.07-.18-2.25-.82-.07.18Zm-3-1.09l2.26.82.07-.18-2.26-.82-.07.18Zm.94-3.41l.77-2.11-.18-.07-.77,2.11.18.07Zm4.14-1.58l-.5-.18-.18.5.5.18.18-.5Zm1.27,4.26l.5.18.18-.5-.5-.18-.18.5Zm1.22-3.35l-.18.5.5.18.18-.5-.5-.18Zm-5.49-2l-.5-.18-.18.5.5.18.18-.5Zm3.23,8.2l.5.18.18-.5-.5-.18-.18.5Zm-2.99-1.09l.5.18.18-.5-.5-.18-.18.5Zm-3-1.09l.5.18.18-.5-.5-.18-.18.5Zm1.04-2.85l.5.18.18-.5-.5-.18-.18.5Z"/>
  <path class="cls-1" d="m23.92,25.37c-1.19-1.31-3.22-1.42-4.53-.23-1.31,1.19-1.42,3.22-.23,4.53,1.19,1.31,3.21,1.42,4.53.23,1.31-1.19,1.42-3.21.23-4.53m-.7,4.01c-1.03.93-2.61.85-3.54-.18-.93-1.03-.85-2.61.18-3.54.94-.85,2.34-.85,3.29-.06l.21-.19.45.5-.2.19c.7,1.02.56,2.42-.38,3.28m-.08-2.86l.38-.34c.66.98.53,2.32-.38,3.13-.98.89-2.5.81-3.39-.17-.89-.98-.81-2.5.17-3.39.9-.81,2.23-.81,3.14-.06l-.38.34c-.71-.54-1.73-.52-2.41.1-.78.7-.84,1.89-.14,2.67.7.77,1.89.84,2.67.14.69-.62.81-1.64.33-2.41m-2.79-.32c-.73.66-.78,1.78-.13,2.51.66.73,1.78.79,2.51.13.67-.6.77-1.6.27-2.32l.65-.58-.31-.35-.65.58c-.67-.57-1.67-.57-2.34.03m2.2,2.44c-.62.56-1.57.51-2.13-.11-.56-.62-.51-1.57.11-2.13.62-.56,1.57-.51,2.13.11.56.62.51,1.57-.11,2.13m-.88-2.48c-.55.81-.58,1.9-.06,2.74-.41.03-.82-.12-1.12-.45-.51-.56-.46-1.43.1-1.94.31-.27.7-.39,1.08-.34m4.57-.87c-.31-.01-.53.44-.59.83-.12.78.26.92.41,1,0,.26-.01.89-.15,2.07-.11.94-.64,1.65-.11,2.3.05.07.04.24.19.26h0s0,0,0,0h0s0,0,0,0c.15,0,.15-.18.21-.24.57-.61.1-1.35.06-2.3-.05-1.19-.02-1.81,0-2.08.16-.06.52-.04.49-.96-.02-.4-.22-.86-.52-.88m-.11,1.94c0,.11-.05,1.56-.09,2.1-.04.54-.17,1.14-.18,1.62,0,.48.12.73.09.74-.02.01-.06-.03-.08-.09-.02-.06-.07-.14-.16-.29-.09-.15-.11-.41-.07-.71.04-.29.26-1.03.35-1.73.09-.7.11-1.74.11-1.74.01.01.03-.02.03.09m.57-.62c-.03.17-.09.39-.4.45.29-.22.41-.8.11-1.63,0,0,.13.09.2.33.11.39.12.69.09.86"/>
  <path class="cls-1" d="m29.72,12.6l1.06.74-.08.12-.98-.68c-.43-.3-1.01-.19-1.31.23l-.47.68s-.06.09-.08.13c.02-.12.07-.23.15-.34l.45-.65c.29-.41.85-.51,1.26-.23m-.06.23l.99.69-1.49,2.14-.99-.69c-.41-.29-.51-.85-.23-1.26l.46-.65c.29-.41.85-.51,1.26-.23m-1.58,1.49c.02.18.09.38.28.51l.84.59.15-.21-1.27-.89Zm-3.21-4.43l-.56-1.28-.14.06.56,1.28.14-.06Zm.43.13l1.74,4c.19.43.01.93-.4,1.16.3-.26.42-.69.25-1.08l-1.74-4.02-.05.02,1.71,3.93c.2.46-.01.99-.47,1.19l-.73.32c-.46.2-.99-.01-1.19-.47l-1.71-3.93.21-.09,2.4-1.04Zm-2.11,1.03l-.24.1s1.23,2.82,1.64,3.77c.09.22.27.33.44.38l-1.84-4.25Zm.98,1.13l.13-.41-.06-.13-.6.26.07.16.37-.16-.12.41.05.1.08-.03s.07-.03.1-.04c.03,0,.06-.01.09,0,.03,0,.05.01.07.03.02.01.04.04.05.07.01.02.01.05.01.07,0,.03,0,.05-.02.07-.01.02-.03.05-.05.07-.02.02-.05.04-.08.05-.02,0-.04.01-.06.02-.02,0-.04.01-.06.01-.02,0-.04,0-.06,0-.02,0-.03,0-.04,0l.02.18s.1,0,.14-.02c.05-.01.09-.03.14-.05.05-.02.1-.05.14-.09.04-.04.08-.08.1-.12.02-.05.04-.09.04-.15,0-.05,0-.11-.03-.16-.02-.05-.05-.08-.08-.11-.03-.03-.06-.05-.1-.06-.04-.01-.07-.02-.11-.02-.04,0-.07.01-.11.03h-.03Zm.77.95l-.2.09.04.08.11-.05.05.12s-.01.01-.02.02c-.01,0-.02.02-.04.02-.02,0-.05.01-.07.01-.02,0-.05,0-.07-.02-.02-.01-.04-.03-.06-.05-.02-.02-.03-.05-.05-.08-.01-.04-.02-.07-.03-.1s0-.06,0-.08c0-.02.02-.04.03-.06.02-.02.04-.03.06-.04.01,0,.03,0,.04-.01,0,0,.01,0,.02,0l.04.09.09-.04-.08-.17s-.05,0-.07,0c-.02,0-.05.01-.09.03-.03.01-.06.03-.09.06-.03.03-.05.06-.07.09-.02.03-.02.08-.02.12s.01.1.03.15c.02.05.05.09.08.12.03.03.06.06.1.07.03.01.07.02.11.02s.08,0,.11-.03c.03-.01.06-.03.09-.05.03-.02.05-.05.06-.07l-.11-.26Zm.3-.44s-.05,0-.08,0-.06.02-.08.03c-.02,0-.03.01-.05.02-.02,0-.03.02-.05.02-.02,0-.03.01-.04.02-.01,0-.02.01-.03.02l.25.58s.03,0,.05-.01c.02,0,.04-.01.05-.02.02,0,.03-.01.05-.02.01,0,.03-.01.04-.02.03-.01.06-.03.08-.05.02-.02.04-.04.06-.06.02-.02.03-.05.03-.08,0-.03,0-.06-.01-.09-.01-.02-.02-.04-.04-.06-.01-.01-.03-.02-.04-.03-.02,0-.03-.01-.05-.01-.02,0-.04,0-.05,0h0s.03-.03.04-.05c0-.02.02-.03.02-.05,0-.01,0-.03,0-.05,0-.02,0-.03-.01-.05-.01-.03-.03-.05-.05-.06-.02-.01-.04-.02-.07-.02m-.32-1.29s-.08-.01-.12,0c-.04,0-.09.02-.13.03-.07.03-.12.06-.16.11-.04.04-.08.09-.11.13l.14.1s.04-.07.07-.09c.02-.02.05-.04.09-.06.03-.01.05-.02.08-.02.02,0,.05,0,.07,0,.02,0,.04.02.06.03s.03.03.04.05c.01.03.02.06.02.08,0,.03,0,.06,0,.1,0,.03-.01.07-.02.11-.01.04-.03.09-.04.14-.01.04-.03.07-.04.11-.01.03-.03.07-.04.1-.01.03-.03.06-.03.08-.01.02-.02.04-.03.06l.06.14.66-.28-.07-.16-.42.18s.02-.05.04-.08c.01-.03.03-.06.04-.09.01-.03.02-.07.04-.1.01-.04.02-.07.03-.11.01-.04.02-.08.02-.12,0-.04,0-.07,0-.1,0-.03,0-.06-.01-.09,0-.03-.02-.06-.03-.09-.02-.05-.05-.08-.08-.11-.03-.03-.07-.04-.11-.05m-1.88-.71l-.14.06-.56-1.28,1.77-.77.56,1.28-1.36.59-.03-.06.21-.09-.03-.07-.21.09-.11-.26.34-.15-.15-.35-.34.15-.2-.46-.27.12.52,1.21Zm1.24-.7l-.29.12.03.07.29-.12-.03-.07Zm-.68-.43l.15.35.51-.22-.15-.35-.51.22Zm1.57,3.25s-.03,0-.04.01c-.02,0-.03.01-.04.02-.01,0-.02.01-.03.01l.07.15.04-.02s.02,0,.03-.01.02-.01.02-.01c.02-.02.03-.03.04-.05s.01-.04,0-.06c0-.01-.01-.02-.02-.03s-.02-.01-.03-.01c-.01,0-.02,0-.04,0m.1.24s-.03.01-.05.02l-.06.03.07.16s0,0,.01,0,.01,0,.02,0c0,0,.01,0,.02,0,0,0,.02,0,.02,0,.01,0,.03-.01.04-.02.01,0,.02-.02.03-.03,0-.01.01-.02.01-.04,0-.01,0-.03,0-.04,0-.02-.02-.03-.03-.04-.01,0-.02-.01-.04-.01-.01,0-.03,0-.04,0m-.46-3.02l-2.04.88.06.13,2.03-.88-.06-.13Zm.13.09l.23-.1-.06-.13-.23.1.06.13Z"/>
  <path class="cls-1" d="m29.34,25.44l-1.11.56-.1-.2,1.11-.56.1.2Zm4.42-2.45l-.41.21.08.16.41-.21-.08-.16Zm-.88,5.87l-2.61,1.32c-.17.09-.38.02-.47-.15l-.07-.14-.16.08-1.58-3.11.16-.08-.09-.17c-.09-.17-.02-.38.15-.47l2.2-1.11c-.43.73-.49,1.65-.08,2.45.49.97,1.52,1.49,2.54,1.38m-4.2-1.97l1.11-.56-.25-.5-1.11.56.25.5Zm5.45-3.74l-1.26.64c.36.04.7.14,1.01.32.49.22.92.6,1.18,1.12.46.92.29,1.99-.36,2.71l1.47-.75c.17-.09.24-.3.15-.47l-1.73-3.42c-.09-.17-.3-.24-.47-.15m-.42,5.34c-1.19.6-2.65.13-3.26-1.07-.41-.81-.32-1.74.15-2.44l-.23-.45.03-.49.15-.07.09.17,1.38-.7-.09-.17.15-.08.42.27.23.45c.85.04,1.65.52,2.06,1.33.6,1.19.13,2.66-1.07,3.26m.8-3.12c-.53-1.05-1.81-1.47-2.85-.94-1.05.53-1.47,1.81-.93,2.85.53,1.05,1.81,1.47,2.85.94,1.05-.53,1.47-1.81.93-2.85m-.22.11c.47.93.1,2.06-.83,2.53-.93.47-2.06.1-2.53-.83-.47-.93-.1-2.06.83-2.53.93-.47,2.06-.1,2.53.83m-.13.07c-.43-.85-1.47-1.19-2.33-.76-.85.43-1.19,1.47-.76,2.33.43.85,1.47,1.19,2.33.76.85-.43,1.19-1.48.76-2.33m-2.92,1.44c.21.41.57.68.98.78-.31-1.03.04-2.17.87-2.84-.38-.14-.81-.13-1.2.06-.73.37-1.03,1.27-.66,2"/>
  <path class="cls-1" d="m19.83,40.41s.06.05.09.08c.07.09.12.2.14.33.03.05.06.1.08.15.12.39-.23.53-.55.54-.25,0-.62.09-.78-.14l-.26.31s0,0,0,.01c0,0,0,0,0,.01l-.45.53s-.09.07-.14.08c0,.01-.02.02-.03.03l-2.52,2.31c.13.09.22.24.19.4-.04.24-.23.57-.46.66-.07.03-.16-.02-.2-.08-.06-.11-.22-.16-.33-.25l-.52.48c.35.28.79.51,1.35.66,2.13.58,2.84-.21,2.54-1.19-.3-.98,2.53-.91,3.12-2.09.51-1.03.02-2.24-.88-3.09-.14.11-.27.2-.37.26m-2.43,3.91c-.64.3-.16,1.07-.78,1.19-.22.05-.62-.42-.14-1.24.48-.82,1.52-1.02,1.7-.74.19.31-.14.49-.78.79m2.82-2.36s.06.02.09.04c.15.09.27.27.3.44.04.24-.06.55-.24.72-.22.21-.55.09-.72-.13-.29-.37-.13-.92.27-1.05.04-.02.08-.03.13-.04.06,0,.11,0,.17.02,0,0,0,0,0,0m-5.59,1.9c-.26.09-.56.17-.81.02-.45-.28.03-.88.42-.95.09-.05.19-.08.31-.08.28,0,.49.11.53.4,0,.04,0,.08,0,.11l1.83-2s.02-.02.03-.02c.01-.06.05-.1.07-.13l.26-.22s-.03-.03-.05-.05c-.18-.17-.13-.46.02-.67.06-.11.15-.2.25-.27.12-.11.27-.19.42-.14.08.03.12.1.12.17.06.06.1.12.14.19l.28-.24s.02-.01.03-.02c0-.01.01-.02.02-.03l.19-.16s-.01-.05,0-.07c.02-.1.05-.22.11-.35-1.1-.31-2.49-.1-3.74.62-1.19.69-1.93,1.72-2.08,3.02-.08.7.01,1.5.44,2.19l1.19-1.3Zm1.05-3.58c.13-.1.34-.24.51-.12.03.02.04.04.06.06.06,0,.11.03.18.08.2.15.4.49.23.73-.17.25-.56.26-.84.23-.24-.03-.5-.14-.48-.43.02-.22.19-.42.35-.55m-1.51,1.49c.05-.12.15-.26.27-.31.05-.02.1-.04.15-.04.1-.08.19-.15.32-.17.14-.02.25.07.32.17.15.21.27.54.11.78-.14.2-.42.18-.65.14-.14.02-.28-.02-.39-.14-.13-.09-.21-.23-.14-.42m5.03-1.72s.09.08.13.12c-.02-.04.06-.13.06-.13,0,0,.38-.12.96-.62.58-.5.74-1.07.74-1.07,0,.73-1.49,1.82-1.67,1.84-.03,0-.06,0-.07,0,.08.07.16.14.25.2.42-.2.99-.64,1.44-1.44.61-1.09.36-1.83.16-1.36-.2.48-.85.4-1.66,1.06-.5.4-.65.81-.7,1.06l.04-.03c.1.13.21.26.33.38m.08-.16s.22-.45.67-.9c.46-.46.77-.54.77-.54-.61.36-1.44,1.44-1.44,1.44m.03-.8c.28-.48.89-.74,1.38-.91.48-.17.57-.53.57-.53-.02.34-.41.57-1.08.88-.67.31-1.05,1.1-1.05,1.1,0,0-.09-.06.19-.53m-1.68,1.84l-.13.11s0-.05,0-.07l.12-.11s0,.05.01.07m-.19.09s0,.05,0,.08l-.28.24s0,.12.08.25c.06-.05.17-.15.3-.28.06.08.12.16.18.21l.03.03c.12.12.34.3.5.28l.05-.06c-.15.01-.37-.16-.49-.28l-.03-.03c-.06-.06-.12-.13-.18-.21.04-.04.08-.08.13-.12.05.08.12.15.17.21l.03.03c.12.12.32.28.47.28l.03-.04-.45.53c-.14.14-.43-.09-.58-.24l-.03-.03c-.15-.15-.38-.44-.24-.58l.31-.27Zm-.08.94c-.31-.31-.33-.52-.33-.52h0s-4.16,4.53-4.16,4.53c-.14.14-.2.31-.06.45l.02.02c.14.14.31.08.45-.06l4.53-4.15s-.16.03-.46-.28m-4.49,4.23l-.02-.14,4.2-4.49.07.15-4.25,4.48Zm6.39-5.54c-.13-.04-.27-.16-.36-.25l-.02-.03s-.11-.11-.16-.19c.13-.12.21-.21.21-.21l-.09-.08-.2.17s-.02-.04-.03-.06l.2-.17c.09.11.18.22.28.32.11.1.22.2.33.29l-.18.21Zm-.67-.53l-.9.77s-.01-.05-.01-.07l.88-.76s.02.04.03.06m-.14,1.47c-.15,0-.35-.17-.46-.28l-.03-.03c-.05-.06-.12-.13-.17-.21.3-.28.64-.61.87-.83.05.07.11.14.16.19l.02.02c.09.09.24.21.37.26l-.76.88Z"/>
  <path class="cls-1" d="m18.49,25.42c-.45.68-1.07.94-1.67.67-.57-.25-.94-.89-.82-1.4.08-.3.03-.59-.14-.82-.2-.29-.54-.44-.78-.47-.25-.02-.53.2-.72.4-.03-.07-.08-.14-.15-.19.21-.22.54-.49.89-.46.36.03.74.26.95.57.21.29.27.65.17,1.02-.1.4.22.92.68,1.13.49.22.99,0,1.38-.59.55-.83.52-1.94-.06-2.97-.5-.88-1.3-1.48-1.94-1.45-.37.02-.65.24-.84.66-.33.73-1.09,1.17-1.69.99-.27-.08-.88-.43-.65-1.88.19-1.17-.72-1.38-.73-1.39l.05-.23c.32.07,1.1.51.91,1.66-.14.89.03,1.48.48,1.61.48.15,1.12-.25,1.4-.86.29-.63.73-.78,1.05-.79.72-.03,1.61.61,2.15,1.57.63,1.1.65,2.31.05,3.22m-4.13.44s0,0,0,0c-.02.02-.05.04-.07.06l-.04.03-.91.69-1.51,1.14c-.2.17-1.13.54-1.93-.43-.8-.97-.25-1.81-.05-1.97l1.36-1.22.9-.81.04-.04s.05-.04.07-.06c0,0,0,0,0,0,.03-.02.05-.04.08-.06h0s.06-.04.09-.06c.42-.24,1.03-.32,1.83.65.63.77.64,1.3.46,1.66,0,0,0,0,0,0-.02.03-.03.06-.05.09,0,0,0,0,0,0-.02.03-.03.05-.05.08,0,0,0,0,0,0-.02.03-.04.05-.06.07,0,0,0,0,0,0-.02.02-.04.05-.06.07,0,0,0,0,0,0-.02.02-.04.04-.07.06m-2.55-.21l.81-.67c-.05-.1-.04-.21.04-.27l.83-.68c.07-.06.19-.05.27.02l.28-.23c-.48-.56-.89-.73-1.23-.73l-1.57,1.29s.02.1.03.15c-1.4,1.32-1.01,1.68-.96,1.6.05-.1.29-.44.86-.98.08-.08.16-.15.23-.22.1.25.24.5.41.72m1.96-1.45l-.03-.04c-.06-.08-.18-.09-.25-.02l-.71.59c-.08.06-.09.18-.02.25l.03.04c.06.08.17.09.25.02l.72-.59c.08-.06.09-.17.02-.25m.87,1.14c.08-.34,0-.78-.47-1.37l-.28.23c.05.1.04.21-.03.27l-.83.68c-.07.06-.19.05-.27-.02l-.81.67c.34.36.75.63,1.2.78l1.5-1.24Zm-.8-1.5s-.06-.19-.37-.38c-.31-.2-.66-.21-1.09.13-.42.33-.76.62-1.04.87.03.13.06.27.11.42.48-.42,1-.78,1.45-1,.37-.18.93-.04.93-.04"/>
  <path class="cls-1" d="m3.56,11.78l-.33.11c-.07-.43-.27-2.31,1.77-3.02,1.94-.67,2.87.77,3.11,1.25-.14.08-.23.23-.25.39.12-.08.22-.14.29-.18.03-.03.08-.06.12-.08,0,0,0,0,0,0,0,0,0,0,0,0,.18-.06.37.04.43.22.02.05.02.1.02.14l.07.07s.05.11.02.16c0,0-.04.06-.11.17.18-.14.26-.38.18-.6-.07-.2-.25-.34-.46-.36l-.22-2.76c.09-.03.16-.09.2-.18.08-.17.01-.38-.16-.47-.17-.08-.38-.01-.47.16-.08.17-.01.38.16.47.03.01.05.02.08.03l.21,2.68c-.31-.56-1.33-1.97-3.31-1.29-2.2.76-1.95,2.86-1.88,3.26l-.33.11.29.84.84-.29-.29-.84Zm-.61.41l.49-.17.17.49-.49.17-.17-.49Zm6.03,2.15c-.08.17-.29.25-.47.16-.17-.08-.25-.29-.16-.47.04-.08.11-.14.19-.17l-.18-2.29c.06-.1.11-.19.17-.28l.2,2.55s.06.01.09.03c.17.08.25.29.16.47m-.27-3.57s-1.21,1.84-1.3,2.62c-.37.27-.62.46-.62.46,0,0-.55-.08-.94.25-.04.03-.07.06-.1.09l.03.03-.11.11.09.09-.78.99-.65-.65-.65-.65.99-.78.09.09.11-.11.03.03s.06-.06.09-.1c.33-.4.25-.94.25-.94,0,0,.19-.25.46-.62.78-.08,2.62-1.29,2.62-1.29l.16.16-1.58,1.61c-.37-.28-.91.26-.61.66.39.31.94-.23.66-.61l1.61-1.58.16.16Z"/>
  <path class="cls-1" d="m24.39,71.41h-1.8v-1.8h1.8v1.8Zm3.22,0h1.8v-1.8h-1.8v1.8Zm-2.61-.71l.22-.22v-.76h1.58v1.57h-.56s-.03.03-.04.05l-.17.17h.99v-2.02h-2.01v1.2Zm-1.66,3.7c.06.06.06.16,0,.22l-.05.05c-.06.06-.16.06-.22,0l-.13-.13-1.22,1.22c-.23.23-.61.23-.85,0s-.24-.61,0-.85l1.22-1.22-.13-.13c-.06-.06-.06-.16,0-.22l.05-.05c.06-.06.16-.06.22,0l.1.1.08-.09.09.09,2.79-2.79s.06-.06.08-.08c.15-.15.39-.06.73-.2l.21.21c-.14.34-.05.58-.2.73-.02.02-.08.08-.08.08l-2.79,2.79.09.09-.08.08.1.1Zm-1.32-.29l-.09-.09s-.51.51-.92.92c-.13.13-.15.28-.16.39.1-.15.09-.13.45-.49.37-.37.72-.72.72-.72m.58-.36s-.38-.38-.41-.41c-.03-.03-.08-.03-.15.04-.06.07-.05.12-.05.12.04-.06.12-.1.15-.08.03.02.45.33.45.33m2.77-2.93c.32-.32.55-.3.72-.41,0,0-.54.04-.79.28-.16.16-.85.85-1.43,1.43-.58.58-1.22,1.23-1.22,1.23l.09.09s2.32-2.31,2.64-2.62"/>
  <path class="cls-1" d="m27.53,39.8c.17.07.37-.02.43-.19.07-.17-.02-.37-.19-.43-.17-.07-.37.02-.44.19-.07.17.02.37.19.43m.23-.57c.14.06.21.22.16.36-.06.14-.22.21-.36.16-.14-.06-.21-.22-.16-.36.06-.14.22-.21.36-.16m-.37,2.83l-1.3-.51.23-.57,1.3.51-.23.57Zm.66-3.56c-.24-.1-.51-.1-.75-.01l.29-.73,1.3.51-.29.73c-.12-.23-.31-.41-.55-.5m-.78,1.98c.24.1.51.1.75.01l-.29.73-1.3-.52.29-.73c.12.23.31.41.55.5m1.73-2.47l-1.3-.51.23-.57,1.3.51-.23.57Zm6.68,1.6l-1.37-.54-.26.11,1.56.62s.07.07.05.12l-1.87,4.73s-.07.07-.12.05l-6.04-2.39,1.94-4.9,3.3,1.31.26-.11-5.05-2c-.15-.06-.32.01-.39.17l-1.87,4.73c-.06.15.01.32.17.38l7.6,3.01c.15.06.32-.01.39-.17l1.87-4.73c.06-.15-.01-.33-.17-.39m-8.23,2.58l-1.49-.59.3-.76,1.49.59-.3.76Zm.33-.84l-1.49-.59.42-1.07c.06.3.28.57.59.69.31.12.65.07.9-.1l-.42,1.07Zm-.85-2.15c.16-.4.61-.59,1.01-.44.4.16.59.61.44,1.01-.16.4-.61.59-1.01.44-.4-.16-.59-.61-.44-1.01m1.66.09c-.06-.3-.28-.57-.59-.69-.31-.12-.65-.07-.9.1l.42-1.07,1.49.59-.42,1.07Zm.46-1.15l-1.49-.59.3-.76,1.49.59-.3.76Zm.77,2.17s-.08.06-.1.1c-.02.04-.02.09,0,.14.02.05.06.08.1.1.05.02.1.02.14,0l.06-.02.25.06s.03,0,.05,0l.45-.1s.01,0,.02,0l3.09-1.34,1.54.61s.07.07.05.12l-1.79,4.53s-.07.07-.12.05l-5.79-2.29,1.86-4.7,3.07,1.22-2.27.98s-.01,0-.02.01l-.38.26s-.03.02-.04.04l-.13.22-.06.02Zm.29-.18l-.15.25-.09.04s-.05.05-.03.08h0s.05.05.08.04l.09-.04.29.07.45-.1,4.98-2.16-.02-.05.22-.1c.1-.04.15-.16.1-.26l-.06-.13c-.04-.1-.16-.15-.26-.1l-.22.09-.02-.05-4.99,2.16-.38.26Zm2.29-1.08l.26.6-.07.03-.26-.6.07-.03Zm-.54.44c.07-.03.16,0,.19.07h0c.03.08,0,.16-.07.19l-.72.31-.11-.26.72-.31Zm-1.13.49l.33-.14.11.26-.33.14c-.07.03-.16,0-.19-.07h0c-.03-.07,0-.16.07-.19"/>
  <path class="cls-1" d="m31.96,57.46l-.21.06.22.78-.11.03-.22-.78-.97.28.22.78-.11.03-.22-.78-.97.28.22.78-.11.03-.22-.78-.97.28.22.78-.11.03-.22-.78-.97.28.22.78-.11.03-.22-.78-.97.28.22.78-.11.03-.22-.78-.97.28.22.78-.11.03-.22-.78-.97.28.22.78-.11.03-.22-.78-.97.28.22.78-.11.03-.22-.78-.97.28.22.78-.11.03-.22-.78-.97.28.22.78-.11.03-.22-.78-.21.06.55,1.92,11.39-3.25-.55-1.92Zm-10.38,4.3c-.37.11-.53-.46-.16-.57.37-.1.53.47.16.57"/>
  <path class="cls-1" d="m11.42,65.09c0,.08.09.13.16.09l11.1-6.8c.09-.05.05-.19-.05-.19h-2.51s.07,0,.07,0v.66h-.11v-.66h-1.03.09v.66h-.11v-.66h-5.23s.09,0,.09,0v.66h-.11v-.66h-1.03.09v.66h-.11v-.66h-1.21c-.06,0-.1.05-.1.1v6.8Zm10.87-6.91v.43l-.11.07v-.49h.11Zm-1.05,0v.66h-.11v-.66h.11Zm-3.15,0v.66h-.11v-.66s.11,0,.11,0Zm-1.05,0v.66h-.11v-.66h.11Zm-1.05,0v.66h-.11v-.66h.11Zm-1.05,0v.66h-.11v-.66h.11Zm-1.93,1.37h4.58c.22,0,.3.29.11.4l-4.58,2.81c-.14.09-.33-.02-.33-.18v-2.81c0-.12.1-.22.22-.22m-.85,3.58c.45,0,.45.7,0,.7s-.45-.7,0-.7m-.37-4.94v.66h-.11v-.66h.11Z"/>
  <path class="cls-1" d="m26.89,45.35h0l-1.89.65c-.18.06-.27.25-.21.43l2.48,7.16c.06.18.25.27.43.21l1.04-.36,1.11.56c.17.08.37.02.45-.15l.06-.11c.16,0,.31-.1.35-.26l.11-.48s.04-.1.04-.16v-.25s0,.24,0,.24l.03-.15,2.82-5.6c.08-.17.02-.37-.15-.45l-.89-.45-.08.31.88.45-.77,1.53-.57-.29-.06.24.53.27-.77,1.53-.21-.11-.06.24.17.09-.42.83-.36,1.32.22-1.05-.02.03,1.26-5.47c.04-.18-.07-.36-.25-.4l-.84-.19-.3-.07v.32s1.13.26,1.13.26l-.38,1.67-.79-.18v.25s.74.17.74.17l-.38,1.67-.4-.09v.25s.34.08.34.08l-.38,1.67h0s-.02.75-.02.75l-.04-.77h0s.02.83.02.83c0,0-.15-6.89-.15-7.03,0-.04,0-.12-.02-.15-.04-.13-.18-.2-.34-.19l-1.78.04.1.31,1.76-.04.04,1.71-1.26.03.07.24,1.19-.03.04,1.71-.7.02.08.24h.63s.04,1.7.04,1.7h-.14s.08.25.08.25h.07s0,.24,0,.24l.3.95-2.46-7.11c-.06-.18-.25-.27-.43-.21h-.03s-.71.02-.71.02c-.19,0-.33.16-.33.34m3.61,7.84l-.05.2-.8-.18.88-.02h-.03Zm-1.64.21l1.45.33-.22-.05v.02s-.09-.04-.09-.04l-1.14-.26Zm-.09-1.3c.23-.08.49.04.57.28.08.23-.04.49-.27.57-.23.08-.49-.04-.57-.27-.08-.23.04-.49.28-.57"/>
  <path class="cls-1" d="m13.15,67.83l.15.75-.41.08-.41-.7.68-.13Zm1.28-.88l.38,1.98c-1.29-.35-1.37-.18-1.4-.34l-.16-.81c-.03-.16.11-.03,1.17-.84m-.81.86c.15-.15.63-.45.74-.61,0,0-.37.27-.63.4-.26.13-.39.15-.36.29.03.14.06.33.06.33,0,0,.04-.26.19-.41m8.81-.32l-.4-2.06c-.07-.14-.21-.23-.37-.22l.51,2.63c.15-.05.25-.19.26-.34m.15-.03c.16-.03.27-.19.24-.36l-.28-1.46c-.03-.16-.19-.27-.36-.24h-.02s.4,2.06.4,2.06h.02Zm-.46.39l-6.18,1.2-.51-2.64,6.18-1.2.51,2.64Zm-6.49-.8l5.89-1.38-.04-.23-5.94,1.15.09.45Zm-.25-.42l-.21.04.09.45.21-.04-.09-.45Zm-.31-.15l.51,2.64-.17.03c-.18.03-.35-.06-.43-.21h-.05s-.4-2.05-.4-2.05h.05c.01-.19.14-.34.31-.37l.17-.03Zm-.11.23c-.16.03-.26.18-.23.34l.34,1.77s-.17-1.14-.17-1.52c0-.42.14-.61.14-.61l-.08.02Z"/>
  <path class="cls-1" d="m20.91,70.79l.02.12-5.49.87-.47-.03c.02-.05.02-.12.01-.18-.01-.07-.04-.13-.07-.18l.44-.18h0s5.49-.87,5.49-.87l.02.12-5.45.87-.43.14.37-.08h.07s5.45-.88,5.45-.88l.04.24-5.46.87-.44.06h.4s.06,0,.06,0l5.45-.87Zm-6.01.86s.01-.05,0-.08c0-.03-.02-.07-.03-.09,0-.01,0-.02,0-.03-.02-.01-.03-.03-.04-.05l-.45.15s.04.06.04.1c0,.04,0,.07-.01.1h.46s.02-.05.03-.08c0,0-.01-.01-.02-.02m-.58-.07l-.21.08s-.03.06.01.07h.23s.01-.04,0-.07c0-.03-.02-.06-.03-.08m7.86-.87c.06,0,.11-.07.1-.13l-.06-.34c-.01-.06-.07-.11-.13-.1l-.27.04.09.58.27-.04Zm-.81-.3l.07.44h.04s-.07-.45-.07-.45h-.04Zm-.07.01l.07.44h.04s-.07-.45-.07-.45h-.04Zm.03-.09v-.09s-.05,0-.05,0v.09s.05,0,.05,0Zm.07-.01v-.09s-.05,0-.05,0v.09s.05,0,.05,0Zm.35-.15l-.33.05v.09s.33-.05.33-.05v.08s-.3.05-.3.05l.07.44.33-.05-.1-.62Zm-.79.31v-.08s.3-.05.3-.05l-.02-.09-.33.05.1.62.33-.05-.07-.44-.31.05Z"/>
  <path class="cls-1" d="m9.81,40.62l-.5.11.99,1.91c-.1.08-.15.21-.12.34.04.17.2.28.36.27l-.2.71-1.6-3.09-.49.11-.02-.11.46-.1-.96-1.86c.1.02.21.02.3-.03.1-.05.17-.13.2-.23l1.03,2,.53-.12.02.11Zm1.41,4.74l-.33.07.03.15.33-.07-.03-.16Zm-.04-10.06l-.19,1.21h.26s-.07-1.21-.07-1.21Zm-.06,2.01c.11,0,.21.05.28.12l.02-.42-.07-.37-.44-.02-.06.36-.02.42c.08-.06.18-.1.29-.09m-.41.42c0-.22.19-.38.41-.38.22.01.39.19.38.41,0,.22-.19.38-.41.38-.22-.01-.39-.19-.38-.41m.38.31c.16,0,.3-.12.31-.28,0-.16-.12-.3-.28-.31-.16,0-.3.12-.31.28,0,.16.12.3.28.31m-4.14-1.17l.12-.07-.24-.39s-.09,0-.07.04l.19.43Zm.22.57l.25-.13-.26-.44-.19.11.21.46Zm3.68,5.4c.04.17-.06.34-.22.4l.48.56h0l.16-3.48.51-.11-.02-.11-.48.1.1-2.09c-.08.06-.18.1-.29.09-.11,0-.2-.05-.28-.12l-.1,2.24-.52.11.02.11.49-.11-.1,2.14c.12.03.22.13.25.26m.39.33v.24c.22.12.4.34.46.62.11.5-.21.99-.7,1.1-.5.11-.99-.21-1.1-.7-.06-.28.01-.55.17-.76l-.11-.21c-.24.26-.36.64-.28,1.02.14.62.74,1.01,1.36.87.62-.13,1.01-.74.87-1.36-.08-.38-.34-.67-.68-.81m-4.02-5.23l.2.38c.04-.09.11-.18.2-.23.1-.05.2-.06.3-.03l-.2-.38-.21-.3-.39.2.09.36Zm.95.36c.1.19.02.43-.17.53-.19.1-.43.02-.53-.17-.1-.19-.02-.43.17-.53.19-.1.43-.02.53.17m-.48-.08c-.14.07-.2.25-.12.39.07.14.25.2.39.13.14-.07.2-.25.13-.39-.07-.14-.25-.2-.39-.12m2.88,4.96c-.15.03-.29-.06-.32-.21-.03-.15.06-.29.21-.32.15-.03.29.06.32.21.03.15-.06.29-.21.32m.1-.3c-.02-.09-.11-.15-.2-.13-.09.02-.15.11-.13.2.02.09.11.15.2.13.09-.02.15-.11.13-.2m.2,2.8l.24,1.1.34-.07.11-.02-.24-1.1-.11.02-.34.07Zm-.89-5.65l-.22.05.21.97.22-.05-.21-.97Z"/>
  <path class="cls-1" d="m31.55,6.31l.78.8-.64.3h-.01l-.08-.85-.05-.25Zm-.07,1.1l-.1-1.07-.12-.58h.01s.35.45.35.45l.76.78s0-.01,0-.02c.06-.13.22-.2.43-.2h.63s-2.19-2.06-2.19-2.06l-.44.21.16,2.49h.49Zm.96-.1s-.04-.06-.05-.09l-.41.19h.53s-.08-.1-.08-.1Zm1.84-.53s.01,0,.01,0c.03-.13.09-.25.19-.38.05-.06.11-.13.18-.19-.05-.03-.1-.06-.15-.11h0s-.04.02-.06.02c-.02,0-.05,0-.07-.02-.06-.03-.12-.08-.18-.13-.06-.05-.12-.1-.18-.16-.06-.06-.12-.12-.17-.19-.06-.07-.1-.13-.15-.2-.02-.04-.03-.09,0-.13.02-.03.04-.06.06-.09h-.48c-.29,0-.52.23-.52.52v.23l.88.83h.65Zm2.91-.78c.04.08.08.16.11.22.02.03.03.07.06.1h.01v-.6c0-.29-.23-.52-.52-.52h0c.03.07.06.14.09.21.08.19.17.39.26.59m-.17,1.53s-.09-.09-.12-.13l-.05.02s-.04.01-.05.01c-.03,0-.06-.01-.08-.03-.03-.03-.07-.06-.1-.1-.01.08-.04.16-.08.24-.05.09-.11.18-.19.26-.08.08-.18.15-.31.21-.08.04-.15.06-.23.08l1.41,1.98c.04.06.06.11.07.16.05-.08.08-.17.08-.27v-2.62c-.05.04-.1.07-.15.1l-.2.1Zm-6.25-1.46c-.17.1-.28.28-.28.48v.85h.36s-.08-1.33-.08-1.33Zm4.92-.54c-.05-.13-.1-.24-.15-.34h-.6s-.04.04-.06.06l.05.74s.04-.03.06-.04c.19-.13.42-.27.7-.42m2.13,1.01s-.09.1-.16.16c-.07.06-.14.12-.22.19-.08.06-.16.12-.24.18-.08.06-.15.1-.22.14l-.2.1c-.08-.07-.15-.15-.2-.24-.05-.09-.11-.19-.17-.32h-.03c.02.1.02.19,0,.29-.01.1-.04.19-.09.28-.05.09-.11.18-.19.26-.08.08-.18.15-.31.21-.06.03-.12.05-.18.07l-.48-.67c-.13-.19-.44-.34-.73-.39.03-.1.08-.21.16-.31.11-.14.27-.28.48-.43.21-.14.47-.3.79-.47-.13-.35-.26-.6-.39-.73-.13-.13-.3-.15-.49-.05-.12.06-.22.13-.31.22l.06.84-.26.12c-.05-.03-.11-.07-.17-.12-.06-.05-.12-.1-.17-.15-.06-.06-.11-.12-.17-.18-.05-.06-.1-.12-.14-.19.1-.17.26-.35.46-.52.21-.17.44-.32.71-.44.22-.11.42-.17.58-.19.16-.02.31,0,.43.04.12.05.22.12.31.22.09.1.16.21.22.34.11.24.21.45.29.65.08.2.17.39.26.59.04.09.08.16.11.22.03.06.07.13.11.19l.44-.14.1.21Zm-1.55.08c0-.06,0-.12-.01-.16l-.28-.59c-.18.09-.33.17-.44.25-.11.08-.19.15-.23.23-.05.08-.07.16-.06.24,0,.08.03.17.08.27.07.15.16.25.27.3.11.05.23.04.35-.02.08-.04.15-.09.19-.15.04-.06.08-.12.1-.18.02-.06.03-.12.03-.19m-.28-.42c-.09.05-.17.1-.23.14-.11.08-.18.15-.23.23-.04.08-.06.16-.06.24,0,.02,0,.04,0,.06.05.08.11.14.17.17.03.01.07.02.1.02.05,0,.09-.01.15-.04.06-.03.11-.07.14-.11.04-.05.06-.1.08-.15.02-.05.02-.1.02-.14,0-.05,0-.09,0-.13l-.14-.29Zm-.54,1.62l-.19-.27-.22-.31c-.13-.19-.48-.34-.77-.34h-1.46c-.29-.01-.42.14-.29.33l.22.31-3.91-.02c-.32,0-.45.16-.3.37l1.67,2.25c.15.2.51.36.81.36h5.79c.3,0,.43-.16.29-.35l-1.65-2.32Z"/>
  <path class="cls-1" d="m17.74,50.57l-1.22,1.18.29,1.68c.04.24-.21.42-.42.31l-1.51-.8-1.51.8c-.22.11-.47-.07-.43-.31l.29-1.68-1.22-1.18c-.18-.17-.08-.47.16-.5l1.69-.24.75-1.53c.11-.22.42-.22.53,0l.75,1.53,1.69.24c.24.03.34.33.16.5m-.07-2.85h-2.4v.19h2.4v-.19Zm-6.07,5.77h.19v-2.24h-.19v2.24Zm6.36-3.03h.19v-2.24h-.19v2.24Zm-3.48-2.74h-2.4v.19h2.4v-.19Zm3.48,5.77h.19v-2.24h-.19v2.24Zm-2.69.5h2.4v-.19h-2.4v.19Zm-3.19,0h2.4v-.19h-2.4v.19Zm-.28-5.77h-.19v2.24h.19v-2.24Zm3.35-.66h-.53v.53h.53v-.53Zm2.65,3.57h.53v-.53h-.53v.53Zm0-3.03h.53v-.53h-.53v.53Zm-5.84-.53h-.53v.53h.53v-.53Zm5.84,6.6h.53v-.53h-.53v.53Zm-3.19,0h.53v-.53h-.53v.53Zm-3.19,0h.53v-.53h-.53v.53Zm0-3.03h.53v-.53h-.53v.53Z"/>
  <path class="cls-1" d="m15.43,5.65c0-1.77-1.43-3.21-3.21-3.21s-3.21,1.44-3.21,3.21,1.44,3.21,3.21,3.21,3.21-1.44,3.21-3.21m-3.21,2.5c-1.38,0-2.5-1.12-2.5-2.5s1.12-2.5,2.5-2.5c1.27,0,2.31.94,2.48,2.16h.28v.67h-.28c-.16,1.23-1.21,2.18-2.48,2.18m1.86-2.18h.51c-.16,1.17-1.16,2.07-2.37,2.07-1.32,0-2.4-1.07-2.4-2.4s1.07-2.4,2.4-2.4c1.21,0,2.2.89,2.37,2.05h-.51c-.16-.88-.93-1.54-1.86-1.54-1.04,0-1.89.85-1.89,1.89s.85,1.89,1.89,1.89c.93,0,1.7-.68,1.86-1.56m-1.86-2.1c-.98,0-1.77.79-1.77,1.78s.8,1.78,1.77,1.78c.9,0,1.64-.67,1.76-1.54h.87v-.47h-.87c-.11-.87-.86-1.54-1.76-1.54m0,3.28c-.83,0-1.51-.68-1.51-1.51s.68-1.51,1.51-1.51,1.51.68,1.51,1.51-.68,1.51-1.51,1.51m1.01-2.43c-.95.24-1.7,1.02-1.88,1.99-.32-.25-.53-.64-.53-1.08,0-.76.62-1.38,1.37-1.38.41,0,.78.18,1.03.47m4.42,1.29c-.22-.22-.68-.03-1,.22-.61.5-.42.86-.36,1.02-.18.2-.6.66-1.5,1.44-.72.63-1.58.8-1.62,1.63,0,.08-.13.21-.03.32,0,0,0,0,0,0,0,0,0,0,0,0,0,0,0,0,0,0h0c.11.1.23-.03.32-.04.83-.07.98-.93,1.59-1.67.76-.92,1.2-1.36,1.39-1.54.16.06.41.32,1.01-.39.26-.31.41-.79.2-1m-1.38,1.36c-.08.08-1.08,1.13-1.47,1.5-.39.37-.89.73-1.22,1.08-.33.36-.4.62-.43.62-.02,0-.02-.06,0-.12s.04-.15.07-.32c.03-.17.19-.38.42-.57.23-.19.88-.59,1.41-1.05.53-.46,1.25-1.22,1.25-1.22,0,.02.04,0-.04.09m.84-.08c-.13.11-.33.23-.6.07.37.03.84-.32,1.18-1.14,0,0,.04.16-.07.37-.18.36-.38.59-.51.7"/>
  <path class="cls-1" d="m31.71,69.4l-.84.98-.11-.09.78-.91c.34-.39.29-.99-.1-1.33l-.63-.54s-.08-.06-.12-.09c.11.03.22.09.32.18l.6.52c.38.33.43.9.1,1.28m-.22-.09l-.79.92-1.99-1.7.79-.92c.33-.38.9-.43,1.28-.1l.6.52c.38.33.43.9.1,1.28m-1.32-1.72c-.18,0-.38.05-.54.23l-.67.78.19.17,1.01-1.18Zm.23-2.23l1.33-.43-.05-.14-1.33.43.05.15Zm-.17.41l-4.16,1.34c-.45.14-.93-.08-1.11-.51.23.33.65.48,1.05.35l4.17-1.34-.02-.05-4.08,1.31c-.48.15-.99-.11-1.14-.59l-.24-.76c-.15-.48.11-.99.59-1.14l4.08-1.31.07.22.8,2.49Zm-.82-2.21l-.08-.24s-2.93.94-3.91,1.26c-.23.07-.35.24-.42.4l4.41-1.42Zm-1.22.86l.39.17.14-.04-.2-.62-.17.05.12.39-.4-.16-.11.04.03.09s.02.07.03.11,0,.06,0,.09-.02.05-.03.07c-.02.02-.04.03-.07.04-.02,0-.05.01-.07,0-.02,0-.05-.01-.07-.03-.02-.01-.04-.03-.06-.06-.02-.02-.03-.05-.04-.09,0-.02-.01-.04-.02-.06,0-.02,0-.04,0-.06,0-.02,0-.04,0-.06,0-.02,0-.03,0-.04h-.18s0,.1,0,.15c0,.05.02.1.03.14.02.05.04.1.07.15.03.05.07.08.11.11.04.03.09.05.14.06.05.01.11,0,.16-.01.05-.02.09-.04.12-.07.03-.03.06-.06.07-.09.02-.03.02-.07.03-.11,0-.04,0-.07-.01-.11v-.03Zm-1.02.68l-.07-.21-.09.03.03.11-.12.04s-.01-.01-.02-.02c0-.01-.01-.03-.02-.04,0-.02-.01-.05,0-.07s.01-.05.02-.06c.01-.02.03-.04.06-.06.02-.02.05-.03.08-.04.04-.01.07-.02.1-.02s.06,0,.08.01c.02,0,.04.02.05.04.02.02.03.04.03.06,0,.01,0,.03,0,.04,0,0,0,.01,0,.02l-.1.03.03.09.18-.06s0-.05,0-.07c0-.02,0-.05-.02-.09-.01-.03-.03-.07-.05-.1-.02-.03-.05-.06-.08-.07-.03-.02-.07-.03-.12-.04s-.09,0-.15.02c-.05.02-.1.04-.13.07-.03.03-.06.06-.08.09-.02.03-.03.07-.03.11,0,.04,0,.08.02.12,0,.03.02.06.05.09.02.03.04.05.06.06l.27-.09Zm.41.34s0-.05,0-.08c0-.03-.01-.06-.02-.09,0-.02-.01-.03-.02-.05,0-.02-.01-.03-.02-.05,0-.02-.01-.03-.02-.04,0-.01-.01-.03-.02-.04l-.6.19s0,.03,0,.05,0,.04.01.06c0,.02.01.03.01.05,0,.02,0,.03.01.04.01.03.02.06.04.08.02.03.03.05.06.07.02.02.05.03.07.03.03,0,.06,0,.09,0,.02,0,.04-.02.06-.03s.03-.03.03-.04c0-.02.01-.03.02-.05,0-.02,0-.04,0-.06h0s.02.03.04.04c.01.01.03.02.04.02.01,0,.03,0,.05,0,.02,0,.03,0,.05,0,.03-.01.05-.02.07-.04.01-.02.02-.04.03-.07m1.31-.2s.02-.08.02-.12c0-.04,0-.09-.02-.13-.02-.07-.05-.12-.09-.17-.04-.05-.08-.09-.12-.12l-.11.12s.07.05.09.07c.02.03.04.06.05.1,0,.03.01.05.01.08,0,.03,0,.05-.02.07,0,.02-.02.04-.04.05-.02.02-.03.03-.06.03-.03,0-.06.01-.09.01-.03,0-.06,0-.09-.01-.03,0-.07-.02-.11-.03-.04-.02-.08-.03-.13-.06-.04-.02-.07-.03-.1-.05-.03-.02-.07-.03-.09-.05-.03-.02-.06-.03-.08-.04-.02-.01-.04-.02-.06-.03l-.15.05.22.68.17-.05-.14-.44s.04.03.07.05.06.03.09.05c.03.02.07.03.1.05.03.02.07.03.1.04.04.02.08.03.12.04.03,0,.07.02.1.02.03,0,.06,0,.09,0,.03,0,.06-.01.09-.02.05-.02.08-.04.11-.07.03-.03.05-.06.07-.1m.89-1.81l-.05-.14,1.33-.43.59,1.84-1.33.43-.45-1.41.07-.02.07.22.08-.02-.07-.22.27-.09.11.35.37-.12-.11-.35.48-.15-.09-.28-1.25.4Zm.58,1.31l-.1-.3-.08.02.1.3.08-.03Zm.49-.63l-.37.12.17.53.37-.12-.17-.53Zm-3.39,1.24s0-.03,0-.04c0-.02-.01-.03-.01-.04,0-.01,0-.02-.01-.03l-.16.05v.04s.02.02.02.03c0,.01,0,.02.01.03.01.02.03.04.05.05.02.01.04.01.06,0,.01,0,.03-.01.03-.02,0,0,.01-.02.01-.03,0-.01,0-.02,0-.04m-.26.08s0-.03-.01-.05l-.02-.06-.17.05s0,0,0,.01c0,0,0,.01,0,.02,0,0,0,.01,0,.02,0,0,0,.02,0,.02,0,.01.01.03.02.04,0,.01.02.02.03.03.01,0,.02.01.03.02.01,0,.03,0,.04,0,.02,0,.03-.01.04-.03,0-.01.01-.02.02-.04,0-.01,0-.03,0-.04m3.06-.16l-.68-2.11-.13.04.68,2.11.13-.04Zm-.11.12l.08.24.13-.04-.08-.24-.13.04Z"/>
  <path class="cls-1" d="m23.76,48.39l-.31-1.2.22-.06.31,1.2-.22.06Zm1.43,4.85l-.11-.44-.18.05.11.44.18-.05Zm-5.54-2.13l-.73-2.84c-.05-.19.06-.38.25-.43l.15-.04-.05-.17,3.38-.87.04.17.19-.05c.19-.05.38.07.43.25l.61,2.38c-.62-.57-1.5-.83-2.38-.61-1.06.27-1.78,1.16-1.9,2.19m2.84-3.68l.31,1.2.54-.14-.31-1.2-.54.14Zm2.47,6.13l-.35-1.37c-.11.34-.29.65-.53.92-.32.43-.78.77-1.35.91-1,.26-2-.15-2.57-.93l.41,1.6c.05.19.24.3.43.25l3.71-.95c.19-.05.3-.24.25-.43m-5.12-1.56c-.33-1.3.45-2.62,1.75-2.95.88-.23,1.76.06,2.35.67l.49-.12.47.14.04.16-.19.05.38,1.49.19-.05.04.17-.35.35-.49.12c-.22.82-.86,1.5-1.74,1.72-1.3.33-2.62-.45-2.95-1.75m2.88,1.45c1.14-.29,1.82-1.45,1.53-2.58s-1.45-1.82-2.58-1.53c-1.14.29-1.82,1.45-1.53,2.58.29,1.14,1.45,1.82,2.58,1.53m-.06-.23c-1.01.26-2.03-.35-2.29-1.35-.26-1.01.35-2.03,1.35-2.29,1.01-.26,2.03.35,2.29,1.35.26,1.01-.35,2.03-1.35,2.29m-.04-.14c.93-.24,1.49-1.18,1.25-2.11-.24-.93-1.18-1.49-2.11-1.25-.93.24-1.49,1.18-1.25,2.11.24.93,1.18,1.49,2.11,1.25m-.78-3.16c-.44.11-.79.41-.97.79,1.07-.08,2.11.51,2.59,1.46.22-.34.31-.76.2-1.19-.2-.8-1.02-1.28-1.81-1.07"/>
  <path class="cls-1" d="m27.03,4.76s0,.09,0,.13c-.03.12-.1.24-.19.34-.02.06-.04.12-.08.17-.25.37-.61.16-.83-.11-.18-.21-.5-.48-.41-.76l-.44-.02s-.01,0-.02,0c0,0,0,0-.01,0l-.76-.03c-.06,0-.12-.03-.16-.06-.01,0-.03,0-.04,0l-3.69-.6c.01.17-.06.35-.22.44-.23.13-.65.19-.88.05-.07-.04-.09-.15-.06-.23.05-.13-.02-.3-.01-.45l-.76-.12c0,.49.1,1.02.35,1.61.94,2.22,2.1,2.3,2.74,1.38.64-.93,2.5,1.56,3.91,1.26,1.23-.26,1.94-1.49,2.06-2.84-.19-.04-.35-.1-.48-.14m-5,.56c-.69-.35-1.03.58-1.55.14-.19-.16-.06-.81.97-.96,1.03-.14,1.91.61,1.79.96-.13.37-.52.21-1.2-.14m3.94.83s.03.07.02.1c.02.19-.06.41-.18.55-.18.2-.52.32-.78.28-.33-.04-.45-.41-.38-.7.12-.5.7-.73,1.09-.48.04.02.08.05.12.08.05.04.08.1.1.16,0,0,0,0,0,0m-5.42-3.51c-.25-.16-.53-.36-.56-.68-.07-.57.78-.57,1.11-.28.1.04.2.11.28.21.19.24.24.49.02.73-.03.03-.06.06-.09.08l2.95.22s.03,0,.04,0c.06-.03.12-.03.16-.03l.37.07s0-.05,0-.07c.02-.27.3-.42.59-.43.13-.02.28-.01.4.03.18.03.35.1.41.26.03.09,0,.17-.06.22-.01.08-.03.17-.06.25l.39.08s.03,0,.04.01c.01,0,.03,0,.04,0l.26.05s.03-.04.06-.05c.1-.05.22-.1.37-.14-.48-1.16-1.6-2.21-3.06-2.8-1.4-.56-2.78-.5-4,.26-.65.41-1.28,1.03-1.58,1.86l1.92.14Zm3.79-1.52c.18.04.43.14.45.35,0,.03,0,.06-.02.09.03.06.05.12.05.21.01.27-.15.67-.47.69-.33.02-.6-.31-.76-.57-.14-.23-.22-.53.04-.7.2-.13.48-.12.71-.07m-2.31-.29c.13-.04.32-.05.45.02.06.03.1.06.14.1.13.03.26.06.36.16.11.1.11.26.07.39-.08.27-.28.6-.59.62-.27.02-.44-.24-.56-.46-.11-.11-.18-.26-.15-.43,0-.18.06-.34.27-.4m4.88,3.15c0,.07-.01.13-.02.19.02-.05.15-.04.15-.04,0,0,.36.24,1.18.4.82.16,1.42-.09,1.42-.09-.62.49-2.57-.04-2.71-.19-.03-.03-.04-.05-.04-.06,0,.12-.01.23,0,.35.45.22,1.23.42,2.21.26,1.35-.21,1.82-.93,1.28-.78-.54.15-.92-.47-2.03-.72-.68-.15-1.13-.01-1.38.12h.05c-.05.18-.08.36-.1.55m.19-.04s.53-.12,1.23-.03c.7.08.98.3.98.3-.73-.29-2.22-.26-2.22-.26m.71-.52c.6-.08,1.24.26,1.71.57.48.3.84.13.84.13-.31.21-.76.03-1.49-.33-.72-.36-1.66-.16-1.66-.16,0,0-.01-.12.59-.2m-2.72-.2l-.18-.03s.04-.04.06-.06l.18.03s-.04.04-.05.06m-.2-.11s-.04.03-.06.06l-.39-.08s-.11.07-.16.23c.08.02.24.04.44.07-.03.1-.05.21-.06.3v.04c-.03.19-.03.5.09.62h.08c-.11-.12-.11-.42-.09-.61v-.04c.01-.09.03-.19.07-.3.06,0,.12.02.19.03-.03.1-.05.21-.06.29v.04c-.03.18-.03.47.07.6h.05s-.76-.03-.76-.03c-.22-.03-.21-.43-.19-.66v-.04c.03-.23.12-.63.34-.6l.44.09Zm-.86.57c.06-.47.22-.64.22-.64h0s0,0,0,0l-6.71-.5c-.22-.03-.41.04-.43.26v.04c-.03.22.14.32.35.35l6.63,1.08s-.13-.11-.08-.58m-6.67-1l.11-.11,6.7.57-.09.16-6.73-.63Zm9.08,1.74c-.05-.14-.04-.34-.02-.48v-.04c.01-.08.03-.17.06-.26.19.03.32.04.32.04v-.13s-.27-.06-.27-.06c.01-.02.02-.04.03-.06l.29.06c-.04.15-.07.3-.09.46-.02.16-.03.32-.02.48h-.3Zm0-.94l-1.27-.25s.03-.04.05-.06l1.25.25s-.02.04-.03.06m-1.36.88c-.1-.13-.09-.41-.07-.59v-.04c.01-.08.03-.19.06-.29.44.06.96.14,1.31.18-.03.09-.04.19-.05.26v.04c-.02.14-.03.35.02.49l-1.27-.05Z"/>
  <path class="cls-1" d="m42.07,11.39c.66.47.89,1.11.61,1.7-.27.56-.93.91-1.43.76-.3-.09-.59-.05-.83.11-.3.19-.46.52-.5.76-.03.25.18.54.38.74-.07.03-.14.08-.19.14-.21-.22-.47-.56-.42-.91.05-.36.28-.72.6-.93.3-.2.66-.24,1.02-.14.39.12.93-.18,1.15-.64.23-.48.04-.99-.53-1.4-.81-.58-1.92-.6-2.97-.05-.9.47-1.53,1.24-1.53,1.88,0,.37.21.66.62.87.72.36,1.13,1.14.92,1.73-.09.27-.47.86-1.9.57-1.16-.23-1.41.67-1.41.68l-.23-.06c.08-.31.55-1.08,1.69-.85.88.18,1.48.03,1.63-.42.16-.47-.21-1.13-.81-1.44-.62-.31-.75-.76-.75-1.08,0-.72.68-1.58,1.65-2.09,1.13-.58,2.33-.56,3.22.07m.28,4.15s0,0,0,0c.02.02.04.05.06.07l.03.04.65.94,1.08,1.55c.16.21.49,1.15-.5,1.91-1,.76-1.81.19-1.97-.02l-1.17-1.4-.77-.93-.03-.04s-.04-.05-.06-.08t0,0s-.04-.05-.06-.08h0s-.04-.06-.05-.09c-.23-.43-.28-1.04.72-1.81.79-.6,1.32-.59,1.68-.4,0,0,0,0,0,0,.03.02.06.03.09.05,0,0,0,0,0,0,.03.02.05.04.08.06,0,0,0,0,0,0,.02.02.05.04.07.06,0,0,0,0,0,0,.02.02.04.04.06.07,0,0,0,0,0,0,.02.02.04.05.06.07m-.31,2.54l-.64-.84c-.1.05-.21.03-.27-.05l-.65-.86c-.06-.08-.04-.19.03-.27l-.22-.29c-.58.46-.77.86-.78,1.2l1.23,1.62c.05,0,.1-.02.15-.03,1.26,1.45,1.64,1.07,1.57,1.02-.09-.05-.42-.31-.95-.89-.07-.08-.14-.16-.21-.24.26-.09.51-.22.74-.38m-1.37-2.01l-.04.03c-.08.06-.09.17-.03.25l.56.74c.06.08.17.09.25.03l.04-.03c.08-.06.09-.17.03-.25l-.56-.74c-.06-.08-.17-.09-.25-.03m1.17-.83c-.33-.09-.78-.02-1.39.42l.22.29c.1-.05.21-.03.27.05l.65.86c.06.08.04.19-.03.27l.63.83c.38-.32.65-.72.82-1.17l-1.18-1.55Zm-1.53.74s-.19.05-.4.35c-.21.3-.23.65.09,1.1.31.43.59.79.83,1.07.13-.02.28-.05.42-.1-.41-.5-.74-1.02-.94-1.49-.16-.38,0-.93,0-.93"/>
</svg>