<?xml version="1.0" encoding="utf-8"?>
<!-- Generator: Adobe Illustrator 27.9.0, SVG Export Plug-In . SVG Version: 6.00 Build 0)  -->
<svg version="1.1" id="Layer_1" xmlns="http://www.w3.org/2000/svg" xmlns:xlink="http://www.w3.org/1999/xlink" x="0px" y="0px"
	 viewBox="0 0 467.3 342.3" style="enable-background:new 0 0 467.3 342.3;" xml:space="preserve">
<style type="text/css">
	.st0{clip-path:url(#SVGID_00000096046431213207939530000017204736910939627666_);}
	.st1{clip-path:url(#SVGID_00000174584528841471292050000009636995579109647550_);fill:#F9FBFC;}
	.st2{clip-path:url(#SVGID_00000174584528841471292050000009636995579109647550_);fill:#DFE0E1;}
	.st3{clip-path:url(#SVGID_00000174584528841471292050000009636995579109647550_);}
	.st4{clip-path:url(#SVGID_00000052783256068053476290000006267984395130112148_);}
	.st5{filter:url(#Adobe_OpacityMaskFilter);}
	
		.st6{clip-path:url(#SVGID_00000153683806247684886200000013693423818908496562_);fill:url(#SVGID_00000059301381760388207320000004451319857664752289_);}
	
		.st7{clip-path:url(#SVGID_00000153683806247684886200000013693423818908496562_);mask:url(#SVGID_00000145045527274670806280000000447848187939040181_);fill:url(#SVGID_00000147197092324699433260000017014174721228181406_);}
	
		.st8{clip-path:url(#SVGID_00000039107885309849661920000000514452630022092969_);fill:url(#SVGID_00000052071514548411901390000003076549809068164484_);}
	
		.st9{clip-path:url(#SVGID_00000127756022147295380770000012735292990000017537_);fill:url(#SVGID_00000173869630785563860790000002646659280007094963_);}
	
		.st10{clip-path:url(#SVGID_00000052094526835110300360000015105387423172853424_);fill:url(#SVGID_00000037692642022736872300000017208464197293766286_);}
	.st11{clip-path:url(#SVGID_00000062895915992846634200000018114269855988973974_);fill:#A7C6D3;}
	.st12{clip-path:url(#SVGID_00000062895915992846634200000018114269855988973974_);fill:#F9FBFC;}
	.st13{clip-path:url(#SVGID_00000062895915992846634200000018114269855988973974_);fill:#DD8EBA;}
	
		.st14{clip-path:url(#SVGID_00000123440784068896708110000015366405542266062771_);fill:url(#SVGID_00000103260102536020477080000000148920962433532853_);}
	
		.st15{clip-path:url(#SVGID_00000152259060544400613290000010398708511660296863_);fill:url(#SVGID_00000119817705050073600310000002425263071565584820_);}
	
		.st16{clip-path:url(#SVGID_00000150071917821881836280000004973354005707871669_);fill:url(#SVGID_00000021841136641920893250000004026419135314066588_);}
	.st17{clip-path:url(#SVGID_00000041981989842899335880000018378290516997315247_);fill:#DD8EBA;}
	.st18{clip-path:url(#SVGID_00000041981989842899335880000018378290516997315247_);fill:#9ACAA1;}
	.st19{clip-path:url(#SVGID_00000041981989842899335880000018378290516997315247_);fill:#748C82;}
	.st20{clip-path:url(#SVGID_00000041981989842899335880000018378290516997315247_);fill:#F7DC02;}
	.st21{clip-path:url(#SVGID_00000041981989842899335880000018378290516997315247_);fill:#89BB4D;}
	.st22{clip-path:url(#SVGID_00000041981989842899335880000018378290516997315247_);fill:#E2911E;}
	.st23{clip-path:url(#SVGID_00000041981989842899335880000018378290516997315247_);fill:#E17E23;}
	.st24{clip-path:url(#SVGID_00000041981989842899335880000018378290516997315247_);fill:#D0217E;}
	.st25{clip-path:url(#SVGID_00000041981989842899335880000018378290516997315247_);fill:#CD2818;}
	.st26{clip-path:url(#SVGID_00000041981989842899335880000018378290516997315247_);fill:#A39FD1;}
	.st27{clip-path:url(#SVGID_00000041981989842899335880000018378290516997315247_);fill:#8E1F77;}
	.st28{clip-path:url(#SVGID_00000041981989842899335880000018378290516997315247_);fill:#6DB8EE;}
	.st29{clip-path:url(#SVGID_00000041981989842899335880000018378290516997315247_);fill:#4F70B7;}
	.st30{clip-path:url(#SVGID_00000041981989842899335880000018378290516997315247_);fill:#1D262D;}
	.st31{clip-path:url(#SVGID_00000041981989842899335880000018378290516997315247_);fill:#CAECFF;}
	.st32{clip-path:url(#SVGID_00000041981989842899335880000018378290516997315247_);fill:#D8D4D0;}
	.st33{clip-path:url(#SVGID_00000041981989842899335880000018378290516997315247_);fill:#FDC3B0;}
	.st34{clip-path:url(#SVGID_00000041981989842899335880000018378290516997315247_);fill:#F9FBFC;}
	.st35{clip-path:url(#SVGID_00000041981989842899335880000018378290516997315247_);fill:#F6A5A0;}
	
		.st36{clip-path:url(#SVGID_00000002353360448938665420000008304309123486103207_);fill:url(#SVGID_00000146474507079992538120000010317482696004251309_);}
	.st37{clip-path:url(#SVGID_00000049919611344948318580000015829866203976350904_);fill:#CCCDCE;}
	.st38{clip-path:url(#SVGID_00000049919611344948318580000015829866203976350904_);fill:#F9FBFC;}
	.st39{clip-path:url(#SVGID_00000049919611344948318580000015829866203976350904_);fill:#DFE0E1;}
	.st40{clip-path:url(#SVGID_00000049919611344948318580000015829866203976350904_);fill:#6DB8EE;}
	.st41{clip-path:url(#SVGID_00000049919611344948318580000015829866203976350904_);fill:#A39FD1;}
	.st42{clip-path:url(#SVGID_00000049919611344948318580000015829866203976350904_);fill:#D0217E;}
	.st43{clip-path:url(#SVGID_00000049919611344948318580000015829866203976350904_);fill:#E2911E;}
	.st44{opacity:0.8;clip-path:url(#SVGID_00000049919611344948318580000015829866203976350904_);}
	.st45{clip-path:url(#SVGID_00000077301382865038799590000010490377510468273837_);fill:#F9FBFC;}
	.st46{clip-path:url(#SVGID_00000049919611344948318580000015829866203976350904_);fill:#FFB8E2;}
	.st47{clip-path:url(#SVGID_00000049919611344948318580000015829866203976350904_);fill:#FDC3B0;}
	.st48{clip-path:url(#SVGID_00000049919611344948318580000015829866203976350904_);fill:#9ACAA1;}
	.st49{clip-path:url(#SVGID_00000049919611344948318580000015829866203976350904_);fill:#1D262D;}
</style>
<g>
	<defs>
		<rect id="SVGID_1_" width="467.3" height="342.3"/>
	</defs>
	<clipPath id="SVGID_00000004544283664475479790000012804793607399146133_">
		<use xlink:href="#SVGID_1_"  style="overflow:visible;"/>
	</clipPath>
	<g style="clip-path:url(#SVGID_00000004544283664475479790000012804793607399146133_);">
		<defs>
			<rect id="SVGID_00000062170229220379346170000008357654815482815155_" width="467.3" height="342.3"/>
		</defs>
		<clipPath id="SVGID_00000107576175182934574710000015259223216747009451_">
			<use xlink:href="#SVGID_00000062170229220379346170000008357654815482815155_"  style="overflow:visible;"/>
		</clipPath>
		<path style="clip-path:url(#SVGID_00000107576175182934574710000015259223216747009451_);fill:#F9FBFC;" d="M462.7,173.1
			L187.1,331.4c-13,7.5-29.1,7.1-41.7-1L4.2,237.7c-5.7-3.7-5.5-12.1,0.4-15.5L288.7,60.4l174,97
			C468.8,160.8,468.8,169.6,462.7,173.1"/>
		<path style="clip-path:url(#SVGID_00000107576175182934574710000015259223216747009451_);fill:#DFE0E1;" d="M218.2,254.2
			L198.8,242l-23.7,13.5l19.3,12.2L218.2,254.2z M348.4,180l-20-11.8l-23.7,13.5l19.9,11.9L348.4,180z M322.3,194.9L302.4,183
			l-23.7,13.5l19.8,11.9L322.3,194.9z M296.3,209.7l-19.8-11.9l-23.7,13.5l19.6,12L296.3,209.7z M196.2,240.4l-19.4-12.2l-23.6,13.4
			l19.3,12.2L196.2,240.4z M113.2,185.8l19.4,12.2l23.3-13.3l-19.5-12.1L113.2,185.8z M109.7,214l19.3,12.2l23.4-13.3l-19.4-12.2
			L109.7,214z M170.3,255.2l-19.3-12.2l-23.6,13.4l19.1,12.3L170.3,255.2z M84.2,228.5l19.1,12.3l23.4-13.3l-19.3-12.2L84.2,228.5z
			 M122.8,256l-19.1-12.3L80.3,257l19,12.4L122.8,256z M144.5,269.9l-19.1-12.3L101.8,271l19,12.4L144.5,269.9z M400.5,150.3
			l-20.3-11.6l-23.7,13.5l20.1,11.7L400.5,150.3z M214.6,128l19.9,11.9l23.3-13.3l-20-11.8L214.6,128z M189.3,142.4l19.8,11.9
			l23.3-13.3l-19.9-11.9L189.3,142.4z M138.5,171.3l19.5,12.1l23.3-13.3l-19.6-12L138.5,171.3z M240,113.5l20,11.8l23.3-13.2
			l-20.1-11.7L240,113.5z M163.9,156.9l19.6,12l23.3-13.3L187,143.7L163.9,156.9z M265.4,99.1l20.1,11.7l23.3-13.2l-20.3-11.6
			L265.4,99.1z M135.1,199.5l19.4,12.2l23.4-13.3l-19.5-12.1L135.1,199.5z M333.7,138.9l20.1,11.7l23.7-13.5l-20.3-11.6L333.7,138.9
			z M334,109.5l21.2-12.1l-20.6-11.5l-20.9,11.9L334,109.5z M288.2,112.4l20.1,11.7l23.4-13.3l-20.3-11.6L288.2,112.4z M374.4,165.2
			l-20.1-11.7l-23.7,13.5l20,11.8L374.4,165.2z M270.2,224.5l-19.6-12L226.9,226l19.5,12.1L270.2,224.5z M234,169.5l19.8,11.9
			l23.6-13.4l-19.9-11.9L234,169.5z M303.1,153.3l-20-11.8l-23.4,13.3l19.9,11.9L303.1,153.3z M182.7,198.7l19.5,12.1l23.5-13.4
			l-19.6-12L182.7,198.7z M157.1,213.3l19.4,12.2L200,212l-19.5-12.1L157.1,213.3z M208.3,184.1l19.6,12l23.6-13.4l-19.8-11.9
			L208.3,184.1z M131.5,227.9l19.3,12.2l23.5-13.4l-19.4-12.2L131.5,227.9z M56.6,244.3l-22.7,12.9l18.9,12.4l22.8-13L56.6,244.3z
			 M148.5,241.3l-19.3-12.2l-23.4,13.3l19.1,12.3L148.5,241.3z M402.8,149l22.2-12.7l-20.6-11.5l-21.9,12.5L402.8,149z M356.9,122.7
			l21.5-12.3l-20.6-11.5L336.6,111L356.9,122.7z M222.1,225.7l-19.5-12.1L179,227l19.4,12.2L222.1,225.7z M311,125.6l20.1,11.7
			l23.6-13.4l-20.3-11.6L311,125.6z M262.6,126.9l20,11.8l23.4-13.3l-20.1-11.7L262.6,126.9z M237.1,141.4l19.9,11.9l23.4-13.3
			l-20-11.8L237.1,141.4z M248,210.9l-19.6-12l-23.6,13.4l19.5,12.1L248,210.9z M211.6,156l19.8,11.9l23.4-13.3l-19.9-11.9
			L211.6,156z M285.3,140.2l20,11.8l23.6-13.4l-20.1-11.7L285.3,140.2z M186.1,170.5l19.6,12l23.4-13.3l-19.8-11.9L186.1,170.5z
			 M273.9,196.2l-19.8-11.9l-23.6,13.4l19.6,12L273.9,196.2z M299.8,181.4l-19.9-11.9L256.3,183l19.8,11.9L299.8,181.4z
			 M325.7,166.7l-20-11.8l-23.6,13.4l19.9,11.9L325.7,166.7z M160.6,185l19.5,12.1l23.4-13.3l-19.6-12L160.6,185z M351.6,151.9
			l-20.1-11.7l-23.6,13.4l20,11.8L351.6,151.9z M244.2,239.4l-19.5-12.1L201,240.8l19.4,12.2L244.2,239.4z M187.8,297.7l-19.1-12.3
			L144.8,299l19,12.4L187.8,297.7z M142.7,300.2l-23.2,13.2l18.9,12.4l23.3-13.3L142.7,300.2z M218.7,283.2l24.9,15.8l24-13.8
			l-25-15.7L218.7,283.2z M166.4,313l24.8,16.1l24-13.8l-24.9-16L166.4,313z M35,230.3l-22.5,12.8l18.9,12.4l22.7-12.9L35,230.3z
			 M192.5,298.1l24.9,16l24-13.8l-24.9-15.8L192.5,298.1z M159.1,156.6L140.2,145l-23,13.1l18.8,11.6L159.1,156.6z M37.2,229
			l19,12.4l23.3-13.3l-19.1-12.3L37.2,229z M133.8,171L115,159.3l-23,13.1l18.7,11.7L133.8,171z M83.1,199.8L64.6,188l-23,13.1
			L60,213L83.1,199.8z M108.5,185.4l-18.7-11.7l-23,13.1l18.6,11.8L108.5,185.4z M426.1,165l-24,13.7l25.2,14.7l24-13.8
			c-0.1-0.1-0.1-0.1-0.2-0.2L426.1,165z M14.4,216.9l2.3-1.1l17.9,11.7l23.1-13.2l-18.4-11.8L4.6,222.2c-5.9,3.4-6.1,11.8-0.4,15.5
			l5.8,3.8l22.5-12.8L14.4,216.9z M184.4,142.1l-19-11.5l-23,13.1l18.9,11.6L184.4,142.1z M425.7,162.2l22.6-12.9l-20.6-11.5
			l-22.3,12.7L425.7,162.2z M462.7,157.4l-11.7-6.5l-22.6,12.9l25.3,14.5l9.1-5.2C468.8,169.6,468.8,160.8,462.7,157.4 M140.9,327.5
			l4.5,3c12.6,8.1,28.7,8.4,41.7,1l1.9-1.1l-24.8-16.1L140.9,327.5z M271,253.4l25,15.5l24-13.8L295,239.7L271,253.4z M375.9,193.6
			l25.2,14.8l24.1-13.8L399.9,180L375.9,193.6z M244.8,268.3l25,15.6l24-13.8l-25-15.5L244.8,268.3z M297.2,238.4l25.1,15.3l24-13.8
			l-25.1-15.2L297.2,238.4z M349.7,208.6l25.1,15l24.1-13.8l-25.2-14.9L349.7,208.6z M323.4,223.5l25.1,15.2l24-13.8l-25.2-15
			L323.4,223.5z M213.9,282.8l-19.3-12.2l-23.8,13.6l19.1,12.3L213.9,282.8z M192.1,269l-19.3-12.2l-23.7,13.5l19.1,12.3L192.1,269z
			 M87.9,200.2l19.3,12.2l23.3-13.3L111,187L87.9,200.2z M166.1,283.8L147,271.5L123.3,285l19,12.4L166.1,283.8z M240.1,267.9
			l-19.4-12.2l-23.8,13.6l19.3,12.2L240.1,267.9z M266.3,253l-19.5-12.1l-23.8,13.6l19.4,12.2L266.3,253z M99.6,272.2l-22.9,13.1
			l18.9,12.4l23-13.1L99.6,272.2z M209.8,127.7l-19.2-11.4l-23,13.1l19,11.5L209.8,127.7z M121.1,286.2l-23.1,13.1l18.9,12.4
			l23.2-13.2L121.1,286.2z M62.5,214.6l19.1,12.3l23.3-13.3l-19.3-12.2L62.5,214.6z M292.4,238.1l-19.6-12l-23.8,13.6l19.5,12.1
			L292.4,238.1z M78.1,258.3l-22.8,13l18.9,12.4l22.9-13L78.1,258.3z M101.2,242.1L82,229.8L58.7,243l19,12.4L101.2,242.1z
			 M308.5,71.4l-19.8-11.1l-20.2,11.5l19.5,11.2L308.5,71.4z M285.8,84.4l-19.5-11.2l-23,13.1l19.4,11.3L285.8,84.4z M235.1,113.3
			l-19.3-11.4l-23,13.1l19.2,11.4L235.1,113.3z M260.5,98.8l-19.4-11.3l-23,13.1l19.3,11.4L260.5,98.8z M311,96.3l20.8-11.9
			L311.2,73l-20.5,11.7L311,96.3z M318.6,223.2l-19.8-11.9L275,224.8l19.6,12L318.6,223.2z M371,193.4l-20-11.8l-23.9,13.6L347,207
			L371,193.4z M344.8,208.3l-19.9-11.9L301.1,210l19.8,11.9L344.8,208.3z M423.5,163.5l-20.3-11.6l-23.9,13.6l20.1,11.7L423.5,163.5
			z M379.8,135.8l21.9-12.5l-20.6-11.5l-21.6,12.3L379.8,135.8z M397.2,178.4l-20.1-11.7l-23.9,13.6l20,11.8L397.2,178.4z"/>
		<g style="clip-path:url(#SVGID_00000107576175182934574710000015259223216747009451_);">
			<g>
				<defs>
					<rect id="SVGID_00000132768891940174440640000002353262030819663746_" x="319.1" y="142.3" width="110.5" height="97.5"/>
				</defs>
				<clipPath id="SVGID_00000067194746471343191150000002962870537917904546_">
					<use xlink:href="#SVGID_00000132768891940174440640000002353262030819663746_"  style="overflow:visible;"/>
				</clipPath>
				<g style="clip-path:url(#SVGID_00000067194746471343191150000002962870537917904546_);">
					<defs>
						<polygon id="SVGID_00000050662552909049697150000005791888566132027782_" points="334.1,172.3 319.1,176.8 319.1,239.8 
							429.6,190.8 429.6,142.3 						"/>
					</defs>
					<clipPath id="SVGID_00000062888599833772493450000015054596515402346134_">
						<use xlink:href="#SVGID_00000050662552909049697150000005791888566132027782_"  style="overflow:visible;"/>
					</clipPath>
					<defs>
						<filter id="Adobe_OpacityMaskFilter" filterUnits="userSpaceOnUse" x="298" y="118.4" width="152.7" height="145.3">
							<feColorMatrix  type="matrix" values="1 0 0 0 0  0 1 0 0 0  0 0 1 0 0  0 0 0 1 0"/>
						</filter>
					</defs>
					
						<mask maskUnits="userSpaceOnUse" x="298" y="118.4" width="152.7" height="145.3" id="SVGID_00000161589802351665096510000005087396475533068187_">
						<g class="st5">
							
								<linearGradient id="SVGID_00000140724836636399694710000001727283927199694756_" gradientUnits="userSpaceOnUse" x1="0" y1="342.253" x2="1" y2="342.253" gradientTransform="matrix(-16.5 -72.5002 -72.5002 16.5 25193.209 -5432.3604)">
								<stop  offset="0" style="stop-color:#000000"/>
								<stop  offset="0.2229" style="stop-color:#000000"/>
								<stop  offset="0.2752" style="stop-color:#1A1A1A"/>
								<stop  offset="0.4459" style="stop-color:#6A6A6A"/>
								<stop  offset="0.5975" style="stop-color:#AAAAAA"/>
								<stop  offset="0.7244" style="stop-color:#D8D8D8"/>
								<stop  offset="0.8217" style="stop-color:#F4F4F4"/>
								<stop  offset="0.8778" style="stop-color:#FFFFFF"/>
								<stop  offset="1" style="stop-color:#FFFFFF"/>
							</linearGradient>
							
								<polygon style="clip-path:url(#SVGID_00000062888599833772493450000015054596515402346134_);fill:url(#SVGID_00000140724836636399694710000001727283927199694756_);" points="
								324.6,263.7 298,147.1 424.2,118.4 450.7,235 							"/>
						</g>
					</mask>
					
						<linearGradient id="SVGID_00000178917119116887573560000007481228600725023635_" gradientUnits="userSpaceOnUse" x1="0" y1="342.253" x2="1" y2="342.253" gradientTransform="matrix(-16.5 -72.5002 -72.5002 16.5 25193.209 -5432.3604)">
						<stop  offset="0" style="stop-color:#DD8EBA"/>
						<stop  offset="0.2229" style="stop-color:#DD8EBA"/>
						<stop  offset="0.6129" style="stop-color:#F49DCE"/>
						<stop  offset="0.8778" style="stop-color:#FFA4D7"/>
						<stop  offset="1" style="stop-color:#FFA4D7"/>
					</linearGradient>
					
						<polygon style="clip-path:url(#SVGID_00000062888599833772493450000015054596515402346134_);mask:url(#SVGID_00000161589802351665096510000005087396475533068187_);fill:url(#SVGID_00000178917119116887573560000007481228600725023635_);" points="
						324.6,263.7 298,147.1 424.2,118.4 450.7,235 					"/>
				</g>
			</g>
		</g>
	</g>
	<g style="clip-path:url(#SVGID_00000004544283664475479790000012804793607399146133_);">
		<defs>
			<path id="SVGID_00000106143889021307578050000003006463552194539405_" d="M0,230.6L0,230.6c0-0.3,0-0.3,0-0.3
				C0,230.3,0,230.6,0,230.6"/>
		</defs>
		<clipPath id="SVGID_00000109741497456576894880000016323824353392921776_">
			<use xlink:href="#SVGID_00000106143889021307578050000003006463552194539405_"  style="overflow:visible;"/>
		</clipPath>
		
			<linearGradient id="SVGID_00000013872745285113404460000001333430498723549572_" gradientUnits="userSpaceOnUse" x1="0" y1="342.2395" x2="1" y2="342.2395" gradientTransform="matrix(3.600000e-02 0 0 -3.600000e-02 0 242.7526)">
			<stop  offset="0" style="stop-color:#F9FBFC"/>
			<stop  offset="0.1491" style="stop-color:#F9FBFC"/>
			<stop  offset="0.2229" style="stop-color:#E4E5E6"/>
			<stop  offset="0.514" style="stop-color:#EFF0F1"/>
			<stop  offset="0.8938" style="stop-color:#F9FBFC"/>
			<stop  offset="1" style="stop-color:#F9FBFC"/>
		</linearGradient>
		
			<rect x="0" y="230.3" style="clip-path:url(#SVGID_00000109741497456576894880000016323824353392921776_);fill:url(#SVGID_00000013872745285113404460000001333430498723549572_);" width="0" height="0.3"/>
	</g>
	<g style="clip-path:url(#SVGID_00000004544283664475479790000012804793607399146133_);">
		<defs>
			<path id="SVGID_00000008858453829703486880000010003649665436540052_" d="M462.7,173.1l-4.1,2.4l-271.5,156
				c-13,7.5-29.1,7.1-41.7-1L4.2,237.7c-0.3-0.2-0.6-0.4-0.9-0.7c-0.1-0.1-0.2-0.2-0.3-0.3c-0.2-0.2-0.4-0.3-0.5-0.5
				c-0.1-0.1-0.2-0.2-0.3-0.3c-0.1-0.2-0.3-0.3-0.4-0.5c-0.1-0.1-0.2-0.3-0.3-0.4c-0.1-0.2-0.2-0.3-0.3-0.5C1.1,234.3,1,234.2,1,234
				c-0.1-0.2-0.1-0.3-0.2-0.5c-0.1-0.2-0.1-0.3-0.2-0.5c0,0,0-0.1,0-0.1c-0.2-0.5-0.3-1-0.4-1.6c0-0.1,0-0.1,0-0.2c0,0,0,0,0-0.1
				c0-0.1,0-0.2,0-0.2c0-0.1,0-0.2,0-0.3v0v5.1h0c0,2.9,1.4,5.7,4.2,7.5l141.2,92.8c6.6,4.2,14.1,6.3,21.7,6.3h0
				c6.9,0,13.8-1.8,20.1-5.4l275.6-158.4c3-1.7,4.5-4.7,4.5-7.7h0v-5.6C467.3,168.3,465.8,171.3,462.7,173.1"/>
		</defs>
		<clipPath id="SVGID_00000079473957228695791740000011698623904484006569_">
			<use xlink:href="#SVGID_00000008858453829703486880000010003649665436540052_"  style="overflow:visible;"/>
		</clipPath>
		
			<linearGradient id="SVGID_00000042726222012553115430000010026774396783878077_" gradientUnits="userSpaceOnUse" x1="0" y1="342.253" x2="1" y2="342.253" gradientTransform="matrix(67.2112 0 0 -67.2112 159.0921 23256.9648)">
			<stop  offset="0" style="stop-color:#F9FBFC"/>
			<stop  offset="0.1491" style="stop-color:#F9FBFC"/>
			<stop  offset="0.2229" style="stop-color:#E4E5E6"/>
			<stop  offset="0.514" style="stop-color:#EFF0F1"/>
			<stop  offset="0.8938" style="stop-color:#F9FBFC"/>
			<stop  offset="1" style="stop-color:#F9FBFC"/>
		</linearGradient>
		
			<rect x="0" y="165.2" style="clip-path:url(#SVGID_00000079473957228695791740000011698623904484006569_);fill:url(#SVGID_00000042726222012553115430000010026774396783878077_);" width="467.2" height="177"/>
	</g>
	<g style="clip-path:url(#SVGID_00000004544283664475479790000012804793607399146133_);">
		<defs>
			<path id="SVGID_00000121977897254332300500000017346883990176893369_" d="M462.7,173.1l-4.1,2.4l-271.5,156
				c-13,7.5-29.1,7.1-41.7-1L4.2,237.7c-0.3-0.2-0.6-0.4-0.9-0.7c-0.1-0.1-0.2-0.2-0.3-0.3c-0.2-0.2-0.4-0.3-0.5-0.5
				c-0.1-0.1-0.2-0.2-0.3-0.3c-0.1-0.2-0.3-0.3-0.4-0.5c-0.1-0.1-0.2-0.3-0.3-0.4c-0.1-0.2-0.2-0.3-0.3-0.5C1.1,234.3,1,234.2,1,234
				c-0.1-0.2-0.1-0.3-0.2-0.5c-0.1-0.2-0.1-0.3-0.2-0.5c0,0,0-0.1,0-0.1c-0.2-0.5-0.3-1-0.4-1.6c0-0.1,0-0.1,0-0.2c0,0,0,0,0-0.1
				c0-0.1,0-0.2,0-0.2c0-0.1,0-0.2,0-0.3v0v5.1h0c0,2.9,1.4,5.7,4.2,7.5l141.2,92.8c6.6,4.2,14.1,6.3,21.7,6.3h0
				c6.9,0,13.8-1.8,20.1-5.4l275.6-158.4c3-1.7,4.5-4.7,4.5-7.7h0v-5.6C467.3,168.3,465.8,171.3,462.7,173.1"/>
		</defs>
		<clipPath id="SVGID_00000174597972206738625630000006963730199766034104_">
			<use xlink:href="#SVGID_00000121977897254332300500000017346883990176893369_"  style="overflow:visible;"/>
		</clipPath>
		
			<linearGradient id="SVGID_00000018951490110560127070000014215504874154476951_" gradientUnits="userSpaceOnUse" x1="0" y1="342.253" x2="1" y2="342.253" gradientTransform="matrix(67.2112 0 0 -67.2112 159.0921 23256.9648)">
			<stop  offset="0" style="stop-color:#F9FBFC"/>
			<stop  offset="0.1491" style="stop-color:#F9FBFC"/>
			<stop  offset="0.2229" style="stop-color:#E4E5E6"/>
			<stop  offset="0.514" style="stop-color:#EFF0F1"/>
			<stop  offset="0.8938" style="stop-color:#F9FBFC"/>
			<stop  offset="1" style="stop-color:#F9FBFC"/>
		</linearGradient>
		
			<rect x="0" y="165.2" style="clip-path:url(#SVGID_00000174597972206738625630000006963730199766034104_);fill:url(#SVGID_00000018951490110560127070000014215504874154476951_);" width="467.2" height="177"/>
	</g>
	<g style="clip-path:url(#SVGID_00000004544283664475479790000012804793607399146133_);">
		<defs>
			<rect id="SVGID_00000178171614346473488340000001190673613459184520_" width="467.3" height="342.3"/>
		</defs>
		<clipPath id="SVGID_00000033326995206522357170000014410685621978504127_">
			<use xlink:href="#SVGID_00000178171614346473488340000001190673613459184520_"  style="overflow:visible;"/>
		</clipPath>
		<path style="clip-path:url(#SVGID_00000033326995206522357170000014410685621978504127_);fill:#A7C6D3;" d="M467.3,165
			c0,0.1,0,0.1,0,0.2L467.3,165L467.3,165z"/>
		<polygon style="clip-path:url(#SVGID_00000033326995206522357170000014410685621978504127_);fill:#F9FBFC;" points="97.9,182.9 
			97.7,288.4 25.1,240.9 25.3,135.4 		"/>
		<path style="clip-path:url(#SVGID_00000033326995206522357170000014410685621978504127_);fill:#DD8EBA;" d="M354.8,0
			c-11.3,1.8-51.5,9.5-86.5,33.8c-18,12.5-34.1,29.3-43.2,51.7c-18.4,45.6-32.8,66.5-52.4,80.2c-0.8,0.5-1.5,1.1-2.3,1.6
			c-39.5,26.4-68.7,10.7-75.1,6.6l-64.9-42.2l-5.2,3.6l72.6,47.5c6.4,4.2,33.9,17.7,73.8-9.2c0.8-0.5,1.6-1.1,2.3-1.6
			c19.8-13.9,36.4-32.7,55-79.1c9.2-22.9,25.5-40,43.6-52.7c40.6-28.4,88-34.6,90.5-34.9L354.8,0z"/>
	</g>
	<g style="clip-path:url(#SVGID_00000004544283664475479790000012804793607399146133_);">
		<defs>
			<path id="SVGID_00000101081975523507339790000008385932938598446524_" d="M357.9,6.2c-5.4,0.9-14.7,2.8-25.9,6.2
				c-17.2,5.1-39.1,13.8-59.4,27.9c-11.8,8.2-22.8,18.3-31.5,30.6c-4.3,6-8,12.5-11.1,19.6c-0.4,0.8-0.7,1.7-1,2.5
				c-1.4,3.4-2.7,6.6-4.1,9.8c-7.5,17.4-14.7,30.5-22.1,40.7c-9.2,13-18.6,21.5-28.9,28.6c-0.8,0.5-1.5,1.1-2.3,1.6
				c-9.9,6.7-19.1,10.9-27.3,13.3c-3,0.9-5.8,1.6-8.6,2c-2.2,0.4-4.3,0.6-6.3,0.8c-1.9,0.1-3.7,0.2-5.4,0.2c-1.8,0-3.5-0.1-5.1-0.3
				c-1.9-0.2-3.6-0.4-5.3-0.8c-2.2-0.4-4.2-1-6-1.5c-4.7-1.5-8.1-3.4-9.8-4.5l-0.2,105.5c1.8,1.2,5.1,3,9.8,4.5
				c1.8,0.6,3.8,1.1,6,1.5c1.6,0.3,3.4,0.6,5.3,0.8c1.6,0.2,3.3,0.3,5.1,0.3c1.7,0,3.5,0,5.4-0.2c2-0.2,4.1-0.4,6.3-0.8
				c2.7-0.5,5.6-1.1,8.6-2c8.2-2.5,17.4-6.7,27.3-13.3c0.8-0.5,1.6-1.1,2.3-1.6c10.3-7.2,19.6-15.7,28.9-28.6
				c7.3-10.3,14.5-23.3,22.1-40.7c1.3-3.1,2.7-6.4,4.1-9.8c0.3-0.8,0.7-1.7,1-2.5c3.1-7.1,6.8-13.6,11.1-19.6
				c8.8-12.3,19.8-22.4,31.5-30.6c20.2-14.2,42.1-22.8,59.4-27.9c11.2-3.4,20.5-5.2,25.9-6.2c2.9-0.5,4.8-0.7,5.2-0.8l0.2-105.5
				C362.6,5.4,360.8,5.7,357.9,6.2"/>
		</defs>
		<clipPath id="SVGID_00000147192951991844976910000016431034382876015272_">
			<use xlink:href="#SVGID_00000101081975523507339790000008385932938598446524_"  style="overflow:visible;"/>
		</clipPath>
		
			<linearGradient id="SVGID_00000170980231222425590530000012901810933760882310_" gradientUnits="userSpaceOnUse" x1="7.974240e-07" y1="342.253" x2="1" y2="342.253" gradientTransform="matrix(239.189 0 0 -239.189 97.6688 82013.6094)">
			<stop  offset="0" style="stop-color:#F9FBFC"/>
			<stop  offset="0.1491" style="stop-color:#F9FBFC"/>
			<stop  offset="0.2229" style="stop-color:#E4E5E6"/>
			<stop  offset="0.514" style="stop-color:#EFF0F1"/>
			<stop  offset="0.8938" style="stop-color:#F9FBFC"/>
			<stop  offset="1" style="stop-color:#F9FBFC"/>
		</linearGradient>
		
			<rect x="97.7" y="5.4" style="clip-path:url(#SVGID_00000147192951991844976910000016431034382876015272_);fill:url(#SVGID_00000170980231222425590530000012901810933760882310_);" width="265.4" height="290.2"/>
	</g>
	<g style="clip-path:url(#SVGID_00000004544283664475479790000012804793607399146133_);">
		<defs>
			<path id="SVGID_00000181057828234278115770000005126102326351466630_" d="M348.8,74.5c-71.4,27.6-90.3,51.4-106.2,77.2
				c-16.9,27.6-30.5,73.6-53.9,96c-35.7,34.1-86-2.3-86-2.3l-77.6-58.1v35.9c0,0,79.8,83.1,148.7,46.5c11.5-6.1,17-12.8,20.4-16.5
				c0,0,0,0,0,0c0,0,0,0,0,0c0,0,0,0,0,0c0,0,0,0,0,0c0,0,0,0,0,0c0,0,0,0,0,0c0,0,0,0,0,0c0,0,0,0,0,0c3.3-3.8,6.1-7.5,10.2-14.2
				c20.6-33.5,28.2-74.1,57.4-102.8c26.4-25.9,62.7-39,91.5-48.3c6.9-2.2,9.6-4,9.6-4l0-15.2C362.9,68.6,360.4,70,348.8,74.5"/>
		</defs>
		<clipPath id="SVGID_00000165916561359464400930000011459382684545560963_">
			<use xlink:href="#SVGID_00000181057828234278115770000005126102326351466630_"  style="overflow:visible;"/>
		</clipPath>
		
			<linearGradient id="SVGID_00000049906582819751299540000018064466863465250721_" gradientUnits="userSpaceOnUse" x1="0" y1="342.196" x2="1" y2="342.196" gradientTransform="matrix(239.1888 0 0 -239.1888 97.456 82036.8516)">
			<stop  offset="0" style="stop-color:#D05C99"/>
			<stop  offset="0.1491" style="stop-color:#D05C99"/>
			<stop  offset="0.2229" style="stop-color:#D0217E"/>
			<stop  offset="0.4081" style="stop-color:#D03587"/>
			<stop  offset="0.7122" style="stop-color:#D05194"/>
			<stop  offset="0.8882" style="stop-color:#D05C99"/>
			<stop  offset="1" style="stop-color:#D05C99"/>
		</linearGradient>
		
			<rect x="25.1" y="68.6" style="clip-path:url(#SVGID_00000165916561359464400930000011459382684545560963_);fill:url(#SVGID_00000049906582819751299540000018064466863465250721_);" width="337.8" height="237.5"/>
	</g>
	<g style="clip-path:url(#SVGID_00000004544283664475479790000012804793607399146133_);">
		<defs>
			<path id="SVGID_00000023261663240765613010000002272666479804258966_" d="M353,87c-17.1,5.5-62.5,20.2-91.4,49.3
				c-32.7,33-44.2,89.1-68.8,115.5c-16.3,17.5-46.6,38.8-95.1,9l-72.6-47.5v32.1L97.7,293c6.4,4.2,33.8,17.7,73.8-9.2
				c0.8-0.5,1.6-1.1,2.3-1.6c19.8-13.9,36.4-32.7,55-79.1c9.2-22.9,25.5-40,43.6-52.7c40.5-28.4,87.7-34.5,90.4-34.9
				c0-9.2,0-23,0.1-32.2C361.5,84.1,360.7,84.5,353,87"/>
		</defs>
		<clipPath id="SVGID_00000001632038063797438160000016755230025963949954_">
			<use xlink:href="#SVGID_00000023261663240765613010000002272666479804258966_"  style="overflow:visible;"/>
		</clipPath>
		
			<linearGradient id="SVGID_00000101087218014772354250000000415968505941573800_" gradientUnits="userSpaceOnUse" x1="0" y1="342.2309" x2="1" y2="342.2309" gradientTransform="matrix(239.1888 0 0 -239.1888 97.4558 82054.7031)">
			<stop  offset="0" style="stop-color:#FFA4D7"/>
			<stop  offset="0.1458" style="stop-color:#FFA4D7"/>
			<stop  offset="0.1917" style="stop-color:#E895C3"/>
			<stop  offset="0.2229" style="stop-color:#DD8EBA"/>
			<stop  offset="0.6129" style="stop-color:#F49DCE"/>
			<stop  offset="0.8778" style="stop-color:#FFA4D7"/>
			<stop  offset="1" style="stop-color:#FFA4D7"/>
		</linearGradient>
		
			<rect x="25.1" y="83.2" style="clip-path:url(#SVGID_00000001632038063797438160000016755230025963949954_);fill:url(#SVGID_00000101087218014772354250000000415968505941573800_);" width="337.8" height="227.4"/>
	</g>
	<g style="clip-path:url(#SVGID_00000004544283664475479790000012804793607399146133_);">
		<defs>
			<rect id="SVGID_00000121256232079554883550000004547564881960487842_" width="467.3" height="342.3"/>
		</defs>
		<clipPath id="SVGID_00000181782482729757879190000004481636611586750108_">
			<use xlink:href="#SVGID_00000121256232079554883550000004547564881960487842_"  style="overflow:visible;"/>
		</clipPath>
		<path style="clip-path:url(#SVGID_00000181782482729757879190000004481636611586750108_);fill:#DD8EBA;" d="M218.9,138.6
			c-2.3,4.7-4.5,9-6.8,12.9l-0.1,30.7c1.2-2.1,2.4-4.3,3.6-6.6l0-10.8c1-2,2.1-4.1,3.1-6.2c1.2-2.4,2-4.5,3-7.1l0-8.5
			c-0.1,2.1-0.7,5.6-2.9,10.3c-1,1.9-2.2,4.5-3.2,6.4c0-2.9,0-6.7,0-9.6c4-8,4-8,4.3-8.4c0.5-0.8,1.2-1.6,1.6-0.7
			c0.1,0.3,0.2,1,0.2,1.2l0-8.9C221.2,134.2,220.3,135.7,218.9,138.6"/>
		<path style="clip-path:url(#SVGID_00000181782482729757879190000004481636611586750108_);fill:#9ACAA1;" d="M228.4,116.6
			c-3.5,8.5-3.9,9.4-6.6,15.4l0,1.3c2.3-3.6,3.2-2.7,3.5-1.3c0.1,0.4,0.1,0.8,0.1,1l0-4.1c3.6-8.7,3.6-8.7,3.7-9
			c0.9-1.8,1.2-1.1,1.3-0.9c0.1,0.2,0.3,0.8,0.2,2.7c0.2-2.2,0.6-6.2,2-11.6C231.1,110,229.4,114.1,228.4,116.6"/>
		<path style="clip-path:url(#SVGID_00000181782482729757879190000004481636611586750108_);fill:#9ACAA1;" d="M230.6,122.5
			c-0.4,3.8-1.7,7.1-2.2,8.3c-1,2.5-2,4.8-3,7.2l0-2.4c-0.4,5.7-2.2,11.8-3.7,15.9l0,11.2c1.2-2.6,2.4-5.4,3.6-8.3l0-11.2
			c1-2.3,1.9-4.6,2.9-7.1c1.1,1.3,1.1,1.3,2.6,5c2.1-4.3,2.1-4.4,3.4-6.7v-0.1c-1.8,1.8-3.9,2.7-3.9-6l0-1.5
			C230.5,125.3,230.5,124.1,230.6,122.5"/>
		<path style="clip-path:url(#SVGID_00000181782482729757879190000004481636611586750108_);fill:#748C82;" d="M221.8,133.2l0,8.9
			c0,0.3,0,0.5,0,0.9l0,8.5c1.5-4.1,3.3-10.1,3.7-15.9l0-2.7c-0.2-2.5-1.1-2.9-2.5-1.2C222.3,132.4,221.8,133.2,221.8,133.2"/>
		<path style="clip-path:url(#SVGID_00000181782482729757879190000004481636611586750108_);fill:#F7DC02;" d="M237.2,125.3
			c-0.8,1.2-2.5,4-3.3,0.8c-0.3-1.4-0.3-3.4-0.3-4.4l0-1.5c0.1-13.1,5-19.4,6.5-17.9c1,1,1,4.5,1,5.8l0,1.5
			C241,115.9,239.7,121.2,237.2,125.3 M237.2,99c-1.3,2.1-3,5.3-4.5,11.1c0.6,0.2,1.1,0.7,1.1,4c0,4.1-0.8,7.9-2.7,14
			c0.9,1.8,1.8,3.4,3.3,6l0,0.2c1.5-1.6,4.2-5.6,6.8-11.6c0-9.3,0-18.6,0.1-27.9C240.7,95,239.3,95.7,237.2,99"/>
		<path style="clip-path:url(#SVGID_00000181782482729757879190000004481636611586750108_);fill:#89BB4D;" d="M232.7,110.1
			c-1,3.8-1.6,7.6-2,11.6c0,0.2,0,0.5-0.1,0.9c-0.1,1.5-0.2,2.8-0.2,4.2l0,1.5c0,6.9,1.2,8.7,3.9,6l0-0.2c-1-1.8-2-3.7-3.3-6
			c1.9-6.1,2.7-9.9,2.7-14C233.8,111.5,233.4,110.3,232.7,110.1"/>
		<path style="clip-path:url(#SVGID_00000181782482729757879190000004481636611586750108_);fill:#E2911E;" d="M245.2,113.7l0-20.5
			c0.7-0.9,1.4-1.7,2.1-2.5c4.2-4.7,5.1-0.8,5.3,2c0,0.6,0,1.2,0,1.6l0,1.6c-0.1,6-1.9,11-5.4,15.3L245.2,113.7z M247.4,85.5
			c-2.6,3.1-3.3,4-6.2,7.8l0,1.4c1.5-0.5,4-0.2,4,8l0,1.4c-0.1,6-1.4,12-4,18.4l-0.1,0.2l0,1.4c2-2.7,4-5.4,6.2-7.9
			c1-1.2,4.2-5,6.9-11.1c-1-0.9-1.5-2.3-1.5-5l0-18.4C251.2,82,249.3,83.3,247.4,85.5"/>
		<path style="clip-path:url(#SVGID_00000181782482729757879190000004481636611586750108_);fill:#E17E23;" d="M241.2,94.8
			c0,9.3,0,18.6-0.1,27.9c4-9.5,4.1-16.3,4.1-18.6l0-1.4C245.2,94.6,242.7,94.3,241.2,94.8L241.2,94.8z"/>
		<path style="clip-path:url(#SVGID_00000181782482729757879190000004481636611586750108_);fill:#D0217E;" d="M271.2,64
			c-1.6,1.1-3.6,2.7-5.2,3.9c0,4.1,0,8.2,0,12.3c0.4-5.7,2.2-10.8,5.2-15L271.2,64z"/>
		<path style="clip-path:url(#SVGID_00000181782482729757879190000004481636611586750108_);fill:#D0217E;" d="M257.5,92.3
			c-0.1,2.7-0.6,7-3.2,12.8c3.4,2.5,11.8-5.8,14.7-12c-2.6-1.3-2.9-5.4-3-7l0,2.1c-0.3,7.8-6.5,11.4-7.8,10.2
			c-0.7-0.7-0.7-2.4-0.7-3.2L257.5,92.3z"/>
		<path style="clip-path:url(#SVGID_00000181782482729757879190000004481636611586750108_);fill:#D0217E;" d="M257.5,75.1
			c-1.6,1.5-3.2,3-4.7,4.6l0,2.1c2.8-0.4,4.4,2,4.7,6.9c0-3.2,0-7.4,0-10.5C257.5,77.2,257.5,76,257.5,75.1"/>
		<path style="clip-path:url(#SVGID_00000181782482729757879190000004481636611586750108_);fill:#CD2818;" d="M252.8,81.7l0,18.4
			c0.1,2.7,0.5,4.2,1.5,5c2.6-5.9,3.1-10.1,3.2-12.8l0-3.7C257.2,83.7,255.6,81.4,252.8,81.7"/>
		<path style="clip-path:url(#SVGID_00000181782482729757879190000004481636611586750108_);fill:#A39FD1;" d="M271.2,81.7l0,2.6
			c-0.1,3.2-0.7,5.8-2.2,9c4.4,2.2,16.8-7.6,20.4-10.6c8.3-6.9,9.9-11.5,10.4-14.8c-3.4,1.6-6.8,3.3-10.2,5.2
			c-1.1,8.1-16.1,15.5-17.4,13.7C271.3,85.4,271.2,82.8,271.2,81.7"/>
		<path style="clip-path:url(#SVGID_00000181782482729757879190000004481636611586750108_);fill:#A39FD1;" d="M280.1,57.7
			c-4.3,2.7-7.2,5.2-8.9,7.5c0,4,0,8,0,12c0.3-7.1,1.9-8.5,4.9-11.3c2.1-1.9,10.2-7.8,12.8-5.1c0.6,0.7,0.8,1.6,0.9,2.1
			c3.4-1.8,6.8-3.6,10.1-5.1l0-0.2c-0.4-1.9-1.1-3-2.5-3.9c-8.1,4.1-8.4,4.3-12.5,6.7l0-5.1c0.4-0.2,0.8-0.5,1.2-0.7
			C285.4,54.8,283.1,55.8,280.1,57.7"/>
		<path style="clip-path:url(#SVGID_00000181782482729757879190000004481636611586750108_);fill:#8E1F77;" d="M271.2,65.2
			c-3.7,5.3-4.9,11.1-5.2,15l0,6c0.1,1.4,0.5,5.7,2.9,7c0,0,2.1-3.3,2.2-8.9l0-2.6c0-0.4,0-0.7,0-1.2l0-2.3c0-0.3,0-0.6,0-0.9
			C271.2,73.2,271.2,69.2,271.2,65.2"/>
		<path style="clip-path:url(#SVGID_00000181782482729757879190000004481636611586750108_);fill:#6DB8EE;" d="M324.1,37.6
			c-10.8,3.8-22.6,8.2-37.9,16.8c5-2.1,8.7-2.3,11.2-0.8c0.8-0.4,1.7-0.8,2.5-1.2c0,1.6-0.3,3.7,0,5.3c0,0,0,0,0,0
			c0,6.8,0,13.5,0,20.3c3-1.4,7-3.1,10-4.4c0-8.5,0-17.1,0.1-25.6c4.9-2,9.6-3.8,14.2-5.3L324.1,37.6z"/>
		<path style="clip-path:url(#SVGID_00000181782482729757879190000004481636611586750108_);fill:#4F70B7;" d="M286.1,54.5
			c-0.4,0.2-0.8,0.5-1.2,0.7l0,5.1c8.2-4.6,8.2-4.6,12.5-6.7C293.1,51.1,286.2,54.4,286.1,54.5"/>
		<polygon style="clip-path:url(#SVGID_00000181782482729757879190000004481636611586750108_);fill:#1D262D;" points="98,204.1 
			32.4,161.5 32.4,212.8 98,255.4 		"/>
		<polygon style="clip-path:url(#SVGID_00000181782482729757879190000004481636611586750108_);fill:#CAECFF;" points="32.8,212.7 
			32.8,161.8 32.4,161.5 32.4,212.8 98,255.4 98,255 		"/>
		<path style="clip-path:url(#SVGID_00000181782482729757879190000004481636611586750108_);fill:#DD8EBA;" d="M50,197.3
			c-0.3,0.1-0.7-0.1-1.2-0.4l-1.8-1.2v-3l1.8,1.2c0.5,0.3,0.9,0.7,1.2,1.2c0.2,0.4,0.4,0.9,0.4,1.3v-2.8c-0.5-0.5-1-0.9-1.6-1.3
			l-3.8-2.5v9.7l2,1.3v-3.4l1.7,1.2c0.6,0.4,1.2,0.7,1.6,0.9v-2.7C50.4,197.1,50.3,197.3,50,197.3"/>
		<path style="clip-path:url(#SVGID_00000181782482729757879190000004481636611586750108_);fill:#9ACAA1;" d="M52,195.9
			c0.2,0.5,0.4,1,0.4,1.5v-1.3l1.6,1.1c0.5,0.4,0.9,0.8,1.2,1.2c0.3,0.4,0.4,0.9,0.4,1.3c0,0.1,0,0.2,0,0.2c0.1-0.3,0.2-0.6,0.4-0.8
			c0.2-0.3,0.6-0.6,0.9-0.7c-0.1-0.1-0.1-0.2-0.2-0.4c-0.6-0.9-1.5-1.8-2.6-2.5l-3.6-2.4v0.4c0.1,0.1,0.2,0.2,0.3,0.3
			C51.3,194.6,51.7,195.2,52,195.9"/>
		<path style="clip-path:url(#SVGID_00000181782482729757879190000004481636611586750108_);fill:#9ACAA1;" d="M55.9,204.6
			c-0.3-0.9-0.5-1.9-0.5-2.8v-0.5c0-0.4,0-0.8,0.1-1.1c-0.1,0.2-0.2,0.3-0.3,0.3c-0.3,0.1-0.7-0.1-1.2-0.4l-1.6-1.1v-0.8
			c-0.1,0.7-0.4,1.1-0.9,1.2c-0.3,0.1-0.6,0-1-0.1v3.5l2,1.3v-3.5l1.6,1.1l1.8,4.7l2.1,1.4v0c-0.2-0.2-0.4-0.4-0.5-0.6
			C56.8,206.4,56.3,205.5,55.9,204.6"/>
		<path style="clip-path:url(#SVGID_00000181782482729757879190000004481636611586750108_);fill:#748C82;" d="M52.4,198.3v-0.8
			c-0.1-0.5-0.2-1-0.4-1.5c-0.3-0.7-0.7-1.3-1.3-2c-0.1-0.1-0.2-0.2-0.3-0.3v2.8c0,0,0,0.1,0,0.1c0,0,0,0.1,0,0.1v2.7
			c0.4,0.1,0.7,0.2,1,0.1C52,199.4,52.3,199,52.4,198.3"/>
		<path style="clip-path:url(#SVGID_00000181782482729757879190000004481636611586750108_);fill:#F7DC02;" d="M59.5,199.3
			c-0.8-0.5-1.5-0.8-2.1-0.9c-0.2,0-0.4,0-0.5,0c0.5,0.8,0.7,1.6,0.7,2.4c0,0.7-0.1,1.1-0.4,1.4c-0.3,0.2-0.7,0.3-1.3,0.2l2.1,5.3
			v0.1c0.5,0.5,1,1,1.6,1.4c0.8,0.5,1.5,0.8,2.1,0.9v-8.8C61,200.5,60.3,199.8,59.5,199.3 M61.1,207.8c-0.4,0.3-0.9,0.2-1.5-0.2
			c-0.7-0.5-1.2-1.1-1.6-1.9c-0.4-0.8-0.5-1.7-0.5-2.7v-0.5c0-1,0.2-1.6,0.6-1.9c0.4-0.3,0.9-0.2,1.5,0.3c0.7,0.4,1.2,1.1,1.6,1.8
			c0.4,0.8,0.5,1.7,0.5,2.7v0.5C61.6,206.9,61.5,207.5,61.1,207.8"/>
		<path style="clip-path:url(#SVGID_00000181782482729757879190000004481636611586750108_);fill:#89BB4D;" d="M55.9,202.4
			c0.6,0.1,1,0.1,1.3-0.2c0.3-0.2,0.4-0.7,0.4-1.4c0-0.8-0.2-1.6-0.7-2.4c-0.4,0.1-0.7,0.3-0.9,0.7c-0.2,0.2-0.3,0.5-0.4,0.8
			c0,0.1,0,0.1,0,0.2c-0.1,0.3-0.1,0.7-0.1,1.1v0.5c0,0.9,0.2,1.9,0.5,2.8c0.3,0.9,0.8,1.8,1.5,2.6c0.2,0.2,0.4,0.4,0.5,0.6v-0.1
			L55.9,202.4z"/>
		<path style="clip-path:url(#SVGID_00000181782482729757879190000004481636611586750108_);fill:#E2911E;" d="M67.1,205.1
			c0-0.1-0.1-0.1-0.1-0.2c-0.7-0.8-1.4-1.5-2.3-2.1l-3-2v0.4c0,0,0,0,0,0c0.6,0.8,1.1,1.7,1.5,2.6c0.3,1,0.5,1.9,0.5,2.8v0.4
			c0,1-0.2,1.7-0.5,2.2c-0.3,0.5-0.8,0.7-1.4,0.7c0,0,0,0,0,0v0.4l3,2c0.8,0.6,1.6,0.9,2.3,0.9c0.3,0,0.5,0,0.8-0.1
			c-0.4-0.8-0.6-1.7-0.7-2.5V205.1z M67,209.5c0,0.9-0.2,1.5-0.6,1.8c-0.4,0.2-1,0.1-1.8-0.4l-1-0.6v-6.5l1,0.7
			c0.8,0.5,1.4,1.2,1.8,2c0.4,0.8,0.6,1.7,0.6,2.6V209.5z"/>
		<path style="clip-path:url(#SVGID_00000181782482729757879190000004481636611586750108_);fill:#E17E23;" d="M63.1,209.4
			c0.3-0.5,0.5-1.2,0.5-2.2v-0.4c0-0.9-0.2-1.9-0.5-2.8s-0.8-1.8-1.5-2.6c0,0,0,0,0,0v8.8c0,0,0,0,0,0
			C62.3,210.1,62.8,209.9,63.1,209.4"/>
		<path style="clip-path:url(#SVGID_00000181782482729757879190000004481636611586750108_);fill:#D0217E;" d="M74.3,209.7
			c0,0,0.1,0,0.1,0v-0.4l-2-1.3v3.9c0.1-0.6,0.2-1.1,0.5-1.5C73.3,209.9,73.7,209.7,74.3,209.7"/>
		<path style="clip-path:url(#SVGID_00000181782482729757879190000004481636611586750108_);fill:#D0217E;" d="M72.5,213.8v0.7
			c0,1.2-0.6,1.4-1.7,0.6c-0.5-0.4-1-0.8-1.3-1.3c-0.3-0.5-0.5-1.1-0.5-1.7v-1c0,0.7-0.2,1.3-0.5,1.7c-0.2,0.3-0.5,0.4-0.8,0.5
			c0.1,0.2,0.2,0.4,0.4,0.6c0.7,1,1.6,1.9,2.7,2.7c1.1,0.8,2,1.1,2.7,0.9c0.1,0,0.1,0,0.2-0.1c0-0.1-0.1-0.2-0.1-0.2
			C72.9,216.2,72.6,215,72.5,213.8"/>
		<path style="clip-path:url(#SVGID_00000181782482729757879190000004481636611586750108_);fill:#D0217E;" d="M68.5,207.6
			c0.3,0.8,0.5,1.6,0.6,2.4v-4.3l-2-1.3v0.7C67.7,205.9,68.1,206.7,68.5,207.6"/>
		<path style="clip-path:url(#SVGID_00000181782482729757879190000004481636611586750108_);fill:#CD2818;" d="M68.5,212.9
			c0.3-0.4,0.5-0.9,0.5-1.7V210c0-0.8-0.2-1.6-0.6-2.4c-0.4-0.9-0.8-1.7-1.4-2.5v5.8c0,0.8,0.2,1.7,0.7,2.5
			C68,213.3,68.3,213.1,68.5,212.9"/>
		<path style="clip-path:url(#SVGID_00000181782482729757879190000004481636611586750108_);fill:#A39FD1;" d="M73.6,217.5
			c0.7,1.2,1.6,2.2,2.8,3c1.1,0.8,2,1.1,2.7,0.9c0.7-0.1,1.1-0.7,1.2-1.7l-2-1.3c0,0.6-0.2,0.9-0.5,1c-0.3,0.1-0.8-0.1-1.4-0.5
			c-0.7-0.5-1.2-1-1.5-1.7c-0.3-0.6-0.4-1.3-0.5-2.2v0.8C74.5,216.7,74.2,217.3,73.6,217.5"/>
		<path style="clip-path:url(#SVGID_00000181782482729757879190000004481636611586750108_);fill:#A39FD1;" d="M79.8,214.6l-2.4-1.6
			v-1.6l0.2,0.2c-0.4-0.3-0.8-0.6-1.2-0.9c-0.7-0.5-1.4-0.8-2-0.8v3.8c0-0.8,0.2-1.4,0.5-1.6c0.3-0.3,0.8-0.2,1.5,0.3
			c0.6,0.4,1.1,0.9,1.4,1.3c0.3,0.5,0.5,1,0.5,1.7l2,1.3v-0.1C80.2,215.8,80.1,215.2,79.8,214.6"/>
		<path style="clip-path:url(#SVGID_00000181782482729757879190000004481636611586750108_);fill:#8E1F77;" d="M74.3,209.7
			c-0.6,0-1.1,0.2-1.4,0.7c-0.2,0.4-0.4,0.9-0.5,1.5v1.9c0.1,1.2,0.4,2.4,1,3.5c0,0.1,0.1,0.2,0.1,0.2c0.5-0.2,0.8-0.8,0.8-1.8v-0.8
			c0-0.1,0-0.3,0-0.4v-0.7c0-0.1,0-0.2,0-0.3v-3.8C74.4,209.7,74.4,209.7,74.3,209.7"/>
		<path style="clip-path:url(#SVGID_00000181782482729757879190000004481636611586750108_);fill:#6DB8EE;" d="M77.6,211.5
			c0.6,0.5,1.1,1.1,1.5,1.8c0.3,0.4,0.5,0.9,0.7,1.3l0.5,0.3v1.6c0,0,0,0,0,0.1l0,0v6.4l2,1.3v-8l3,2v-1.6L77.6,211.5z"/>
		<path style="clip-path:url(#SVGID_00000181782482729757879190000004481636611586750108_);fill:#4F70B7;" d="M77.4,213l2.4,1.6
			c-0.2-0.4-0.4-0.9-0.7-1.3c-0.4-0.6-0.9-1.2-1.5-1.8l-0.2-0.2V213z"/>
		<path style="clip-path:url(#SVGID_00000181782482729757879190000004481636611586750108_);fill:#8E1F77;" d="M330.6,144.4
			c0,0-3.2,7-2,8.8c1.2,1.8,8.5,7.3,12,5c3.5-2.3-3.5-8.5-3.8-9.7c-0.3-1.2-0.9-5-0.9-5L330.6,144.4z"/>
		<path style="clip-path:url(#SVGID_00000181782482729757879190000004481636611586750108_);fill:#8E1F77;" d="M345.6,138.3
			c0,0,0,7.5,1.6,8.8c1.6,1.3,9.3,4.2,11.2,1c1.9-3.3-5.8-6.8-6.5-7.8c-0.7-1-2.5-4.4-2.5-4.4L345.6,138.3z"/>
		<path style="clip-path:url(#SVGID_00000181782482729757879190000004481636611586750108_);fill:#1D262D;" d="M328.6,100.8l0.6,24.2
			l-2.1,6.4l0.4,14.8c0,0,6.2,2.7,10.1,0.8c0,0,0-15.2,1.8-19.9c0,0,0-13.3,1.8-14.6c1.8-1.4,3.7-1.5,3.7-1.5s0.9,9.7,0.7,11.4
			c-0.2,1.8-1.6,6-1.6,6l1,13.3c0,0,5.9,3.1,8.6-1c0,0-0.2-16.4,0.4-19.1c0.6-2.7-1-23.6-1-23.6L328.6,100.8z"/>
		<path style="clip-path:url(#SVGID_00000181782482729757879190000004481636611586750108_);fill:#D8D4D0;" d="M335.3,64.3
			c-9.5,4.2-9.1,6.5-9.1,6.5l20.1,13.6c0,0-8.8,13.9,4.9-0.7l3.9-9.9c0,0-4.6-9.8-5.9-10.9C347.9,61.8,341.5,61.6,335.3,64.3"/>
		<polygon style="clip-path:url(#SVGID_00000181782482729757879190000004481636611586750108_);fill:#D0217E;" points="344.8,71.2 
			343.4,85.2 349.2,83.2 346.5,71.2 		"/>
		<path style="clip-path:url(#SVGID_00000181782482729757879190000004481636611586750108_);fill:#8E1F77;" d="M344.7,72.4
			c0.4,0,1.5,0.1,2-0.5l-0.2-0.7l-1.7,0L344.7,72.4z"/>
		<path style="clip-path:url(#SVGID_00000181782482729757879190000004481636611586750108_);fill:#FDC3B0;" d="M367,75l2.1-6l5.3-4.3
			l0.8,1.6l-1.4,2.1l6-3.1l2.1,4.3c0,0-9.6,7.8-13.8,8.8C363.9,79.3,367,75,367,75"/>
		<path style="clip-path:url(#SVGID_00000181782482729757879190000004481636611586750108_);fill:#F9FBFC;" d="M349.9,63.5L360,77.8
			l6.6-6c0,0,4.9,3.3,6.2,6.8L358.4,90l-9.4-10.4C349.1,79.5,346,75.2,349.9,63.5"/>
		<path style="clip-path:url(#SVGID_00000181782482729757879190000004481636611586750108_);fill:#8E1F77;" d="M345.7,87.2
			c0-0.4,1.3-7.9,1.3-7.9s0.9-9.8,0.7-10.8c-0.1-1-5-6.1-5-6.1s5.1-0.9,6.3,0c1.2,0.9,6,9.5,6.3,12s0.6,28.7,0.6,28.7
			s-4.8,4.8-9.1,5.6L345.7,87.2z"/>
		<path style="clip-path:url(#SVGID_00000181782482729757879190000004481636611586750108_);fill:#D8D4D0;" d="M347,67.5l0.4-2.6
			c0,0-2.4-4.7-9.3-1.9c0,0-1.3,0.5-1.2,1.3c0.2,0.7,0.9,2.3,0.9,2.3l3.6,2.9C341.5,69.4,346.9,71.4,347,67.5"/>
		<path style="clip-path:url(#SVGID_00000181782482729757879190000004481636611586750108_);fill:#F6A5A0;" d="M337.9,57.4
			c0,0,0.3,7-0.1,7.9c-0.3,0.8,6.3,4.8,7.4,4.1c1.1-0.7,0.9-5.8,0.9-5.8L337.9,57.4z"/>
		<path style="clip-path:url(#SVGID_00000181782482729757879190000004481636611586750108_);fill:#D8D4D0;" d="M344.8,68.4
			c0,0,0.9,2.7,0.9,2.6s0-2.9,0-2.9l0.9,0.9l0.5,2.2c0,0-1.3,0.9-3.1,0.2L344.8,68.4z"/>
		<path style="clip-path:url(#SVGID_00000181782482729757879190000004481636611586750108_);fill:#D0217E;" d="M344.6,69.1l-0.2,3.1
			c0,0,2.2,0.4,2.5-0.9c0-0.2-1.1-2.5-1.1-2.5L344.6,69.1z"/>
		<path style="clip-path:url(#SVGID_00000181782482729757879190000004481636611586750108_);fill:#F9FBFC;" d="M337.1,63.9
			c0,0,5.1,4.3,7.7,4.5l-1,3.4c0,0-7.1-3.5-7.8-5l0.5-3.3l1.5-1.3l0,0.8L337.1,63.9z"/>
		<polygon style="clip-path:url(#SVGID_00000181782482729757879190000004481636611586750108_);fill:#F9FBFC;" points="346.7,64.7 
			347,65.1 345.6,68.1 347.4,71.4 348.2,67.9 347.4,64.9 347.1,64.5 		"/>
		<path style="clip-path:url(#SVGID_00000181782482729757879190000004481636611586750108_);fill:#FDC3B0;" d="M341.2,49.8l-2.9,1.5
			c0,0-2.4,2-2.1,3.3c0.7,3.7,1.8,4.2,1.8,4.2s0.2,0.1,0.3,0.3c0.2,0.8,0.6,2.9,1.4,3.5c1,0.7,5,2.6,6.8,2.2
			c1.8-0.4,3.6-4.3,4.4-6.8c0.8-2.5,1.7-4,1.7-4S343.7,49.5,341.2,49.8"/>
		<path style="clip-path:url(#SVGID_00000181782482729757879190000004481636611586750108_);fill:#1D262D;" d="M340.7,56.8l-1-0.3
			c0,0-0.1-1.8-0.8-2.2c-0.7-0.4-1.8,0.4-1.7,1.9c0.1,1.7,0.8,2.5,0.8,2.5l-0.1,0.9c0,0-2.8-3.5-2.8-5.7c0-2.2,0.1-5.6,0.1-5.6
			s1.1-1.4,2.4-2.6c1.2-1.2,6.8-2.9,8.6-2.6c1.8,0.3,5.3,2.9,5.8,5c0.6,2.1,2.1,4.7,3.1,5.8c0.6,0.6-5.1,1.9-7.8,1.4
			c-3.9-0.8-3.7-2.5-5-2.2C341.4,53.3,340.7,56.8,340.7,56.8"/>
		<path style="clip-path:url(#SVGID_00000181782482729757879190000004481636611586750108_);fill:#8E1F77;" d="M340.3,69.8
			c2.5,1.6,4.6,5.7,7.6,11.3l0.6,26.9c0,0-11.2,6.5-21.5-1.7l-0.8-35.6c0,0-1.1-3.1,10.1-7l-0.1,1.1C336.1,65.8,335.9,67,340.3,69.8
			"/>
		<path style="clip-path:url(#SVGID_00000181782482729757879190000004481636611586750108_);fill:#F9FBFC;" d="M327.1,71.2
			c0,0,1.5,22.5,6.7,25.8c5.3,3.3,14.2,9.8,14.8,9.4c0.3-0.2,4.3-0.9,5.9-2.9c1.7-2.2,1-5.7,1-5.7l-15.3-9l-4.7-14.3
			C335.4,74.6,334,69.8,327.1,71.2"/>
		<path style="clip-path:url(#SVGID_00000181782482729757879190000004481636611586750108_);fill:#FDC3B0;" d="M349.8,103.1
			c0,0,0.4-4.7,2.5-4.8c2.1-0.1,7.9,3.6,7.9,3.6l3,0l1,1.8l-4.5,3.5l-4.9-1.4l1.5,2.9l-1.7,0.4C354.5,109.1,349.7,104.1,349.8,103.1
			"/>
	</g>
	<g style="clip-path:url(#SVGID_00000004544283664475479790000012804793607399146133_);">
		<defs>
			<path id="SVGID_00000049211972597004539950000001848997401802249101_" d="M427.7,113.3c-0.8,1.8-2.1,3.3-3.9,4.3l-51,29.3
				c-9.8,5.6-21.9,5.6-31.7,0l-22-12.6v42.6l21.4,12.3c10.2,5.9,22.7,5.9,32.9,0l52.5-30.1c2-1.2,3.3-3.3,3.3-5.7v-36.7v-6.8
				L427.7,113.3z"/>
		</defs>
		<clipPath id="SVGID_00000137091242079216451160000004862539053817580195_">
			<use xlink:href="#SVGID_00000049211972597004539950000001848997401802249101_"  style="overflow:visible;"/>
		</clipPath>
		
			<linearGradient id="SVGID_00000154396223412545619440000013420908033708753289_" gradientUnits="userSpaceOnUse" x1="0" y1="342.2665" x2="1" y2="342.2665" gradientTransform="matrix(-54.1106 0 0 54.1106 359.6051 -18367.8438)">
			<stop  offset="0" style="stop-color:#FFA4D7"/>
			<stop  offset="0.1458" style="stop-color:#FFA4D7"/>
			<stop  offset="0.1917" style="stop-color:#E895C3"/>
			<stop  offset="0.2229" style="stop-color:#DD8EBA"/>
			<stop  offset="0.6129" style="stop-color:#F49DCE"/>
			<stop  offset="0.8778" style="stop-color:#FFA4D7"/>
			<stop  offset="1" style="stop-color:#FFA4D7"/>
		</linearGradient>
		
			<rect x="319.1" y="109.8" style="clip-path:url(#SVGID_00000137091242079216451160000004862539053817580195_);fill:url(#SVGID_00000154396223412545619440000013420908033708753289_);" width="110.1" height="85.1"/>
	</g>
	<g style="clip-path:url(#SVGID_00000004544283664475479790000012804793607399146133_);">
		<defs>
			<rect id="SVGID_00000065039520260335669060000013993156335855053961_" width="467.3" height="342.3"/>
		</defs>
		<clipPath id="SVGID_00000107586580421969471800000011448738224298761143_">
			<use xlink:href="#SVGID_00000065039520260335669060000013993156335855053961_"  style="overflow:visible;"/>
		</clipPath>
		<path style="clip-path:url(#SVGID_00000107586580421969471800000011448738224298761143_);fill:#CCCDCE;" d="M425.2,103.1
			l-25.9-14.9l-80.2,46l21.3,12.2c10.2,5.9,22.8,5.9,33.1,0l51.7-29.7C430.5,113.8,430.5,106.2,425.2,103.1"/>
		<path style="clip-path:url(#SVGID_00000107586580421969471800000011448738224298761143_);fill:#F9FBFC;" d="M425.2,103.1
			l-25.9-14.9v43.4l25.9-14.8C430.5,113.8,430.5,106.2,425.2,103.1"/>
		<path style="clip-path:url(#SVGID_00000107586580421969471800000011448738224298761143_);fill:#F9FBFC;" d="M331.6,141.4l8.8,5.1
			c10.2,5.9,22.8,5.9,33.1,0l51.2-29.4l-25.4-14.6L331.6,141.4z"/>
		<polygon style="clip-path:url(#SVGID_00000107586580421969471800000011448738224298761143_);fill:#DFE0E1;" points="404.6,94.1 
			400.6,91.8 384.8,100.8 388.9,103.1 		"/>
		<polygon style="clip-path:url(#SVGID_00000107586580421969471800000011448738224298761143_);fill:#6DB8EE;" points="388.9,103.1 
			384.8,100.8 384.8,115.6 388.9,117.9 404.6,108.9 404.6,94.1 		"/>
		<polygon style="clip-path:url(#SVGID_00000107586580421969471800000011448738224298761143_);fill:#DFE0E1;" points="388.9,117.9 
			388.9,103.1 384.8,100.8 388.6,103.3 		"/>
		<polygon style="clip-path:url(#SVGID_00000107586580421969471800000011448738224298761143_);fill:#DFE0E1;" points="411,98 
			407,95.7 391.3,104.7 395.3,107.1 		"/>
		<polygon style="clip-path:url(#SVGID_00000107586580421969471800000011448738224298761143_);fill:#6DB8EE;" points="395.3,107.1 
			391.3,104.7 391.3,119.6 395.3,121.9 411,112.9 411,98 		"/>
		<polygon style="clip-path:url(#SVGID_00000107586580421969471800000011448738224298761143_);fill:#DFE0E1;" points="395.3,121.9 
			395.3,107.1 391.3,104.7 395.1,107.2 		"/>
		<polygon style="clip-path:url(#SVGID_00000107586580421969471800000011448738224298761143_);fill:#DFE0E1;" points="418.1,102.3 
			414,100 398.3,109 402.3,111.3 		"/>
		<polygon style="clip-path:url(#SVGID_00000107586580421969471800000011448738224298761143_);fill:#6DB8EE;" points="402.3,111.3 
			398.3,109 398.3,123.8 402.3,126.1 418.1,117.1 418.1,102.3 		"/>
		<polygon style="clip-path:url(#SVGID_00000107586580421969471800000011448738224298761143_);fill:#DFE0E1;" points="402.3,126.1 
			402.3,111.3 398.3,109 402.1,111.5 		"/>
		<polygon style="clip-path:url(#SVGID_00000107586580421969471800000011448738224298761143_);fill:#DFE0E1;" points="385.5,105.1 
			381.5,102.8 365.7,111.8 369.7,114.2 		"/>
		<polygon style="clip-path:url(#SVGID_00000107586580421969471800000011448738224298761143_);fill:#A39FD1;" points="369.7,114.2 
			365.7,111.8 365.7,126.7 369.7,129 385.5,120 385.5,105.1 		"/>
		<polygon style="clip-path:url(#SVGID_00000107586580421969471800000011448738224298761143_);fill:#DFE0E1;" points="369.7,129 
			369.7,114.2 365.7,111.8 369.5,114.3 		"/>
		<polygon style="clip-path:url(#SVGID_00000107586580421969471800000011448738224298761143_);fill:#DFE0E1;" points="391.9,109.1 
			387.9,106.8 372.1,115.8 376.2,118.1 		"/>
		<polygon style="clip-path:url(#SVGID_00000107586580421969471800000011448738224298761143_);fill:#A39FD1;" points="376.2,118.1 
			372.1,115.8 372.1,130.6 376.2,132.9 391.9,123.9 391.9,109.1 		"/>
		<polygon style="clip-path:url(#SVGID_00000107586580421969471800000011448738224298761143_);fill:#DFE0E1;" points="376.2,132.9 
			376.2,118.1 372.1,115.8 375.9,118.3 		"/>
		<polygon style="clip-path:url(#SVGID_00000107586580421969471800000011448738224298761143_);fill:#DFE0E1;" points="398.9,113.3 
			394.9,111 379.2,120 383.2,122.4 		"/>
		<polygon style="clip-path:url(#SVGID_00000107586580421969471800000011448738224298761143_);fill:#A39FD1;" points="383.2,122.4 
			379.2,120 379.2,134.9 383.2,137.2 398.9,128.2 398.9,113.3 		"/>
		<polygon style="clip-path:url(#SVGID_00000107586580421969471800000011448738224298761143_);fill:#DFE0E1;" points="383.2,137.2 
			383.2,122.4 379.2,120 383,122.5 		"/>
		<polygon style="clip-path:url(#SVGID_00000107586580421969471800000011448738224298761143_);fill:#DFE0E1;" points="366.4,116.2 
			362.3,113.9 346.6,122.9 350.6,125.2 		"/>
		<polygon style="clip-path:url(#SVGID_00000107586580421969471800000011448738224298761143_);fill:#D0217E;" points="350.6,125.2 
			346.6,122.9 346.6,137.7 350.6,140 366.4,131 366.4,116.2 		"/>
		<polygon style="clip-path:url(#SVGID_00000107586580421969471800000011448738224298761143_);fill:#DFE0E1;" points="350.6,140 
			350.6,125.2 346.6,122.9 350.4,125.4 		"/>
		<polygon style="clip-path:url(#SVGID_00000107586580421969471800000011448738224298761143_);fill:#DFE0E1;" points="372.8,120.1 
			368.8,117.8 353,126.8 357.1,129.2 		"/>
		<polygon style="clip-path:url(#SVGID_00000107586580421969471800000011448738224298761143_);fill:#D0217E;" points="357.1,129.2 
			353,126.8 353,141.7 357.1,144 372.8,135 372.8,120.1 		"/>
		<polygon style="clip-path:url(#SVGID_00000107586580421969471800000011448738224298761143_);fill:#DFE0E1;" points="357.1,144 
			357.1,129.2 353,126.8 356.8,129.3 		"/>
		<polygon style="clip-path:url(#SVGID_00000107586580421969471800000011448738224298761143_);fill:#DFE0E1;" points="379.8,124.4 
			375.8,122.1 360.1,131.1 364.1,133.4 		"/>
		<polygon style="clip-path:url(#SVGID_00000107586580421969471800000011448738224298761143_);fill:#D0217E;" points="364.1,133.4 
			360.1,131.1 360.1,145.9 364.1,148.2 379.8,139.2 379.8,124.4 		"/>
		<polygon style="clip-path:url(#SVGID_00000107586580421969471800000011448738224298761143_);fill:#DFE0E1;" points="364.1,148.2 
			364.1,133.4 360.1,131.1 363.8,133.6 		"/>
		<polygon style="clip-path:url(#SVGID_00000107586580421969471800000011448738224298761143_);fill:#DFE0E1;" points="347.3,127.2 
			343.2,124.9 327.5,134 331.5,136.3 		"/>
		<polygon style="clip-path:url(#SVGID_00000107586580421969471800000011448738224298761143_);fill:#E2911E;" points="340,146.2 
			347.3,142.1 347.3,127.2 331.5,136.3 327.5,134 327.5,139 		"/>
		<polygon style="clip-path:url(#SVGID_00000107586580421969471800000011448738224298761143_);fill:#DFE0E1;" points="331.4,141.3 
			331.5,141.4 331.5,136.3 327.5,134 331.3,136.4 		"/>
		<polygon style="clip-path:url(#SVGID_00000107586580421969471800000011448738224298761143_);fill:#DFE0E1;" points="353.7,131.2 
			349.7,128.9 333.9,137.9 338,140.2 		"/>
		<path style="clip-path:url(#SVGID_00000107586580421969471800000011448738224298761143_);fill:#E2911E;" d="M341.1,146.9
			c2,1.2,4.1,2.1,6.3,2.8l6.3-3.6v-14.8l-15.7,9l-4-2.3v4.8L341.1,146.9z"/>
		<polygon style="clip-path:url(#SVGID_00000107586580421969471800000011448738224298761143_);fill:#DFE0E1;" points="337.8,145 
			338,145.1 338,140.2 333.9,137.9 337.7,140.4 		"/>
		<polygon style="clip-path:url(#SVGID_00000107586580421969471800000011448738224298761143_);fill:#DFE0E1;" points="360.7,135.4 
			356.7,133.1 340.9,142.1 345,144.5 		"/>
		<path style="clip-path:url(#SVGID_00000107586580421969471800000011448738224298761143_);fill:#E2911E;" d="M341.1,146.9
			c5.6,3.2,12,4.6,18.3,4.1l1.3-0.7v-14.8l-15.7,9l-4-2.3v4.6L341.1,146.9z"/>
		<path style="clip-path:url(#SVGID_00000107586580421969471800000011448738224298761143_);fill:#DFE0E1;" d="M344.8,148.7
			c0.1,0,0.1,0,0.2,0.1v-4.3l-4-2.3l3.8,2.5L344.8,148.7z"/>
		<g style="opacity:0.8;clip-path:url(#SVGID_00000107586580421969471800000011448738224298761143_);">
			<g>
				<defs>
					<rect id="SVGID_00000072269550350819525660000014109292199423541634_" x="349.7" y="88.3" width="58.5" height="62.6"/>
				</defs>
				<clipPath id="SVGID_00000170986935698638102840000001938163560274166930_">
					<use xlink:href="#SVGID_00000072269550350819525660000014109292199423541634_"  style="overflow:visible;"/>
				</clipPath>
				<path style="clip-path:url(#SVGID_00000170986935698638102840000001938163560274166930_);fill:#F9FBFC;" d="M369.7,105.2
					l-3.7,2.1v42.3c1.3-0.4,2.5-0.8,3.7-1.3V105.2z"/>
				<path style="clip-path:url(#SVGID_00000170986935698638102840000001938163560274166930_);fill:#F9FBFC;" d="M349.7,150.1
					c3.3,0.8,6.8,1,10.1,0.7v-39.8l-10.1,5.8V150.1z"/>
				<polygon style="clip-path:url(#SVGID_00000170986935698638102840000001938163560274166930_);fill:#F9FBFC;" points="400,131.3 
					400,88.6 399.3,88.3 384.7,96.7 384.7,140.1 				"/>
				<polygon style="clip-path:url(#SVGID_00000170986935698638102840000001938163560274166930_);fill:#F9FBFC;" points="408.2,93.3 
					403.3,90.5 403.3,129.4 408.2,126.6 				"/>
			</g>
		</g>
		<path style="clip-path:url(#SVGID_00000107586580421969471800000011448738224298761143_);fill:#F9FBFC;" d="M352.1,150.7v42.4
			c2.2,0.3,4.3,0.4,6.5,0.3V151C356.5,151.1,354.3,151.1,352.1,150.7"/>
		<path style="clip-path:url(#SVGID_00000107586580421969471800000011448738224298761143_);fill:#F9FBFC;" d="M360,150.9v42.4
			c0.8-0.1,1.7-0.2,2.5-0.3v-42.4C361.6,150.8,360.8,150.9,360,150.9"/>
		<path style="clip-path:url(#SVGID_00000107586580421969471800000011448738224298761143_);fill:#F9FBFC;" d="M347.8,192.2
			c0.3,0.1,0.7,0.2,1,0.3V150c-0.3-0.1-0.7-0.2-1-0.3V192.2z"/>
		<path style="clip-path:url(#SVGID_00000107586580421969471800000011448738224298761143_);fill:#FFB8E2;" d="M399.3,89.6l25.3,14.5
			c2.1,1.2,3.4,3.4,3.4,5.8c0,2.4-1.3,4.6-3.4,5.8l-51.7,29.7c-4.8,2.8-10.3,4.2-15.9,4.2c-5.6,0-11.1-1.5-16-4.3l-19.5-11.2
			L399.3,89.6z M399.3,88.3l-80.2,46l21.3,12.2c5.1,2.9,10.8,4.4,16.5,4.4c5.7,0,11.4-1.5,16.5-4.4l51.7-29.7c5.3-3,5.3-10.7,0-13.7
			L399.3,88.3z"/>
		<path style="clip-path:url(#SVGID_00000107586580421969471800000011448738224298761143_);fill:#F9FBFC;" d="M423.9,117.6
			L373,146.9c-4.3,2.4-9.1,3.9-14,4.2c-4.9,0.3-9.9-0.5-14.4-2.4c-2.3-0.9-4.4-2.2-6.5-3.4l-6.4-3.7l-12.7-7.4l12.8,7.2l6.4,3.6
			c2.1,1.2,4.2,2.5,6.5,3.4c4.5,1.9,9.4,2.7,14.3,2.4c4.9-0.3,9.6-1.8,13.8-4.2L423.9,117.6z"/>
		<path style="clip-path:url(#SVGID_00000107586580421969471800000011448738224298761143_);fill:#FDC3B0;" d="M415.1,96.6
			c0,0-3.7,0.1-4.5,1.4c-1.3,2.3,0,4.2-0.1,10.7c0,0,1.7,3.7,3.2,3.5h1l1,4.1c0,0-1.6,1.6,1.2,2c2.7,0.4,6,0.6,6,0.6l1.4-10.7
			C424.2,108.1,420.3,96.6,415.1,96.6"/>
		<path style="clip-path:url(#SVGID_00000107586580421969471800000011448738224298761143_);fill:#A39FD1;" d="M416.4,184.6l-2.4,2.1
			l0.2,0.8c0,0,5.2,4.2,11.1,4.8c3.6,0.3,4.7-2.3,0.6-4C421.8,186.5,416.4,184.6,416.4,184.6"/>
		<path style="clip-path:url(#SVGID_00000107586580421969471800000011448738224298761143_);fill:#FDC3B0;" d="M417.4,154.7l5,29.7
			l-7.7,1.2c0,0-0.1,2.7,3.2,4c8.2,3.1,10.2,1.5,9.8-0.2c-3.1-13,0.9-12.6-1.9-19.5c-2.1-5.3,0-17.2,0-17.2L417.4,154.7z"/>
		<path style="clip-path:url(#SVGID_00000107586580421969471800000011448738224298761143_);fill:#D0217E;" d="M418.3,189.7
			c0,0,1.2-4.7,4.3-5.1l-4.9-0.8c0,0-3.7,0.6-3.7,3.1C414,187,415.8,188.8,418.3,189.7"/>
		<path style="clip-path:url(#SVGID_00000107586580421969471800000011448738224298761143_);fill:#A39FD1;" d="M404.2,190.1l-2.4,2.1
			l0.2,0.8c0,0,5.2,4.2,11.1,4.8c3.6,0.3,4.7-2.3,0.6-4C409.6,192,404.2,190.1,404.2,190.1"/>
		<path style="clip-path:url(#SVGID_00000107586580421969471800000011448738224298761143_);fill:#FDC3B0;" d="M408.4,159.9l2,30
			l-7.8,0.4c0,0-0.4,2.7,2.7,4.3c7.8,3.9,10.6,2.2,10.2,0.5c-2-10.5,1.9-10.1-0.1-17.3c-1.6-5.5,1.6-19.1,1.6-19.1L408.4,159.9z"/>
		<path style="clip-path:url(#SVGID_00000107586580421969471800000011448738224298761143_);fill:#A39FD1;" d="M425.8,114.9
			c0,0,4.7,1.5,5,13.5c0.3,12-8.8,7.3-8.8,7.3L425.8,114.9z"/>
		<path style="clip-path:url(#SVGID_00000107586580421969471800000011448738224298761143_);fill:#FDC3B0;" d="M425.8,114.9
			c0,0,4.7,1.5,5,13.5c0.3,12-8.8,7.3-8.8,7.3L425.8,114.9z"/>
		<path style="clip-path:url(#SVGID_00000107586580421969471800000011448738224298761143_);fill:#9ACAA1;" d="M428,117.1
			c-4.2-8.6-19,2.9-19,2.9s-1.9,4.3-1.9,7.1c0,2.7,2.9,15.2,2.9,15.2s-3.8,15.3-2,25.5c1.6,9,18.1-0.4,18.1-0.4
			c6.6-25.7,3-22.5,0.8-28.3c-0.6-1.6-0.9-3.2-0.5-4.3C428.4,129.7,429.7,120.6,428,117.1"/>
		<path style="clip-path:url(#SVGID_00000107586580421969471800000011448738224298761143_);fill:#1D262D;" d="M410.8,101.8l2,3.5
			c0,0,0.6-0.2,0.4-0.8c-0.2-0.6,0.4-2.1,1-2.3c0.6-0.2,2.5,0.4,1.4,5.1l-0.8,1l8.6,4.3c0,0,1-1.1,2.1-3.6c1.2-2.5,3.7-6.3,3.1-9.2
			c-0.6-2.9-1-6.4-7-7.2c-6-0.8-11.5,0.2-11.5,7L410.8,101.8z"/>
		<path style="clip-path:url(#SVGID_00000107586580421969471800000011448738224298761143_);fill:#1D262D;" d="M431.6,97.3
			c0,3.3-2.7,6-6,6c-3.3,0-6-2.7-6-6c0-3.3,2.7-6,6-6C428.9,91.2,431.6,93.9,431.6,97.3"/>
		<path style="clip-path:url(#SVGID_00000107586580421969471800000011448738224298761143_);fill:#FDC3B0;" d="M410.6,121.9
			c0,0-13.2,7-15.8,6.7c-2.6-0.3-9.4-3.5-11.1-3.2c-1.8,0.3-7.6,3.8-6.4,4.1c1.2,0.3,4.4-0.3,6.7,0.9c2.3,1.2,9.7,6.1,13.2,5.3
			c3.5-0.9,13.5-4.4,14.9-7.3C413.5,125.5,412.4,121.9,410.6,121.9"/>
		<path style="clip-path:url(#SVGID_00000107586580421969471800000011448738224298761143_);fill:#D0217E;" d="M406,195
			c0,0,1.2-4.7,4.3-5.1l-4.9-0.8c0,0-3.7,0.6-3.7,3.1C401.7,192.3,403.5,194,406,195"/>
	</g>
</g>
</svg>
