<?xml version="1.0" encoding="utf-8"?>
<!-- Generator: Adobe Illustrator 27.9.0, SVG Export Plug-In . SVG Version: 6.00 Build 0)  -->
<svg version="1.1" id="Layer_1" xmlns="http://www.w3.org/2000/svg" xmlns:xlink="http://www.w3.org/1999/xlink" x="0px" y="0px"
	 viewBox="0 0 312.3 315" style="enable-background:new 0 0 312.3 315;" xml:space="preserve">
<style type="text/css">
	.st0{fill:#FFFFFF;}
	.st1{clip-path:url(#SVGID_00000149379716789763647660000012459037595705362343_);}
	.st2{opacity:0.67;clip-path:url(#SVGID_00000142885406959224948110000006325295027000291209_);}
	.st3{clip-path:url(#SVGID_00000142144386156502514670000016303776755961093008_);fill:#86A5F9;}
	.st4{clip-path:url(#SVGID_00000147901377135555054170000016189523074275530680_);fill:#86A5F9;}
	.st5{clip-path:url(#SVGID_00000049184440307224940730000013938679448158721667_);fill:#86A5F9;}
	.st6{clip-path:url(#SVGID_00000142885406959224948110000006325295027000291209_);fill:#E8BB9F;}
	.st7{clip-path:url(#SVGID_00000142885406959224948110000006325295027000291209_);fill:#D19584;}
	.st8{clip-path:url(#SVGID_00000142885406959224948110000006325295027000291209_);fill:#212E52;}
	.st9{clip-path:url(#SVGID_00000142885406959224948110000006325295027000291209_);fill:#273866;}
	.st10{clip-path:url(#SVGID_00000142885406959224948110000006325295027000291209_);fill:#CACACA;}
	.st11{opacity:0.21;clip-path:url(#SVGID_00000142885406959224948110000006325295027000291209_);}
	.st12{clip-path:url(#SVGID_00000168084547870683288620000001047432511559343237_);fill:#212E52;}
	.st13{clip-path:url(#SVGID_00000142885406959224948110000006325295027000291209_);fill:#B6B6B6;}
	.st14{clip-path:url(#SVGID_00000142885406959224948110000006325295027000291209_);fill:#3A62F1;}
	.st15{clip-path:url(#SVGID_00000142885406959224948110000006325295027000291209_);fill:#284199;}
	.st16{opacity:0.14;clip-path:url(#SVGID_00000142885406959224948110000006325295027000291209_);}
	.st17{clip-path:url(#SVGID_00000141457612929955879410000010072477846224173979_);fill:#273866;}
	.st18{clip-path:url(#SVGID_00000142885406959224948110000006325295027000291209_);fill:#CF9B80;}
	.st19{clip-path:url(#SVGID_00000026847109512467232930000018346000508791203747_);fill:#606060;}
	.st20{clip-path:url(#SVGID_00000142885406959224948110000006325295027000291209_);fill:#B38671;}
</style>
<circle class="st0" cx="156.3" cy="160" r="147"/>
<g>
	<defs>
		<rect id="SVGID_1_" x="5" y="51" width="298.3" height="250"/>
	</defs>
	<clipPath id="SVGID_00000111881557056485886170000015579685431880665249_">
		<use xlink:href="#SVGID_1_"  style="overflow:visible;"/>
	</clipPath>
	<g style="clip-path:url(#SVGID_00000111881557056485886170000015579685431880665249_);">
		<defs>
			<rect id="SVGID_00000074404089906723183620000001957894567616144545_" x="5" y="51" width="298.3" height="250"/>
		</defs>
		<clipPath id="SVGID_00000144308218802038552450000006789283407658086279_">
			<use xlink:href="#SVGID_00000074404089906723183620000001957894567616144545_"  style="overflow:visible;"/>
		</clipPath>
		<g style="opacity:0.67;clip-path:url(#SVGID_00000144308218802038552450000006789283407658086279_);">
			<g>
				<defs>
					<rect id="SVGID_00000070119428162098822260000010029791514955574933_" x="5" y="197.4" width="70.4" height="69"/>
				</defs>
				<clipPath id="SVGID_00000044169576848819319890000016037502213017888153_">
					<use xlink:href="#SVGID_00000070119428162098822260000010029791514955574933_"  style="overflow:visible;"/>
				</clipPath>
				<path style="clip-path:url(#SVGID_00000044169576848819319890000016037502213017888153_);fill:#86A5F9;" d="M11.4,228L5,230.2
					c-0.1,2,0,3.9,0.2,5.8l6.5,1.7c0.6,2.8,1.6,5.5,2.9,8.1l-3.9,5.4c1.1,1.6,2.3,3.2,3.6,4.6l6.2-2.5c2.1,1.9,4.5,3.5,7.1,4.8
					l0,6.7c0.9,0.3,1.8,0.7,2.8,0.9c0.9,0.3,1.9,0.5,2.8,0.7l3.6-5.6c2.9,0.3,5.8,0.2,8.6-0.3l4,5.4c1.9-0.5,3.7-1.2,5.5-2l-0.4-6.7
					c2.5-1.4,4.8-3.2,6.8-5.3l6.4,2c1.2-1.5,2.3-3.1,3.3-4.8l-4.3-5.2c0.6-1.3,1.1-2.6,1.5-4c0.4-1.4,0.7-2.8,0.9-4.2l6.4-2.1
					c0.1-2,0-3.9-0.2-5.8l-6.5-1.7c-0.6-2.8-1.6-5.5-2.9-8.1l3.9-5.4c-1.1-1.6-2.3-3.2-3.6-4.6l-6.2,2.5c-2.1-1.9-4.5-3.5-7.1-4.8
					l0-6.7c-0.9-0.3-1.8-0.7-2.8-0.9c-0.9-0.3-1.9-0.5-2.8-0.7l-3.6,5.6c-2.9-0.3-5.8-0.2-8.6,0.3l-4-5.4c-1.9,0.5-3.7,1.2-5.5,2
					l0.4,6.7c-2.5,1.4-4.8,3.2-6.8,5.3l-6.4-2c-1.2,1.5-2.3,3.1-3.3,4.8l4.3,5.2c-0.6,1.3-1.1,2.6-1.5,4
					C11.9,225.2,11.6,226.6,11.4,228 M23.6,227.1c2.7-9.2,12.3-14.5,21.5-11.8c9.2,2.7,14.5,12.3,11.8,21.5
					c-2.7,9.2-12.3,14.5-21.5,11.8C26.2,245.9,20.9,236.3,23.6,227.1"/>
			</g>
		</g>
		<g style="opacity:0.67;clip-path:url(#SVGID_00000144308218802038552450000006789283407658086279_);">
			<g>
				<defs>
					<rect id="SVGID_00000107574705179740367690000007863457574892394666_" x="220.7" y="51" width="40.4" height="39.6"/>
				</defs>
				<clipPath id="SVGID_00000017511675705959905680000001587046084591088296_">
					<use xlink:href="#SVGID_00000107574705179740367690000007863457574892394666_"  style="overflow:visible;"/>
				</clipPath>
				<path style="clip-path:url(#SVGID_00000017511675705959905680000001587046084591088296_);fill:#86A5F9;" d="M224.3,68.6
					l-3.7,1.2c-0.1,1.1,0,2.2,0.1,3.3l3.7,1c0.3,1.6,0.9,3.2,1.7,4.6l-2.2,3.1c0.6,0.9,1.3,1.8,2,2.6l3.6-1.4c1.2,1.1,2.6,2,4.1,2.8
					l0,3.8c0.5,0.2,1,0.4,1.6,0.5c0.5,0.2,1.1,0.3,1.6,0.4l2.1-3.2c1.7,0.2,3.3,0.1,4.9-0.2l2.3,3.1c1.1-0.3,2.1-0.7,3.1-1.1
					l-0.2-3.8c1.4-0.8,2.7-1.8,3.9-3l3.7,1.2c0.7-0.9,1.3-1.8,1.9-2.8l-2.4-3c0.3-0.7,0.6-1.5,0.9-2.3c0.2-0.8,0.4-1.6,0.5-2.4
					l3.7-1.2c0.1-1.1,0-2.2-0.1-3.3l-3.7-1c-0.3-1.6-0.9-3.2-1.7-4.6l2.2-3.1c-0.6-0.9-1.3-1.8-2-2.6l-3.6,1.4
					c-1.2-1.1-2.6-2-4.1-2.8l0-3.8c-0.5-0.2-1-0.4-1.6-0.5c-0.5-0.2-1.1-0.3-1.6-0.4l-2.1,3.2c-1.7-0.2-3.3-0.1-4.9,0.2l-2.3-3.1
					c-1.1,0.3-2.1,0.7-3.1,1.1l0.2,3.8c-1.4,0.8-2.7,1.8-3.9,3l-3.7-1.2c-0.7,0.9-1.3,1.8-1.9,2.8l2.4,3c-0.3,0.7-0.6,1.5-0.9,2.3
					C224.6,67,224.4,67.8,224.3,68.6 M231.3,68c1.5-5.3,7-8.3,12.3-6.8s8.3,7,6.8,12.3s-7,8.3-12.3,6.8S229.8,73.3,231.3,68"/>
			</g>
		</g>
		<g style="opacity:0.67;clip-path:url(#SVGID_00000144308218802038552450000006789283407658086279_);">
			<g>
				<defs>
					<rect id="SVGID_00000066501917480961425240000010906747316870632335_" x="172.6" y="267.6" width="34.1" height="33.4"/>
				</defs>
				<clipPath id="SVGID_00000095321206035200485270000018026490815233624967_">
					<use xlink:href="#SVGID_00000066501917480961425240000010906747316870632335_"  style="overflow:visible;"/>
				</clipPath>
				<path style="clip-path:url(#SVGID_00000095321206035200485270000018026490815233624967_);fill:#86A5F9;" d="M175.7,282.4l-3.1,1
					c0,0.9,0,1.9,0.1,2.8l3.1,0.8c0.3,1.4,0.8,2.7,1.4,3.9l-1.9,2.6c0.5,0.8,1.1,1.5,1.7,2.2l3-1.2c1,0.9,2.2,1.7,3.4,2.3l0,3.2
					c0.4,0.2,0.9,0.3,1.3,0.4c0.5,0.1,0.9,0.2,1.4,0.3l1.7-2.7c1.4,0.2,2.8,0.1,4.1-0.1l1.9,2.6c0.9-0.2,1.8-0.6,2.6-1l-0.2-3.2
					c1.2-0.7,2.3-1.5,3.3-2.5l3.1,1c0.6-0.7,1.1-1.5,1.6-2.3l-2.1-2.5c0.3-0.6,0.5-1.3,0.7-1.9c0.2-0.7,0.3-1.4,0.4-2l3.1-1
					c0-0.9,0-1.9-0.1-2.8l-3.1-0.8c-0.3-1.4-0.8-2.7-1.4-3.9l1.9-2.6c-0.5-0.8-1.1-1.5-1.7-2.2l-3,1.2c-1-0.9-2.2-1.7-3.4-2.3l0-3.2
					c-0.4-0.2-0.9-0.3-1.3-0.4c-0.5-0.1-0.9-0.2-1.4-0.3l-1.7,2.7c-1.4-0.2-2.8-0.1-4.1,0.1l-1.9-2.6c-0.9,0.2-1.8,0.6-2.6,1
					l0.2,3.2c-1.2,0.7-2.3,1.5-3.3,2.5l-3.1-1c-0.6,0.7-1.1,1.5-1.6,2.3l2.1,2.5c-0.3,0.6-0.5,1.3-0.7,1.9
					C176,281.1,175.8,281.8,175.7,282.4 M181.6,282c1.3-4.4,5.9-7,10.4-5.7s7,5.9,5.7,10.4c-1.3,4.4-5.9,7-10.4,5.7
					C182.9,291.1,180.3,286.4,181.6,282"/>
			</g>
		</g>
		<path style="clip-path:url(#SVGID_00000144308218802038552450000006789283407658086279_);fill:#E8BB9F;" d="M213.3,191.3
			c-0.2-0.5-0.4-1.2-0.7-2l0,0l-44.7-41.1c-1.1-1-2.6-1.5-4.1-1.4l-5.2,0.5c-1.4,0.1-2.7,1-3.3,2.3l-5.2,10.5
			c-0.9,1.9-2.4,3.5-4.1,4.7c-2.9,1.9-6.6,2.4-9.7,1.4c-2.9-0.9-4.7-4-4.2-7l3.4-22c0.6-4,3.3-7.5,7-9.1l11.5-5
			c-26.6-3.4-42.1,0.4-46.6,1.7l-17.1,45.9c6.4,11.8,61.5,45,71.4,50.9c1,0.6,2.1,0.9,3.2,0.9c3.7,0,7.2-1.5,9.8-4.1h2.9
			c4.5,0,8.8-2.1,11.5-5.8l3.5-0.3c5-0.5,9.1-4,10.3-8.9c5.2-0.6,9.5-4.4,10.8-9.4C213.6,193,213.6,192.1,213.3,191.3"/>
		<path style="clip-path:url(#SVGID_00000144308218802038552450000006789283407658086279_);fill:#D19584;" d="M201.8,202.6
			c-2.1-1.7-4.1-3.3-6.2-5l-6.1-5.1l-6-5.2c-2-1.8-4-3.5-5.9-5.3c2.1,1.7,4.1,3.3,6.2,5l6.1,5.1l6,5.2
			C197.9,199,199.8,200.8,201.8,202.6"/>
		<path style="clip-path:url(#SVGID_00000144308218802038552450000006789283407658086279_);fill:#D19584;" d="M188.4,212.1
			c-2.1-1.7-4.1-3.5-6.1-5.2l-6.1-5.3l-6-5.4c-2-1.8-3.9-3.7-5.9-5.5c2.1,1.7,4.1,3.5,6.1,5.2l6.1,5.3l6,5.4
			C184.5,208.4,186.5,210.3,188.4,212.1"/>
		<path style="clip-path:url(#SVGID_00000144308218802038552450000006789283407658086279_);fill:#D19584;" d="M173.7,216.9
			c-1.9-1.5-3.8-3-5.6-4.6l-5.6-4.7l-5.5-4.8c-1.8-1.6-3.6-3.2-5.4-4.9c1.9,1.5,3.8,3,5.6,4.6l5.6,4.7l5.5,4.8
			C170.1,213.6,171.9,215.2,173.7,216.9"/>
		<polygon style="clip-path:url(#SVGID_00000144308218802038552450000006789283407658086279_);fill:#212E52;" points="73.7,182.8 
			57.5,198 65.4,178.7 		"/>
		<path style="clip-path:url(#SVGID_00000144308218802038552450000006789283407658086279_);fill:#273866;" d="M57.5,198l34.7-85
			L44.7,90.4l-10.8-5.6v0c-8.8,13.2-15.3,28-19.1,43.7c-0.3,1.2-0.6,2.4-0.8,3.6c0,0.2-0.1,0.4-0.1,0.6c-0.2,1-0.4,2-0.6,3
			c-0.1,0.3-0.1,0.6-0.2,0.9c-0.2,0.9-0.3,1.8-0.4,2.7c-0.1,0.4-0.1,0.7-0.2,1.1c-0.1,0.9-0.2,1.7-0.3,2.6c-0.1,0.4-0.1,0.8-0.1,1.2
			c-0.1,0.8-0.2,1.7-0.3,2.5c0,0.4-0.1,0.9-0.1,1.3c-0.1,0.8-0.1,1.7-0.2,2.5c0,0.4-0.1,0.9-0.1,1.3c0,0.9-0.1,1.8-0.1,2.6
			c0,0.4,0,0.8,0,1.2c0,1.3-0.1,2.5-0.1,3.8c0,1.1,0,2.3,0,3.4c0,0.9,0.1,1.8,0.1,2.7c0,0.2,0,0.4,0,0.6c0.1,2.2,0.3,4.4,0.5,6.5
			L57.5,198z"/>
		<polygon style="clip-path:url(#SVGID_00000144308218802038552450000006789283407658086279_);fill:#CACACA;" points="91.2,115.3 
			65.4,178.7 83.7,187.7 90.1,170.6 107.1,124.7 107.8,122.8 		"/>
		<g style="opacity:0.21;clip-path:url(#SVGID_00000144308218802038552450000006789283407658086279_);">
			<g>
				<defs>
					<rect id="SVGID_00000150075667476254477010000008995851500274732735_" x="11.2" y="84.8" width="22.7" height="93.8"/>
				</defs>
				<clipPath id="SVGID_00000052091954810085580690000010955942227725614002_">
					<use xlink:href="#SVGID_00000150075667476254477010000008995851500274732735_"  style="overflow:visible;"/>
				</clipPath>
				<path style="clip-path:url(#SVGID_00000052091954810085580690000010955942227725614002_);fill:#212E52;" d="M14.2,174.2
					L14.2,174.2l8.1,4.4l4.9-39.5l6.7-54.3c-8.3,12.5-14.6,26.4-18.5,41.3l-0.6,2.5c0,0,0,0,0,0c-0.3,1.2-0.6,2.4-0.8,3.6
					c0,0.2-0.1,0.4-0.1,0.6c-0.2,1-0.4,2-0.6,3c-0.1,0.3-0.1,0.6-0.2,0.9c-0.2,0.9-0.3,1.8-0.4,2.7c-0.1,0.4-0.1,0.7-0.2,1.1
					c-0.1,0.9-0.2,1.7-0.3,2.6c-0.1,0.4-0.1,0.8-0.1,1.2c-0.1,0.8-0.2,1.7-0.3,2.5c0,0.4-0.1,0.9-0.1,1.3c-0.1,0.8-0.1,1.7-0.2,2.5
					c0,0.4-0.1,0.9-0.1,1.3c0,0.9-0.1,1.8-0.1,2.6c0,0.4,0,0.8,0,1.2c0,1.3-0.1,2.5-0.1,3.8c0,1.1,0,2.3,0,3.4
					c0,0.9,0.1,1.8,0.1,2.7c0,0.2,0,0.4,0,0.6c0.1,2.2,0.3,4.4,0.5,6.5L14.2,174.2z"/>
			</g>
		</g>
		<path style="clip-path:url(#SVGID_00000144308218802038552450000006789283407658086279_);fill:#CACACA;" d="M45.1,181.1
			c0,1.3,1.1,2.4,2.4,2.4c1.3,0,2.4-1.1,2.4-2.4c0-1.3-1.1-2.4-2.4-2.4C46.2,178.7,45.1,179.7,45.1,181.1"/>
		<path style="clip-path:url(#SVGID_00000144308218802038552450000006789283407658086279_);fill:#CACACA;" d="M38,178
			c0,1.3,1.1,2.4,2.4,2.4c1.3,0,2.4-1.1,2.4-2.4s-1.1-2.4-2.4-2.4C39.1,175.6,38,176.6,38,178"/>
		<path style="clip-path:url(#SVGID_00000144308218802038552450000006789283407658086279_);fill:#B6B6B6;" d="M47.5,178.7
			c0.2,0,0.4,0,0.6,0.1c-1.1,0.3-1.8,1.2-1.8,2.3c0,1.1,0.8,2.1,1.8,2.3c-0.2,0-0.4,0.1-0.6,0.1c-1.3,0-2.4-1.1-2.4-2.4
			C45.1,179.7,46.2,178.7,47.5,178.7"/>
		<path style="clip-path:url(#SVGID_00000144308218802038552450000006789283407658086279_);fill:#B6B6B6;" d="M40.4,175.6
			c0.2,0,0.4,0,0.6,0.1c-1.1,0.3-1.8,1.2-1.8,2.3c0,1.1,0.8,2.1,1.8,2.3c-0.2,0-0.4,0.1-0.6,0.1c-1.3,0-2.4-1.1-2.4-2.4
			C38,176.6,39.1,175.6,40.4,175.6"/>
		<path style="clip-path:url(#SVGID_00000144308218802038552450000006789283407658086279_);fill:#3A62F1;" d="M222.3,114.9l34.7,85
			l45.4-24.9c0.6-5,0.9-10.1,0.9-15.3c0-26.8-7.9-51.9-21.6-73.2l-11.9,5.8L222.3,114.9z"/>
		<polygon style="clip-path:url(#SVGID_00000144308218802038552450000006789283407658086279_);fill:#CACACA;" points="223.3,117.3 
			206.7,124.8 230.8,189.7 249.1,180.6 		"/>
		<polygon style="clip-path:url(#SVGID_00000144308218802038552450000006789283407658086279_);fill:#284199;" points="240.9,184.7 
			257,199.9 249.1,180.6 		"/>
		<g style="opacity:0.14;clip-path:url(#SVGID_00000144308218802038552450000006789283407658086279_);">
			<g>
				<defs>
					<rect id="SVGID_00000111897890180586639360000015317881286227939749_" x="281.7" y="86.5" width="21.6" height="94.1"/>
				</defs>
				<clipPath id="SVGID_00000091009956122686112380000017327589675833381282_">
					<use xlink:href="#SVGID_00000111897890180586639360000015317881286227939749_"  style="overflow:visible;"/>
				</clipPath>
				<path style="clip-path:url(#SVGID_00000091009956122686112380000017327589675833381282_);fill:#273866;" d="M302.4,175
					c0.6-5,0.9-10.1,0.9-15.3c0-26.8-7.9-51.9-21.6-73.2l10.5,94L302.4,175z"/>
			</g>
		</g>
		<path style="clip-path:url(#SVGID_00000144308218802038552450000006789283407658086279_);fill:#CACACA;" d="M269,182.8
			c0,1.3-1.1,2.4-2.4,2.4c-1.3,0-2.4-1.1-2.4-2.4s1.1-2.4,2.4-2.4C267.9,180.4,269,181.5,269,182.8"/>
		<path style="clip-path:url(#SVGID_00000144308218802038552450000006789283407658086279_);fill:#CACACA;" d="M276.1,179.7
			c0,1.3-1.1,2.4-2.4,2.4c-1.3,0-2.4-1.1-2.4-2.4c0-1.3,1.1-2.4,2.4-2.4C275,177.3,276.1,178.4,276.1,179.7"/>
		<path style="clip-path:url(#SVGID_00000144308218802038552450000006789283407658086279_);fill:#B6B6B6;" d="M266.6,180.4
			c-0.2,0-0.4,0-0.6,0.1c1.1,0.3,1.8,1.2,1.8,2.3c0,1.1-0.8,2.1-1.8,2.3c0.2,0,0.4,0.1,0.6,0.1c1.3,0,2.4-1.1,2.4-2.4
			C269,181.5,267.9,180.4,266.6,180.4"/>
		<path style="clip-path:url(#SVGID_00000144308218802038552450000006789283407658086279_);fill:#B6B6B6;" d="M273.6,177.3
			c-0.2,0-0.4,0-0.6,0.1c1.1,0.3,1.8,1.2,1.8,2.3c0,1.1-0.8,2.1-1.8,2.3c0.2,0,0.4,0.1,0.6,0.1c1.3,0,2.4-1.1,2.4-2.4
			C276.1,178.4,275,177.3,273.6,177.3"/>
		<path style="clip-path:url(#SVGID_00000144308218802038552450000006789283407658086279_);fill:#CF9B80;" d="M209.3,131.9l-2.3-6.2
			l-29.3-8.5c-4.1-1.2-8.5-0.9-12.4,0.8l-11.6,5l-11.5,5c-3.7,1.6-6.4,5-7,9.1l-3.4,22c-0.5,3.1,1.3,6.1,4.2,7
			c3.1,1,6.8,0.6,9.7-1.4c1.8-1.2,3.2-2.8,4.1-4.7l5.2-10.5c0.6-1.3,1.9-2.1,3.3-2.3l5.2-0.5c1.5-0.1,3,0.4,4.1,1.4l44.7,41.1l0,0
			l15.1-8.3L209.3,131.9z"/>
		<g style="opacity:0.14;clip-path:url(#SVGID_00000144308218802038552450000006789283407658086279_);">
			<g>
				<defs>
					<rect id="SVGID_00000110446555563708792190000005519365722528133795_" x="179.7" y="131.9" width="47.9" height="57.4"/>
				</defs>
				<clipPath id="SVGID_00000014633697983204777950000002962993291468978313_">
					<use xlink:href="#SVGID_00000110446555563708792190000005519365722528133795_"  style="overflow:visible;"/>
				</clipPath>
				<polygon style="clip-path:url(#SVGID_00000014633697983204777950000002962993291468978313_);fill:#606060;" points="
					179.7,159.2 212.5,189.3 227.6,181 209.3,131.9 				"/>
			</g>
		</g>
		<path style="clip-path:url(#SVGID_00000144308218802038552450000006789283407658086279_);fill:#B38671;" d="M119,187.8
			c-0.7,1.3-1.5,2.6-2.3,3.8c-0.8,1.2-1.6,2.5-2.5,3.7c0.7-1.3,1.5-2.6,2.3-3.8C117.3,190.3,118.1,189,119,187.8"/>
		<path style="clip-path:url(#SVGID_00000144308218802038552450000006789283407658086279_);fill:#B38671;" d="M133.9,195.3
			c-0.9,1.8-1.8,3.6-2.8,5.4c-1,1.8-1.9,3.5-3,5.3c0.9-1.8,1.8-3.6,2.8-5.4C131.9,198.8,132.9,197.1,133.9,195.3"/>
		<path style="clip-path:url(#SVGID_00000144308218802038552450000006789283407658086279_);fill:#B38671;" d="M146.8,204.7
			c-0.7,1.5-1.5,3-2.2,4.5c-0.8,1.5-1.6,2.9-2.5,4.3c0.7-1.5,1.5-3,2.2-4.5C145.1,207.6,145.9,206.1,146.8,204.7"/>
		<path style="clip-path:url(#SVGID_00000144308218802038552450000006789283407658086279_);fill:#CF9B80;" d="M107.3,175.3
			c0,0-6.6,3.2-4.7,14.9c1.9,11.7,9.8,6.9,9.8,6.9s0.7,15.8,14.2,11c0,0,3.5,10.9,13.6,7.1c0,0,1.2,11.5,11.1,6.7l6-2.9l-5.1-4
			c0,0,3.7-12.5-4.7-11.6c0,0-0.3-14.5-12.5-10.1c0,0-2.2-13.3-15.4-6.3C119.5,187,117.3,169.8,107.3,175.3"/>
	</g>
</g>
</svg>
